<svg xmlns="http://www.w3.org/2000/svg" viewBox="0 0 432 432"><defs><style>.cls-1{fill:#0b0b0b;}.cls-2{fill:#fefefe;}.cls-3{fill:#ea6184;}.cls-4{fill:#e5638a;}.cls-5{fill:#7e6afe;}.cls-6{fill:#ec607f;}.cls-7{fill:#8c63ee;}.cls-8{fill:#f15e7b;}.cls-9{fill:#df6690;}.cls-10{fill:#7173fd;}.cls-11{fill:#599ee4;}.cls-12{fill:#db6794;}.cls-13{fill:#bc5dc2;}.cls-14{fill:#569cf3;}.cls-15{fill:#b27bae;}.cls-16{fill:#c86c97;}.cls-17{fill:#41a1ec;}.cls-18{fill:#ef5967;}.cls-19{fill:#998abd;}.cls-20{fill:#7b9cd2;}.cls-21{fill:#d56a99;}.cls-22{fill:#8964fd;}.cls-23{fill:#796ffd;}.cls-24{fill:#f75d72;}.cls-25{fill:#925efc;}.cls-26{fill:#53a6ef;}.cls-27{fill:#46a1fa;}.cls-28{fill:#4fa0f6;}.cls-29{fill:#fb5b6c;}</style></defs><title>apple-music</title><g id="Layer_2" data-name="Layer 2"><g id="Layer_2-2" data-name="Layer 2"><path class="cls-1" d="M343,432H87a48.56,48.56,0,0,0-4.9-1.64c-42-9.15-68.45-34.6-79.6-76.06C1.67,351.2.83,348.1,0,345V87c.59-1.8,1.33-3.56,1.74-5.39,9.27-41.78,34.7-68,76-79.09C81.11,1.61,84.56.84,88,0H343c.33.3.64.83,1,.86,36.18,3.26,75,31.23,85.5,76.83.79,3.44,1.66,6.87,2.5,10.31V345a56.31,56.31,0,0,0-1.74,5.39c-8.73,40.17-32.95,66.06-72.09,78.12C353.22,430,348.06,430.85,343,432Zm-127-2c38.5,0,77,.17,115.48-.05,54.87-.3,98.26-43.55,98.43-98.46q.38-115.47,0-231c-.18-54.91-43.5-98.24-98.44-98.43q-115.47-.39-231,0C45.4,2.28,2.12,46,2.05,101q-.16,115,.08,230a99.72,99.72,0,0,0,2.55,22.25C15.46,399.3,54.1,429.82,101.53,430,139.68,430.06,177.84,430,216,430Z"/><path class="cls-2" d="M216,430c-38.16,0-76.32.08-114.47,0-47.43-.14-86.07-30.66-96.85-76.73A99.72,99.72,0,0,1,2.13,331Q1.86,216,2.05,101C2.12,46,45.4,2.28,100.52,2.09q115.47-.39,231,0c54.94.19,98.26,43.52,98.44,98.43q.38,115.47,0,231c-.17,54.91-43.56,98.16-98.43,98.46C293,430.15,254.5,430,216,430ZM153.91,184v9q0,27,0,54c-.23,9.12-.36,18.26-.72,27.38-.21,5.3-3.44,8.48-8.24,10.13-2,.7-4.2,1-6.29,1.49-9.78,2.38-19.87,3.92-29.28,7.34-22.07,8-29.82,34.53-15.72,51.74a20.18,20.18,0,0,0,2.5,3.55c10,9.39,21.76,11.77,34.88,8.5,20.46-1.46,35-14.16,38-34.37,1.25-8.46.64-17.2.87-25.82V243l0-49V173c.78-9.18,1.69-10.23,10.52-12.16L195,157.69l39-7.9c17.59-3.47,35.18-7,52.78-10.4,3.89-.75,7.94-1.81,11.17,1.81.3,3.29.82,6.58.87,9.87C299,161,299,171,299,181v22l0,21.05c-.06,6.15,0,12.31-.2,18.46-.24,7.55-3.4,11.63-10.37,13.28-9.14,2.15-18.29,4.28-27.5,6.1C246.82,264.68,235,276,233,289l-.34,1.81-.44,3.19c-.62,14.05,5.44,24.33,17.62,31.15l0,0,1.16.8c9.89,4.66,20,3.22,30.2,1.31,20.9-3.9,33.53-18.84,33.92-40.82.13-7.46-.06-14.93-.1-22.4q0-12.51.05-25V199q0-11.52,0-23V135q0-10,0-20t0-20c0-5.92.27-11.86.05-17.78-.24-6.48-3.51-9.28-10.12-9.28l-35.16,6.61L223,84c-4.58.91-9.16,1.81-13.74,2.73-15.29,3.09-30.63,5.94-45.84,9.39-6.31,1.43-9.27,5.88-9.53,12.44-.2,5.14,0,10.3,0,15.45q0,11.47,0,23,0,9,0,18Q153.92,174.49,153.91,184Z"/><path class="cls-3" d="M153.92,165q0-9,0-18H158c8.17-1.26,16.77-1.3,24.4-4.05,11.62-4.2,22.67-10.06,33.76-15.63a206.32,206.32,0,0,0,20.09-11.68c6.59-4.3,12.7-9.34,19.19-13.8C266.72,94.1,278.49,87,289.36,78.73a22.9,22.9,0,0,1,14.57-4.79c3,0,4.78,1,5.07,4-4.34,1.91-10.31,2.66-12.66,6-3.92,5.54-9.77,7.81-14.69,11.29-11.35,8.06-23.56,14.9-35.44,22.21-8.57,5.28-16.83,11.19-25.81,15.61-11.71,5.76-23.45,11.37-34.19,18.83-1.81,1.26-3.48,2.73-5.21,4.1l-6,1c-4.18.87-8.45,2.74-12.52,2.38-5.12-.45-5.57,1.88-5.5,5.61Z"/><path class="cls-4" d="M181,156c1.73-1.37,3.4-2.84,5.21-4.1,10.74-7.46,22.48-13.07,34.19-18.83,9-4.42,17.24-10.33,25.81-15.61,11.88-7.31,24.09-14.15,35.44-22.21,4.92-3.48,10.77-5.75,14.69-11.29,2.35-3.31,8.32-4.06,12.66-6,.31-1.19,1.24-2.74.81-3.51A59.71,59.71,0,0,0,305,67.92c6.61,0,9.88,2.8,10.12,9.28.22,5.92,0,11.86-.05,17.78L312,95l-1.74-4.68a6.85,6.85,0,0,0-1.81.51c-8.54,5.24-17,10.54-25.59,15.77-3.08,1.88-6.3,3.52-9.38,5.39-6.62,4-13.08,8.36-19.81,12.19-8.16,4.64-16.65,8.69-24.8,13.35C213.83,146.13,198.39,153.55,181,156Z"/><path class="cls-5" d="M131.07,357.17c-13.12,3.27-24.87.89-34.88-8.5a20.18,20.18,0,0,1-2.5-3.55L98,345c2.36-.85,5.38-1.07,7-2.68,5.41-5.52,10.28-11.54,15.41-17.33,7.25-8.2,14.68-16.24,21.78-24.57,3.89-4.56,7.24-9.59,10.84-14.41,2.09-1.85,4.05-3.88,6.3-5.53,3.23-2.37,5.74-1.42,6.45,2.56.47,2.59.2,5.3.26,8-3.2,3.39-6.69,6.56-9.53,10.23-3.71,4.8-6.75,10.11-10.37,15-4.18,5.65-8.85,10.93-13,16.63-3,4.19-5.29,8.89-8.22,13.15-1.7,2.48-4,4.53-6.07,6.78l.64,1.23H131Z"/><path class="cls-6" d="M305,67.92a59.71,59.71,0,0,1,4.82,6.56c.43.77-.5,2.32-.81,3.51-.29-3.1-2-4.1-5.07-4a22.9,22.9,0,0,0-14.57,4.79C278.49,87,266.72,94.1,255.43,101.84c-6.49,4.46-12.6,9.5-19.19,13.8a206.32,206.32,0,0,1-20.09,11.68C205.06,132.89,194,138.75,182.39,143c-7.63,2.75-16.23,2.79-24.4,4.05l2-11,14-3c2.51,0,5.14.48,7.52-.08,10.21-2.44,20.92-3.25,30-9.56,6.48-4.53,13.37-8.46,19.83-13,12-8.45,23.77-17.16,35.61-25.79,2.94-2.14,5.8-4.41,8.27-6.29l-5.36-3.73Z"/><path class="cls-7" d="M98,345l-4.32.13c-14.1-17.21-6.35-43.7,15.72-51.74,9.41-3.42,19.5-5,29.28-7.34,2.09-.51,4.26-.79,6.29-1.49,4.8-1.65,8-4.83,8.24-10.13.36-9.12.49-18.26.72-27.38.57-.28,1.37-.4,1.68-.85,4.3-6.21,8.46-7.16,14.31-3.19v54H167c-.33-2-.67-4-1-6-.06-2.66.21-5.37-.26-8-.71-4-3.22-4.93-6.45-2.56-2.25,1.65-4.21,3.68-6.3,5.53l-15,5c-9.06,2.39-18.24,4.41-27.16,7.25C94.36,303.5,87.28,320.1,93,332Z"/><path class="cls-8" d="M269.83,74.53l5.36,3.73c-2.47,1.88-5.33,4.15-8.27,6.29-11.84,8.63-23.64,17.34-35.61,25.79-6.46,4.56-13.35,8.49-19.83,13-9,6.31-19.75,7.12-30,9.56-2.38.56-5,.08-7.52.08.7-.39,1.39-.83,2.12-1.16,15.59-7,30.75-14.72,44.69-24.71,6.56-4.69,13.45-8.92,19.94-13.69,2.55-1.88,4.42-4.69,6.6-7.07l-1-1.37H235c-2.33-.18-4.66-.34-7-.53-1.68-.13-3.36-.3-5-.46Z"/><path class="cls-9" d="M181,156c17.39-2.45,32.83-9.87,47.87-18.46,8.15-4.66,16.64-8.71,24.8-13.35,6.73-3.83,13.19-8.15,19.81-12.19,3.08-1.87,6.3-3.51,9.38-5.39,8.55-5.23,17.05-10.53,25.59-15.77a6.85,6.85,0,0,1,1.81-.51L312,95c-1.5,2.41-2.44,5.78-4.61,7-7.07,4.14-14.59,7.54-21.95,11.19-1.92,1-4,1.61-5.81,2.73-5.3,3.27-10.37,6.94-15.78,10-8.35,4.76-16.71,9.6-25.43,13.63-12.84,5.94-24.94,13.86-39.47,15.64-1.4.17-2.64,1.58-3.95,2.42l-14.51,3.14c-8.83,1.93-9.74,3-10.52,12.16h-3c.1-1.15-.18-2.49.34-3.39,2.43-4.27,5.08-8.42,7.65-12.6Z"/><path class="cls-10" d="M167,297h2.92c-.23,8.62.38,17.36-.87,25.82-3,20.21-17.53,32.91-38,34.37,0-1.06,0-2.11-.08-3.17,3-8.39,11.64-13.28,13.61-22.36.41-1.88,2.17-3.59,3.62-5.08C156.55,318,163.7,308.71,167,297Z"/><path class="cls-11" d="M233,289c2-13,13.86-24.33,28-27.12,9.21-1.82,18.36-3.95,27.5-6.1,7-1.65,10.13-5.73,10.37-13.28.19-6.15.14-12.31.2-18.46a4.16,4.16,0,0,0,.95-.26c8.7-4.8,10.57-3.86,12.16,5.59.56,3.27,1.92,6.41,2.91,9.61q0,12.51-.05,25c-1-1.38-1.91-2.77-2.89-4.15-.68-1-1.4-1.89-2.1-2.84-3.23-3.66-6.82-2.06-10.44-.79-6.51,2.29-13.05,4.52-19.58,6.77-4.41.66-8.83,1.25-13.23,2-12.54,2.09-22.79,7.68-29.37,19C236.31,285.92,234.46,287.36,233,289Z"/><path class="cls-12" d="M195,157.69c1.31-.84,2.55-2.25,3.95-2.42,14.53-1.78,26.63-9.7,39.47-15.64,8.72-4,17.08-8.87,25.43-13.63,5.41-3.08,10.48-6.75,15.78-10,1.81-1.12,3.89-1.78,5.81-2.73,7.36-3.65,14.88-7,21.95-11.19,2.17-1.27,3.11-4.64,4.61-7l3.06,0q0,10,0,20L312,115c-.52-1.89-1-3.77-1.83-6.67L251,139.18l.7,1.59a15.81,15.81,0,0,1,3.16-.53A16.19,16.19,0,0,1,258,141c-6.21,2-12.45,4-18.63,6.14a45.4,45.4,0,0,0-5.37,2.66Z"/><path class="cls-13" d="M169.93,243c-5.85-4-10-3-14.31,3.19-.31.45-1.11.57-1.68.85q0-27,0-54c1.68.49,3.34,1.35,5,1.39,3.67.09,7.35-.25,11-.41Z"/><path class="cls-14" d="M233,289c1.5-1.65,3.35-3.09,4.44-5,6.58-11.37,16.83-17,29.37-19,4.4-.73,8.82-1.32,13.23-2q-1,5-2,10c-5.32,2.66-10.57,5.48-16,7.93s-10.75,4.31-16,6.64c-4.72,2.08-9.21,4.84-8.88,10.77.4,7.3,2.77,14,8.88,18.66l4,5-.18,3.16c-12.18-6.82-18.24-17.1-17.62-31.15.15-1.07.3-2.13.44-3.19Z"/><path class="cls-15" d="M315.06,135v41a19,19,0,0,0-16,5c-.06-10,0-19.94-.21-29.9-.05-3.29-.57-6.58-.87-9.87C303.59,139,308,133.25,315.06,135Z"/><path class="cls-16" d="M315.06,135c-7.09-1.75-11.47,4-17.12,6.2-3.23-3.62-7.28-2.56-11.17-1.81-17.6,3.42-35.19,6.93-52.78,10.4a45.4,45.4,0,0,1,5.37-2.66C245.54,145,251.78,143,258,141h2l2-2a14.62,14.62,0,0,0,2.48-.09c14.64-3,27.76-9.89,41-16.4,2.75-1.35,4.4-5,6.55-7.52l3.05,0Q315.05,125,315.06,135Z"/><path class="cls-17" d="M249.8,325.16,250,322a11.07,11.07,0,0,1,3,.2c12.55,4.52,24.83,2.4,36.73-2.09,9.83-3.72,16.15-10.82,18.52-21.53A71.75,71.75,0,0,0,309,272l1-15c.7,1,1.42,1.88,2.1,2.84,1,1.38,1.93,2.77,2.89,4.15,0,7.47.23,14.94.1,22.4-.39,22-13,36.92-33.92,40.82-10.2,1.91-20.31,3.35-30.2-1.31l-1.16-.8Z"/><path class="cls-18" d="M223,84c1.67.16,3.35.33,5,.46,2.32.19,4.65.35,7,.53-1.72,1-3.34,2.3-5.18,2.78C225,89.05,220,90,215,91c-9.3,1.49-18.63,2.82-27.89,4.51-7,1.28-14,2.71-20.83,4.64-6.25,1.76-8.21,4.93-8.28,11.35,0,1.5,0,3,0,4.5l-1,8H154c0-5.15-.25-10.31,0-15.45.26-6.56,3.22-11,9.53-12.44,15.21-3.45,30.55-6.3,45.84-9.39C213.85,85.82,218.43,84.92,223,84Z"/><path class="cls-19" d="M299,181a19,19,0,0,1,16-5q0,11.52,0,23l-12,6.71L299,203Z"/><path class="cls-20" d="M299,203l4.07,2.72,12-6.71q0,20,0,40c-1-3.2-2.35-6.34-2.91-9.61-1.59-9.45-3.46-10.39-12.16-5.59a4.16,4.16,0,0,1-.95.26Z"/><path class="cls-21" d="M170,194c-3.68.16-7.36.5-11,.41-1.69,0-3.35-.9-5-1.39,0-3,0-6,0-9l4.09-7c2.93-1.49,7.61,1,9-4h3Q170,183.51,170,194Z"/><path class="cls-8" d="M154,124H157l3,12-2,11h-4.06Q153.93,135.5,154,124Z"/><path class="cls-12" d="M158,177l-4.09,7q0-9.51,0-19l3.06,0Z"/><path class="cls-11" d="M232.62,290.82c-.14,1.06-.29,2.12-.44,3.19C232.33,293,232.48,291.88,232.62,290.82Z"/><path class="cls-14" d="M249.83,325.12l1.16.8Z"/><path class="cls-4" d="M158,177l-1-12c-.07-3.73.38-6.06,5.5-5.61,4.07.36,8.34-1.51,12.52-2.38-2.57,4.18-5.22,8.33-7.65,12.6-.52.9-.24,2.24-.34,3.39C165.61,178,160.93,175.48,158,177Z"/><path class="cls-22" d="M138,291l15-5c-3.6,4.82-6.95,9.85-10.84,14.41-7.1,8.33-14.53,16.37-21.78,24.57-5.13,5.79-10,11.81-15.41,17.33-1.58,1.61-4.6,1.83-7,2.68l-5-13c1.09-.38,2.43-.47,3.23-1.17q9.42-8.2,18.64-16.63,9.61-8.79,19-17.81A43,43,0,0,0,138,291Z"/><path class="cls-23" d="M167,297c-3.31,11.74-10.46,21-18.79,29.59-1.45,1.49-3.21,3.2-3.62,5.08-2,9.08-10.65,14-13.61,22.36H119.51l-.64-1.23c2-2.25,4.37-4.3,6.07-6.78,2.93-4.26,5.2-9,8.22-13.15,4.1-5.7,8.77-11,13-16.63,3.62-4.88,6.66-10.19,10.37-15,2.84-3.67,6.33-6.84,9.53-10.23C166.34,293,166.68,295,167,297Z"/><path class="cls-24" d="M160,136l-3-12c.33-2.67.67-5.34,1-8,2.11.25,4.35,1.08,6.31.65a141.27,141.27,0,0,0,46.78-19.84c1.8-1.17,2.63-3.84,3.91-5.81,4.95-1,9.95-2,14.84-3.22C231.68,87.3,233.3,86,235,85h11.37l1,1.37c-2.18,2.38-4,5.19-6.6,7.07-6.49,4.77-13.38,9-19.94,13.69-13.94,10-29.1,17.72-44.69,24.71-.73.33-1.42.77-2.12,1.16Z"/><path class="cls-25" d="M138,291a43,43,0,0,1-4.1,5.39q-9.39,9-19,17.81-9.21,8.43-18.64,16.63c-.8.7-2.14.79-3.23,1.17-5.72-11.9,1.36-28.5,17.84-33.75C119.76,295.41,128.94,293.39,138,291Z"/><path class="cls-26" d="M310,257l-1,15c-2.73.54-5.51.92-8.19,1.65-3.64,1-7.21,2.21-10.81,3.34l-12-4q1-5,2-10c6.53-2.25,13.07-4.48,19.58-6.77C303.2,255,306.79,253.36,310,257Z"/><path class="cls-21" d="M312,115c-2.15,2.56-3.8,6.17-6.55,7.52-13.21,6.51-26.33,13.42-41,16.4A14.62,14.62,0,0,1,262,139l-2,2h-2a16.19,16.19,0,0,0-3.15-.75,15.81,15.81,0,0,0-3.16.53l-.7-1.59,59.19-30.86C311,111.22,311.48,113.1,312,115Z"/><path class="cls-27" d="M290,277c3.6-1.13,7.17-2.37,10.81-3.34,2.68-.73,5.46-1.11,8.19-1.65a71.75,71.75,0,0,1-.81,26.56c-2.37,10.71-8.69,17.81-18.52,21.53-11.9,4.49-24.18,6.61-36.73,2.09a11.07,11.07,0,0,0-3-.2l-4-5c2.27-3,4-6.81,6.92-8.72,7.28-4.69,14.83-9.23,22.83-12.45C284.66,292.23,290.48,287.27,290,277Z"/><path class="cls-28" d="M290,277c.48,10.26-5.34,15.22-14.27,18.82-8,3.22-15.55,7.76-22.83,12.45-3,1.91-4.65,5.76-6.92,8.72-6.11-4.71-8.48-11.36-8.88-18.66-.33-5.93,4.16-8.69,8.88-10.77,5.3-2.33,10.78-4.24,16-6.64s10.65-5.27,16-7.93Z"/><path class="cls-12" d="M260,141l2-2Z"/><path class="cls-29" d="M215,91c-1.28,2-2.11,4.64-3.91,5.81a141.27,141.27,0,0,1-46.78,19.84c-2,.43-4.2-.4-6.31-.65,0-1.5,0-3,0-4.5.07-6.42,2-9.59,8.28-11.35,6.84-1.93,13.84-3.36,20.83-4.64C196.37,93.82,205.7,92.49,215,91Z"/></g></g></svg>