<svg xmlns="http://www.w3.org/2000/svg" viewBox="0 0 430 430"><defs><style>.cls-1{fill:#1d9fc2;}.cls-2{fill:#fefefe;}</style></defs><title>bandcamp</title><g id="Layer_2" data-name="Layer 2"><g id="Layer_2-2" data-name="Layer 2"><path class="cls-1" d="M430,90V341a9.18,9.18,0,0,0-1,2.1c-7.21,42.39-31.23,70.18-72.31,83-5.45,1.7-11.15,2.61-16.73,3.88H89a8.11,8.11,0,0,0-2.09-.95c-40.61-5.63-73.34-34.49-83.65-73.82C2.11,350.83,1.08,346.41,0,342V88a13.05,13.05,0,0,0,1-2.53c8-42,32.27-69.52,73.28-82C78.81,2.08,83.43,1.14,88,0H341a8.39,8.39,0,0,0,2,1c39.76,6.52,67,28.49,81.14,66.24C426.92,74.5,428.1,82.38,430,90Zm-90.33,53.24c-1.78-.11-2.73-.23-3.67-.23q-81.26,0-162.5-.08c-3,0-4.36,1.14-5.7,3.6q-37.17,68-74.48,135.85c-.92,1.67-1.71,3.39-2.72,5.39,1.42.12,2.08.22,2.73.22q81.75,0,163.5.1c3.17,0,4.3-1.52,5.56-3.83q21.11-38.6,42.31-77.12C316.23,186.12,327.72,165.08,339.67,143.24Z"/><path class="cls-2" d="M339.67,143.24c-11.95,21.84-23.44,42.88-35,63.9q-21.15,38.57-42.31,77.12c-1.26,2.31-2.39,3.84-5.56,3.83q-81.75-.19-163.5-.1c-.65,0-1.31-.1-2.73-.22,1-2,1.8-3.72,2.72-5.39q37.25-67.92,74.48-135.85c1.34-2.46,2.71-3.61,5.7-3.6q81.26.15,162.5.08C336.94,143,337.89,143.13,339.67,143.24Z"/></g></g></svg>