<svg xmlns="http://www.w3.org/2000/svg" viewBox="0 0 430 430"><defs><style>.cls-1{fill:#3fa95c;}.cls-2{fill:#fe9400;}.cls-3{fill:#32a25c;}.cls-4{fill:#306694;}.cls-5{fill:#274192;}.cls-6{fill:#f98300;}.cls-7{fill:#fd9511;}.cls-8{fill:#ee6217;}.cls-9{fill:#df4232;}.cls-10{fill:#feb608;}.cls-11{fill:#c91f4b;}.cls-12{fill:#3253a3;}.cls-13{fill:#2b4e93;}.cls-14{fill:#349173;}.cls-15{fill:#71156c;}.cls-16{fill:#2e499c;}.cls-17{fill:#b1185a;}.cls-18{fill:#f07c15;}.cls-19{fill:#339b68;}.cls-20{fill:#232f8f;}.cls-21{fill:#891666;}.cls-22{fill:#551475;}.cls-23{fill:#faa10d;}.cls-24{fill:#2e127e;}.cls-25{fill:#9b1761;}.cls-26{fill:#411377;}.cls-27{fill:#eb8715;}.cls-28{fill:#b22e27;}</style></defs><title>deezer</title><g id="Layer_2" data-name="Layer 2"><g id="Layer_2-2" data-name="Layer 2"><path d="M430,89V342a45,45,0,0,0-1.8,5.32Q415.69,408,356.46,426.09c-5.38,1.65-11,2.62-16.46,3.91H88a53.75,53.75,0,0,0-5.81-1.87C45,420.56,19.67,398.84,6.08,363.54,3.42,356.6,2,349.19,0,342V88a45,45,0,0,0,1.8-5.32Q14.4,21.69,74,3.74C78.93,2.25,84,1.24,89,0H340c.48.33.93.87,1.45.94,40.5,5.78,68,27.92,82.56,66C426.72,74,428,81.64,430,89ZM143.88,262.45l2.28,0,14.82-.06h20l18.89.12,7.8.39v-16q0-11.44.07-22.88l-.75-1-13,0H139.1c0,12.42.1,24.4-.06,36.38,0,3.25,1.3,3.71,3.91,3ZM236,317.81h31l7,0h16.65V278.21H274l-7,0H256l-13,0h-7l-6,.92-7.6-1.28V317.8H236ZM281,223H222.38v39.41h18.56l8,0,8,0,14,0,13,0h6.81V223Zm-73.32-30,0-21,.07-3-.79-1.33L185,167.51l-10,0H139.24V206l.76.92,1,0h33l20,0h13.7Zm97.63,6v7.76h68.37V167.62H305.3V191Q305.32,195,305.31,199Zm.68,24-.75.92.06,12V262.5H320l16,0,15.05,0h22.55V223H318Zm52,94.77h15.6V278.25H358l-14,0H305.4v39.58H344ZM191,278.25H139.33v39.56h68.26V278.25ZM102,317.8h22.63V278.26H56.39V317.8ZM373.71,112.46H305.46V151.6h68.25Z"/><path class="cls-1" d="M373.71,112.46V151.6H305.46V112.46Z"/><path class="cls-2" d="M102,317.8H56.39V278.26H102Z"/><path class="cls-3" d="M305.3,191V167.62h68.39V190Z"/><path class="cls-4" d="M333,223h40.6v39.41H351.06a15.72,15.72,0,0,0-.81-3.82c-4.83-9.81-9.78-19.55-14.63-29.34C334.62,227.26,333.87,225.12,333,223Z"/><path class="cls-5" d="M318,278.24h26v39.6H319a67,67,0,0,1-1-7.8C318,299.43,318,288.83,318,278.24Z"/><path class="cls-6" d="M102,317.8V278.26h22.63V317.8Z"/><path class="cls-7" d="M185,167.51l21.92.15.79,1.33-.07,3c-1.42.72-3.16,1.13-4.22,2.21-7.79,7.94-15.53,15.94-23.09,24.11-2.42,2.62-4.26,5.78-6.36,8.7H152c.63-1.45.94-3.21,2-4.31,6.64-7.18,13.59-14.09,20.14-21.36C178,177,181.39,172.12,185,167.51Z"/><path class="cls-8" d="M148,278.25h22q0,19.77,0,39.54H148Z"/><path class="cls-9" d="M170,317.8q0-19.77,0-39.54h21v39.56Z"/><path class="cls-10" d="M139.24,206V167.53H175c-.38,1.05-.51,2.32-1.19,3.1-3.94,4.44-8.05,8.72-12,13.13-6.95,7.71-13.84,15.46-20.76,23.2l-1,0Z"/><path class="cls-9" d="M207.74,224q0,11.43-.07,22.88c-1.1.82-2.76,1.41-3.2,2.5-1.74,4.27-3.1,8.69-4.6,13.06L181,262.35a53.65,53.65,0,0,1,1.51-7.19c3.75-10.74,7.66-21.41,11.51-32.11l13,0Z"/><path class="cls-11" d="M191,317.81V278.25h16.61v39.56Z"/><path class="cls-12" d="M358,278.25h15.59v39.56H358Z"/><path class="cls-5" d="M336,262.47l-16,0c-4-8.26-7.87-16.54-12-24.74-.42-.84-1.83-1.19-2.79-1.78l-.06-12L306,223l12,0c3.05,6.56,6.14,13.1,9.14,19.68S333.06,255.88,336,262.47Z"/><path class="cls-13" d="M336,262.47c-2.95-6.59-5.87-13.2-8.87-19.77S321.05,229.58,318,223h15c.86,2.09,1.61,4.23,2.61,6.25,4.85,9.79,9.8,19.53,14.63,29.34a15.72,15.72,0,0,1,.81,3.82Z"/><path class="cls-14" d="M373.68,198v8.76H305.31V199Z"/><path class="cls-15" d="M247,223h14c1,4.13,1.94,8.27,3,12.39,2.29,9,4.64,18.07,7,27.11l-14,0c-.82-3.83-1.51-7.69-2.5-11.48C252.06,241.67,249.51,232.34,247,223Z"/><path class="cls-16" d="M358,278.25v39.56l-14,0v-39.6Z"/><path class="cls-17" d="M240.94,262.44H222.38V223H230c1,3.64,2.11,7.27,3.12,10.91Q237,248.19,240.94,262.44Z"/><path class="cls-18" d="M174,207c2.1-2.92,3.94-6.08,6.36-8.7,7.56-8.17,15.3-16.17,23.09-24.11,1.06-1.08,2.8-1.49,4.22-2.21l0,21c-6.88,2.42-10.11,8.41-13.7,14Z"/><path class="cls-19" d="M373.68,198l-68.37,1q0-4,0-8l68.39-1C373.69,192.66,373.68,195.33,373.68,198Z"/><path class="cls-8" d="M194,223.05c-3.85,10.7-7.76,21.37-11.51,32.11a53.65,53.65,0,0,0-1.51,7.19H167c1.68-5.16,3.35-10.32,5.05-15.46Q176,235,180,223Z"/><path class="cls-20" d="M318,278.24c0,10.59-.08,21.19,0,31.78a67,67,0,0,0,1,7.8H305.4V278.24Z"/><path class="cls-21" d="M243,278.24l13,0q0,19.77,0,39.55H243Z"/><path class="cls-22" d="M271,262.52c-2.33-9-4.68-18.07-7-27.11-1.05-4.12-2-8.26-3-12.39h12c1.32,4.43,2.72,8.83,3.94,13.29,2.39,8.73,4.69,17.49,7,26.24Z"/><path class="cls-15" d="M256,317.81q0-19.77,0-39.55h11q0,19.78,0,39.56Z"/><path class="cls-23" d="M141,207c6.92-7.74,13.81-15.49,20.76-23.2,4-4.41,8.08-8.69,12-13.13.68-.78.81-2,1.19-3.1l10,0c-3.62,4.61-7,9.44-10.91,13.78-6.55,7.27-13.5,14.18-20.14,21.36-1,1.1-1.33,2.86-2,4.31Z"/><path class="cls-10" d="M143,262.42c-2.62.71-4,.25-3.92-3,.16-12,.06-24,.06-36.38H155c-2.72,8.1-5.53,16.17-8.12,24.31-1.55,4.86-2.77,9.84-4.13,14.77Z"/><path class="cls-6" d="M148,278.25v39.56h-8.65V278.25Z"/><path class="cls-24" d="M282,278.21h8.64v39.64H282Z"/><path class="cls-21" d="M247,223c2.51,9.33,5.06,18.66,7.48,28,1,3.79,1.68,7.65,2.5,11.48l-8,0a22.44,22.44,0,0,0-.47-3.4q-5.22-18-10.51-36Z"/><path class="cls-25" d="M238,223q5.26,18,10.51,36a22.44,22.44,0,0,1,.47,3.4l-8,0q-3.91-14.25-7.83-28.5c-1-3.64-2.08-7.27-3.12-10.91Z"/><path class="cls-26" d="M282,278.21v39.64h-8V278.22Z"/><path class="cls-11" d="M230,317.8h-7.59V277.89l7.6,1.28Q230,298.49,230,317.8Z"/><path class="cls-26" d="M284,262.54c-2.34-8.75-4.64-17.51-7-26.24-1.22-4.46-2.62-8.86-3.94-13.29h8c2.45,8.84,4.86,17.69,7.44,26.5.19.67,1.52,1,2.33,1.5v11.54Z"/><path class="cls-25" d="M243,278.24v39.58h-7q0-19.77,0-39.56Z"/><path class="cls-22" d="M274,278.22v39.62l-7,0q0-19.77,0-39.56Z"/><path class="cls-27" d="M167,223h7c-3.7,10.4-7.47,20.79-11.08,31.23a81,81,0,0,0-1.94,8.1l-14.82.06,1.83-.64c4.45,1.1,6.53-.86,7.76-5.13,1.54-5.36,3.95-10.47,5.73-15.78C163.47,235,165.17,229,167,223Z"/><path class="cls-18" d="M161,262.37a81,81,0,0,1,1.94-8.1c3.61-10.44,7.38-20.83,11.08-31.23h6q-4,11.94-8,23.86c-1.7,5.14-3.37,10.3-5.05,15.46Z"/><path class="cls-20" d="M305.3,236c1,.59,2.37.94,2.79,1.78,4.08,8.2,8,16.48,12,24.74H305.3Z"/><path class="cls-7" d="M167,223c-1.83,6-3.53,11.94-5.52,17.84-1.78,5.31-4.19,10.42-5.73,15.78-1.23,4.27-3.31,6.23-7.76,5.13.64-2.2,1.2-4.42,1.94-6.59,3.66-10.72,7.38-21.43,11.08-32.15Z"/><path class="cls-23" d="M161,223.05c-3.7,10.72-7.42,21.43-11.08,32.15-.74,2.17-1.3,4.39-1.94,6.59l-1.83.64-2.28,0-1.13-.33c1.36-4.93,2.58-9.91,4.13-14.77,2.59-8.14,5.4-16.21,8.12-24.31Z"/><path class="cls-17" d="M236,278.25q0,19.78,0,39.56h-6q0-19.32,0-38.63Z"/><path class="cls-24" d="M290.77,251c-.81-.49-2.14-.83-2.33-1.5-2.58-8.81-5-17.66-7.44-26.5h9.77Z"/><path class="cls-8" d="M194,207c3.59-5.62,6.82-11.61,13.7-14v14Z"/><path class="cls-28" d="M199.87,262.47c1.5-4.37,2.86-8.79,4.6-13.06.44-1.09,2.1-1.68,3.2-2.5v16Z"/><path class="cls-18" d="M207.72,169l-.79-1.33Z"/><path class="cls-23" d="M139.24,206l.76.92Z"/><path class="cls-18" d="M142.75,262.12l1.13.33-.93,0Z"/><path class="cls-28" d="M207.74,224l-.75-1Z"/><path class="cls-20" d="M306,223l-.75.92Z"/></g></g></svg>