<svg xmlns="http://www.w3.org/2000/svg" viewBox="0 0 1170 667"><defs><style>.cls-1{fill:#f65f0e;}.cls-2{fill:#f6900f;}.cls-3{fill:#f6620e;}.cls-4{fill:#f63811;}.cls-5{fill:#f6360f;}.cls-6{fill:#f66110;}.cls-7{fill:#f6520e;}.cls-8{fill:#f64b0e;}.cls-9{fill:#f66e0f;}.cls-10{fill:#f65b0e;}.cls-11{fill:#f6720f;}.cls-12{fill:#f6660f;}.cls-13{fill:#f64f0e;}.cls-14{fill:#f6560e;}.cls-15{fill:#f67f0f;}.cls-16{fill:#f6890f;}.cls-17{fill:#f66a0f;}.cls-18{fill:#f6680f;}.cls-19{fill:#f6760f;}.cls-20{fill:#f67a0f;}.cls-21{fill:#f6850f;}.cls-22{fill:#f6810f;}.cls-23{fill:#f65310;}.cls-24{fill:#f64111;}.cls-25{fill:#f6580f;}.cls-26{fill:#f64315;}.cls-27{fill:#f66c12;}.cls-28{fill:#f65010;}</style></defs><title>soundcloud</title><g id="Layer_2" data-name="Layer 2"><g id="Layer_2-2" data-name="Layer 2"><path class="cls-1" d="M611.88,382V353h388c17.77,0,35.53,0,53.3,0,3.12,0,6.26.94,9.36.81,10.58-.44,21.16-1.61,31.73-1.67,16.87-.08,33.73.46,50.59.84,8.4.2,16.79.65,25.18,1v25l-1.34,2.2c-8,.93-15.64-2.26-23.91-.53-7.34,1.54-15.27.37-22.94.32-9.06-.07-18.13-.34-27.19-.28-4.36,0-8.72.86-13.08.88-5.72,0-11.44-.64-17.15-.54-12.54.23-25.05-1.35-37.63-.17-6.78.64-13.67.16-20.5.11-9.4-.06-18.79-.31-28.19-.25-4.53,0-9.05.83-13.58.85-5.72,0-11.44-.66-17.15-.53-12.55.28-25.05-1.39-37.63-.18-6.78.65-13.67.16-20.5.11-9.4-.07-18.79-.31-28.19-.25-4.53,0-9,.83-13.58.84-6.39,0-12.78-.71-19.15-.51-11.72.38-23.36-1.72-35.14-.24-7.39.92-15,.21-22.49.16-8.9-.06-17.8-.32-26.69-.26-4.53,0-9.05.82-13.58.84-6,0-12.12-.72-18.15-.49-12,.45-24-1.73-36.14-.25a84,84,0,0,1-22.46-.06c-8.17-1.23-16.08,1.71-24.39-.28C623.89,379.21,617.7,381.38,611.88,382Z"/><path class="cls-2" d="M737,0c6.48,1,13,2,19.44,3Q829,14.49,884.38,62.74a7,7,0,0,1,.91,1.16c-4.41.05-8.83,0-13.24.15-10,.28-20,.79-30.06.88-5.28,0-10.57-.88-15.84-.83-12.78.13-25.55.77-38.32.83-8.11,0-16.23-.86-24.34-.83-10.94,0-21.87.76-32.81.83-7.11,0-14.23-.89-21.34-.84-18.1.14-36.2.64-54.3.86-2.94,0-5.9-.91-8.85-.86-11.44.18-22.87.59-34.31.91,0-11-.16-22-.08-32.93,0-7.21,4.53-11.57,10.74-13.49,16.64-5.15,33.39-10,50.23-14.44,6.71-1.76,13.8-2,20.71-3.07A10.78,10.78,0,0,0,696,0Z"/><path class="cls-3" d="M1170,354c-8.39-.33-16.78-.78-25.18-1-16.86-.38-33.72-.92-50.59-.84-10.57.06-21.15,1.23-31.73,1.67-3.1.13-6.24-.79-9.36-.81-17.77-.08-35.53,0-53.3,0h-388V336c1.85-.55,3.71-1.58,5.56-1.56,8.77.07,17.54.55,26.31.64,6.84.08,13.78.46,20.5-.5,6.12-.87,12.24,2.88,18.17-.5.11-.06.32.07.48.07,7.81.29,15.61.66,23.41.83,2.78.06,5.61-.81,8.32-.5,4.46.5,8.84,1.68,13.27,2.44a4.67,4.67,0,0,0,2.87-.48c5.56-3.19,11.68-1.81,17.53-2.07,5.61-.25,11.26.68,16.89.69,8.58,0,17.22-2.45,25.73.73a5,5,0,0,0,2,.06c3.83-.27,7.67-.77,11.5-.79,3,0,5.92.93,8.86.83,10.45-.35,20.93-2.84,31.28,1a4.59,4.59,0,0,0,3.33-.49c5.6-3,11.68-1.77,17.54-2,5.46-.2,11,.8,16.42.75,8.75-.08,17.53-2.54,26.21.66a5,5,0,0,0,2,0c3.67-.27,7.34-.77,11-.77,3,0,5.92.95,8.86.85,10.61-.34,21.27-2.88,31.78,1a4.75,4.75,0,0,0,3.32-.57c5.62-2.88,11.68-1.77,17.55-1.89,5.3-.11,10.63,1,15.93.82,8.92-.23,17.85-2.58,26.7.59a5,5,0,0,0,2,0c3.5-.26,7-.76,10.5-.75,3,0,5.92.95,8.86.86,10.78-.32,21.61-2.92,32.28,1a3.85,3.85,0,0,0,2.88-.38c5.53-3.24,11.67-2,17.51-2.19,5.29-.21,10.87,1.91,15.89.88,11.64-2.37,23.23.88,34.88-.87,5.42-.81,11.33,1.67,17,2.66q1.53,6.5,3.07,13Z"/><path class="cls-4" d="M259.88,596c3.61,17.34,2.19,34.09-6.54,49.71-6.07,10.86-15.5,17.53-27.67,20.28a20.57,20.57,0,0,0-2.67,1H207c-.24-.22-.45-.59-.71-.63-20.14-3.18-34.56-19.51-37.07-44.17-.88-8.61.54-17.46.91-26.2l21.79,1c-1.83,10.77-2.42,21.53,1.13,32.08,2.69,8,7.52,14.07,16.27,16,13.9,3.07,24.83-4.12,28.53-18.85,2.44-9.71,1.91-19.47.23-29.23Z"/><path class="cls-4" d="M99,667a42.56,42.56,0,0,0-4.84-2c-11.29-3.11-20.47-9.28-25.65-17.63,2.34-2.12,4.74-4.34,7.17-6.52s5-4.4,7.74-6.83l3.67,3.18c10.18,8.8,22,10.47,34.63,7.51,4.81-1.12,7.74-4.4,8.14-9.53s-2.06-8.51-6.54-10.06c-6.73-2.34-13.73-3.91-20.48-6.19-6.27-2.11-12.7-4.12-18.45-7.28C77.33,607.83,73.32,601.36,73,593c5.9,0,11.82.12,17.72-.08,1.58-.06,3.12-1.13,4.68-1.73,4.54,2.25,8.91,5,13.67,6.63,7.36,2.55,15.19,3.82,22.46,6.57,15.19,5.77,21.29,15.66,20.45,31.62-.75,14.26-9.13,24.48-23.58,28.74-2.47.73-4.93,1.5-7.4,2.25Z"/><path class="cls-5" d="M316,667a7.65,7.65,0,0,0-1.91-1.27c-20.33-5.73-29-20.6-30.89-40.27-.72-7.42-.11-15-.11-22.46L304,604c.33,7.31.13,14.69,1.11,21.91,2.12,15.54,15.26,24,28.77,18.81,9.8-3.78,13.47-12.09,14.06-21.74.62-10,.4-20,.54-30l21.16-1c-.46,13.72.3,27.62-1.7,41.11-2.63,17.85-13.48,29.46-31.83,33-.4.08-.73.55-1.09.84Z"/><path class="cls-5" d="M945,667a7.71,7.71,0,0,0-1.92-1.23c-19.75-5.47-28.57-19.74-30.89-38.9-.68-5.55-.17-11.24-.2-16.87a18,18,0,0,1,12.85-2.94c2.63.36,5.36,0,8-.06.4,6.8.12,13.73,1.32,20.38,2.68,14.88,15.91,22.55,29,17.14,9.92-4.11,13.09-12.78,13.74-22.54.51-7.63.29-15.3.4-23l21.07-1c-.46,11.93.28,24.07-1.68,35.75-2.9,17.23-13.42,28.58-31.13,32.28A5.8,5.8,0,0,0,964,667Z"/><path class="cls-5" d="M890,607c1.66,19.06-3.28,36.15-17.09,49.54-4.62,4.48-11.79,6.31-17.81,9.32A30.55,30.55,0,0,1,852,667H833c-.57-.49-1.07-1.25-1.74-1.45-20.65-6-29.8-21.41-33-41.24-1-6-.43-12.18-.58-18.27l21.58,0c0,2.32-.11,4.65,0,7,.45,8.36,1.44,16.59,6.48,23.71,9.42,13.32,30.32,11.72,37.77-2.74,4.57-8.9,4.9-18.38,4.76-28,4.22.28,8.44.61,12.66.82C884,607,887,607,890,607Z"/><path class="cls-6" d="M0,369c1.34-8.65,2.77-17.28,4-25.94,1.52-10.87,2.81-21.77,4.29-32.65.41-3,1-6.37,5-6.29s4.43,3.23,4.92,6.35c3.17,20.38,7,40.67,9.35,61.14.84,7.18-1.53,14.78-2.66,22.16-2.15,14-4.5,27.91-6.68,41.87-.5,3.16-1.16,6.25-5.06,6.21s-4.49-3.41-4.9-6.41C5.84,418,3.54,400.49,1.15,383A13.84,13.84,0,0,0,0,380Z"/><path class="cls-5" d="M639.62,604.11c-.85,8.69-.43,17.24,2.92,25.45,3.74,9.17,10.15,15.15,20.29,16.12,9.59.91,16.61-3.46,21.57-11.49.34-.55.77-1.05,1.49-2l17.8,10.55C698.44,654,690.38,661.4,678.79,665c-1.64.51-3.19,1.31-4.79,2H655a15.06,15.06,0,0,0-2.54-1.2c-23.05-6.06-32.1-25-34.41-42.51-.84-6.32-.13-12.85-.13-19.29Z"/><path class="cls-7" d="M611.88,454q0-13,0-26c1.9-.38,4.28-.17,5.59-1.25,2.61-2.15,4.52-1.85,7.11-.13,1.33.88,3.4.95,5.1.85,4.2-.24,8.38-.83,12.58-1.19,1.1-.09,2.24.3,3.35.27,6.69-.17,13.39-4.54,20.08.12a3.79,3.79,0,0,0,1.94.23c5.74,0,11.52-.3,17.22.2,5.39.46,11.07-4.42,16.18.85.16.17.68.13,1,0,4.92-1.78,9.61-4.16,14.92-.29,1.53,1.11,4.72-.32,7.11-.11,4.27.37,8.47,1.5,12.26-1.93.73-.66,3,.3,4.48.58,2,.38,4,1.22,6,1.16,2.38-.08,4.72-1.15,7.12-1.34,6.21-.48,12.46-.61,18.67-1.09,3.42-.26,6.83-1.45,9.8,1.52.52.53,1.88.27,2.85.29,5.58.09,11.22-.31,16.74.36,5.23.63,10.73-4.66,15.71.76.31.34,1.38.3,1.93.06,4.61-2,8.49-2.52,14-.43,8.94,3.42,18.88-4,28.42.39.37.17.95-.18,1.45-.23,4.5-.41,9-.81,13.5-1.18,1-.08,1.91,0,2.87,0,6.53.12,13.06-4.55,19.63,0,.68.48,1.92.26,2.88.21,3.64-.21,7.26-.52,10.89-.72,5.19-.3,10.39-.59,15.58-.76a4.49,4.49,0,0,1,3.09.85c2.57,2.83,5,2.05,8.06.72a16.46,16.46,0,0,1,7-1.07,17,17,0,0,1,6,1.58c8.51,3.69,17.25-4.76,25.71.54.42.27,1.28-.14,1.92-.25,3-.54,6-1.29,9.09-1.59,6.85-.66,13.72-1.1,20.59-1.62.8-.06,2-.39,2.37,0,3.72,3.68,8.11,1.43,12.24,1.6,5,.2,9.91.89,14.87.86,3.94,0,8.1-3.93,11.7.95.26.34,1.35.32,1.93.12,4.77-1.67,8.92-3.74,14.51-.42,3.38,2,8.91.55,13.46.39,1.55-.05,3-1.06,4.61-1.27a27.94,27.94,0,0,1,6.13-.2c1.88.15,3.75,1.14,5.59,1,4-.22,8.05-1,12.09-1.35,1.1-.1,2.28.73,3.37.61,7-.83,14-4.53,21,.06.36.24,1,.08,1.48.09l18.73.18c-4.59,12.57-12.15,23.23-21.27,32.88l.5-6Z"/><path class="cls-8" d="M1109,481c-22.82,16.75-48.33,26.46-76.66,26.92-38.63.62-77.27.23-115.91.22q-142.41,0-284.81-.13c-13.8,0-20-6.16-20-20,0-3.32.17-6.64.27-10,10.07,0,20.14-.12,30.21,0,6.57.1,13.12.91,19.68.86,11.37-.08,22.74-.84,34.11-.79,6.17,0,12.35,1.79,18.42-.92.75-.34,1.91.31,2.89.36,8.59.44,17.18,1,25.78,1.22,6.94.14,13.88-.33,20.82-.33,5.07,0,10.15.52,15.22.46,4.29,0,8.57-.78,12.87-.86,7.57-.12,15.16.11,22.74,0,5.15-.06,10.3-.41,15.45-.58,1.45,0,2.9.09,4.35.15,8.6.38,17.19,1,25.79,1.07,9.56.05,19.13-.62,28.69-.62,9,0,18.06.68,27.09.64,12.88,0,25.75-.57,38.63-.7q18.35-.19,36.71,0c6.9.09,13.79.91,20.68.88,9.37,0,18.74-.78,28.11-.88,14.74-.16,29.49,0,44.23,0,6.91,0,13.82,0,20.73,0C1107.21,478,1109.24,477.93,1109,481Z"/><path class="cls-9" d="M1113.35,250.25A118.59,118.59,0,0,1,1140.8,278c-6.12-.33-12.23-.9-18.35-.92-5.45,0-10.9.77-16.36.87-8.57.16-17.15.31-25.71,0-6.42-.26-12.62-1.42-19.27-.2-6.92,1.28-14.27.42-21.43.26-7.87-.18-15.74-.86-23.61-.89-6.28,0-12.57.79-18.86.88-11.4.15-22.82.42-34.2-.11-6.44-.29-12.68-1.21-19.26-.08-6.31,1.08-13,.36-19.44.2-8.37-.2-16.74-.85-25.11-.89-6.12,0-12.24.79-18.36.88-10.74.15-21.48,0-32.21.05-7.24,0-14.25-2-21.78-.31-6.33,1.46-13.26.43-19.91.27-8.21-.2-16.41-.86-24.62-.89-6.61,0-13.23.85-19.85.85-6.78,0-13.86-2-20.29-.61-10.83,2.3-21.54-2.82-32.14.66a4.64,4.64,0,0,1-1.49,0c-11.79-.27-23.57-.73-35.35-.75-9.7,0-19.4.6-29.1.73-10.74.14-21.48,0-32.22,0V252c5.66,0,11.33.1,17,0,12.86-.27,25.72-.82,38.58-.9,8,0,15.93.87,23.89.85,9.3,0,18.61-.83,27.92-.83s18.77.86,28.16.83c12.36,0,24.72-.78,37.09-.85,8.12,0,16.25.79,24.38.88q22.79.22,45.59,0c15.69-.16,31.38-.77,47.08-.88,7.79-.05,15.58.8,23.38.88q23.29.22,46.59,0c15.69-.16,31.39-.78,47.08-.88,8.12-.05,16.26.89,24.38.85,11.58-.05,23.16-.83,34.73-.85,10.12,0,20.23.68,30.35.83C1109.82,251.94,1111.59,250.84,1113.35,250.25Z"/><path class="cls-10" d="M611.88,382c5.82-.62,12-2.79,17.37-1.51,8.31,2,16.22-.95,24.39.28a84,84,0,0,0,22.46.06c12.11-1.48,24.09.7,36.14.25,6-.23,12.1.51,18.15.49,4.53,0,9.05-.8,13.58-.84,8.89-.06,17.79.2,26.69.26,7.5.05,15.1.76,22.49-.16,11.78-1.48,23.42.62,35.14.24,6.37-.2,12.76.53,19.15.51,4.53,0,9-.81,13.58-.84,9.4-.06,18.79.18,28.19.25,6.83.05,13.72.54,20.5-.11,12.58-1.21,25.08.46,37.63.18,5.71-.13,11.43.56,17.15.53,4.53,0,9-.82,13.58-.85,9.4-.06,18.79.19,28.19.25,6.83.05,13.72.53,20.5-.11,12.58-1.18,25.09.4,37.63.17,5.71-.1,11.43.57,17.15.54,4.36,0,8.72-.85,13.08-.88,9.06-.06,18.13.21,27.19.28,7.67.05,15.6,1.22,22.94-.32,8.27-1.73,16,1.46,23.91.53q-2.36,11.4-4.73,22.8H611.88Z"/><path class="cls-11" d="M1113.35,250.25c-1.76.59-3.53,1.69-5.28,1.66-10.12-.15-20.23-.85-30.35-.83-11.57,0-23.15.8-34.73.85-8.12,0-16.26-.9-24.38-.85-15.69.1-31.39.72-47.08.88q-23.29.25-46.59,0c-7.8-.08-15.59-.93-23.38-.88-15.7.11-31.39.72-47.08.88q-22.8.25-45.59,0c-8.13-.09-16.26-.92-24.38-.88-12.37.07-24.73.81-37.09.85-9.39,0-18.78-.83-28.16-.83s-18.62.81-27.92.83c-8,0-15.93-.89-23.89-.85-12.86.08-25.72.63-38.58.9-5.66.12-11.33,0-17,0V226c4.29-.33,8.58-1,12.86-.93,12.11.15,24.22.91,36.32.82,8.37,0,16.74-1.11,25.11-1.7a6.7,6.7,0,0,1,1.46.18c4,.54,8,1.57,12,1.54,12.78-.09,25.56-.65,38.34-.86,3.78-.06,7.56.65,11.34.66,5.37,0,10.74-.42,16.1-.41,7,0,13.91.54,20.85.38,6-.14,12.08-1.33,18.12-1.29,5.83,0,11.65,1.53,17.47,1.51,16-.05,32.06-.69,48.08-.83,6.53,0,13.07.57,19.6.94,12.08.66,24.11-1,36.25-.35,14.55.82,29.18.18,43.78.17.27,1.61.55,3.22.9,5.28,1.56-.49,2.94-.85,4.27-1.35,33.12-12.33,66.4-12.82,99.68-.95C1088.5,233.83,1101.8,240.51,1113.35,250.25Z"/><path class="cls-12" d="M1166.93,337c-5.69-1-11.6-3.47-17-2.66-11.65,1.75-23.24-1.5-34.88.87-5,1-10.6-1.09-15.89-.88-5.84.23-12-1.05-17.51,2.19a3.85,3.85,0,0,1-2.88.38c-10.67-3.9-21.5-1.3-32.28-1-2.94.09-5.9-.86-8.86-.86-3.5,0-7,.49-10.5.75a5,5,0,0,1-2,0c-8.85-3.17-17.78-.82-26.7-.59-5.3.14-10.63-.93-15.93-.82-5.87.12-11.93-1-17.55,1.89a4.75,4.75,0,0,1-3.32.57c-10.51-3.85-21.17-1.31-31.78-1-2.94.1-5.91-.85-8.86-.85-3.66,0-7.33.5-11,.77a5,5,0,0,1-2,0c-8.68-3.2-17.46-.74-26.21-.66-5.47.05-11-.95-16.42-.75-5.86.2-11.94-1.06-17.54,2a4.59,4.59,0,0,1-3.33.49c-10.35-3.81-20.83-1.32-31.28-1-2.94.1-5.91-.84-8.86-.83-3.83,0-7.67.52-11.5.79a5,5,0,0,1-2-.06c-8.51-3.18-17.15-.7-25.73-.73-5.63,0-11.28-.94-16.89-.69-5.85.26-12-1.12-17.53,2.07a4.67,4.67,0,0,1-2.87.48c-4.43-.76-8.81-1.94-13.27-2.44-2.71-.31-5.54.56-8.32.5-7.8-.17-15.6-.54-23.41-.83-.16,0-.37-.13-.48-.07-5.93,3.38-12-.37-18.17.5-6.72,1-13.66.58-20.5.5-8.77-.09-17.54-.57-26.31-.64-1.85,0-3.71,1-5.56,1.56q0-12,0-24h547.88Q1163.36,324.51,1166.93,337Z"/><path class="cls-13" d="M1109,481c.24-3-1.79-3-3.92-3-6.91,0-13.82,0-20.73,0-14.74,0-29.49-.12-44.23,0-9.37.1-18.74.84-28.11.88-6.89,0-13.78-.79-20.68-.88q-18.36-.23-36.71,0c-12.88.13-25.75.66-38.63.7-9,0-18.06-.64-27.09-.64-9.56,0-19.13.67-28.69.62-8.6,0-17.19-.69-25.79-1.07-1.45-.06-2.9-.19-4.35-.15-5.15.17-10.3.52-15.45.58-7.58.08-15.17-.15-22.74,0-4.3.08-8.58.81-12.87.86-5.07.06-10.15-.46-15.22-.46-6.94,0-13.88.47-20.82.33-8.6-.18-17.19-.78-25.78-1.22-1-.05-2.14-.7-2.89-.36-6.07,2.71-12.25.95-18.42.92-11.37-.05-22.74.71-34.11.79-6.56.05-13.11-.76-19.68-.86-10.07-.16-20.14,0-30.21,0V454h521.61l-.5,6Z"/><path class="cls-14" d="M611.88,404h552.05q-4.83,11.55-9.67,23.09l-18.73-.18c-.5,0-1.12.15-1.48-.09-7-4.59-14-.89-21-.06-1.09.12-2.27-.71-3.37-.61-4,.37-8,1.13-12.09,1.35-1.84.1-3.71-.89-5.59-1a27.94,27.94,0,0,0-6.13.2c-1.56.21-3.06,1.22-4.61,1.27-4.55.16-10.08,1.62-13.46-.39-5.59-3.32-9.74-1.25-14.51.42-.58.2-1.67.22-1.93-.12-3.6-4.88-7.76-1-11.7-.95-5,0-9.91-.66-14.87-.86-4.13-.17-8.52,2.08-12.24-1.6-.4-.4-1.57-.07-2.37,0-6.87.52-13.74,1-20.59,1.62-3.05.3-6.06,1-9.09,1.59-.64.11-1.5.52-1.92.25-8.46-5.3-17.2,3.15-25.71-.54a17,17,0,0,0-6-1.58,16.46,16.46,0,0,0-7,1.07c-3,1.33-5.49,2.11-8.06-.72a4.49,4.49,0,0,0-3.09-.85c-5.19.17-10.39.46-15.58.76-3.63.2-7.25.51-10.89.72-1,.05-2.2.27-2.88-.21-6.57-4.59-13.1.08-19.63,0-1,0-1.92-.07-2.87,0-4.51.37-9,.77-13.5,1.18-.5.05-1.08.4-1.45.23-9.54-4.4-19.48,3-28.42-.39-5.47-2.09-9.35-1.56-14,.43-.55.24-1.62.28-1.93-.06-5-5.42-10.48-.13-15.71-.76-5.52-.67-11.16-.27-16.74-.36-1,0-2.33.24-2.85-.29-3-3-6.38-1.78-9.8-1.52-6.21.48-12.46.61-18.67,1.09-2.4.19-4.74,1.26-7.12,1.34-2,.06-4-.78-6-1.16-1.52-.28-3.75-1.24-4.48-.58-3.79,3.43-8,2.3-12.26,1.93-2.39-.21-5.58,1.22-7.11.11-5.31-3.87-10-1.49-14.92.29-.29.1-.81.14-1,0-5.11-5.27-10.79-.39-16.18-.85-5.7-.5-11.48-.16-17.22-.2a3.79,3.79,0,0,1-1.94-.23c-6.69-4.66-13.39-.29-20.08-.12-1.11,0-2.25-.36-3.35-.27-4.2.36-8.38,1-12.58,1.19-1.7.1-3.77,0-5.1-.85-2.59-1.72-4.5-2-7.11.13-1.31,1.08-3.69.87-5.59,1.25Q611.89,416,611.88,404Z"/><path class="cls-15" d="M946.91,146l12,31h-347q0-16,0-32c.83,0,1.67,0,2.49-.06,6.92-.64,13.83-1.35,20.76-1.86,1-.08,2.09,1.14,3.12,1.11,5.74-.14,12.24,6.48,16.84-2.22,5.62,4.69,11.07,7.93,17.17,1.9,6.4,6.64,12.28,4,17.63-.34l1.55,4.32c1.29-.8,2.55-1.67,3.89-2.38,1.92-1,4-2.72,5.82-2.55,1.16.11,2,3.14,3.05,4.86.16.28.36.54.55.83l13.87-3.26c.69-.46,2.45-2.45,3.45-2.13,2.13.71,3.87,2.61,6,4.22,6.93-7.63,16.79-2.63,25.5-4.21.46-.09,1.09,1,1.63,1,5.74-.18,12.24,6.48,16.84-2.22,5.62,4.65,11.07,8,17.17,1.9,6.4,6.62,12.28,4,17.65-.36.58,1.64,1.05,3,1.52,4.34,1.3-.8,2.56-1.66,3.9-2.37,1.92-1,4-2.73,5.82-2.56,1.16.1,2,3.13,3.05,4.85.17.28.36.54,1,1.56,1.83-1,3.6-2.52,5.61-3,2.35-.52,4.9-.12,6.46-.12,2-1.31,3.73-3.33,4.76-3,2.13.67,3.87,2.59,4.95,3.4,4.38-1.19,8.56-2.81,12.87-3.35,4.5-.58,9.13-.16,13.7-.07.56,0,1.1,1,1.65,1,5.75-.08,12.22,6.41,16.85-2.21,5.61,4.6,11,8,17.16,1.89,6.4,6.6,12.28,4.07,17.68-.39.56,1.66,1,3,1.49,4.37,1.3-.79,2.56-1.65,3.9-2.36,1.92-1,4-2.74,5.82-2.58,1.15.1,2,3.13,3.06,4.84.16.28.35.55.89,1.39Zm-93.15,0c-.14.59-.28,1.18-.41,1.77l3.9.86a16.78,16.78,0,0,0,.36-1.7C856.34,146.52,855.05,146.25,853.76,146Zm-117,0-.36,1.78,3.87.84a17.06,17.06,0,0,0,.34-1.71C739.34,146.52,738,146.26,736.75,146Zm-117.06,0c-.09.5-.19,1-.28,1.5l4.12,1.1.4-2Z"/><path class="cls-16" d="M611.88,65c11.44-.32,22.87-.73,34.31-.91,2.95,0,5.91.9,8.85.86,18.1-.22,36.2-.72,54.3-.86,7.11,0,14.23.88,21.34.84,10.94-.07,21.87-.79,32.81-.83,8.11,0,16.23.87,24.34.83,12.77-.06,25.54-.7,38.32-.83,5.27,0,10.56.88,15.84.83,10-.09,20-.6,30.06-.88,4.41-.12,8.83-.1,13.24-.15l32,34.92c-.93.37-1.87,1.08-2.78,1.05-9.06-.33-17.95,3-27.16.94-3-.66-6.39.92-9.49.53-6.32-.8-12.54-2.35-18.81.4-1.06.47-2.59,0-3.89-.2-3.57-.47-7.13-1.45-10.69-1.44-11.52,0-23,.57-34.54.68-12.47.11-24.94-.07-37.41-.08-5.14,0-10.28,0-15.41.18-4.79.14-9.58.49-14.37.68a32.68,32.68,0,0,1-4.85-.15c-3.42-.4-6.82-1.35-10.23-1.32-11.51.07-23,.59-34.54.71-12.63.13-25.26,0-37.89,0-4.81,0-9.62,0-14.43.18-5.12.15-10.23.49-15.35.69a25.77,25.77,0,0,1-4.39-.18c-3.08-.43-6.14-1-9.2-1.49Q611.88,82.5,611.88,65Z"/><path class="cls-17" d="M611.88,278c10.74,0,21.48.11,32.22,0,9.7-.13,19.4-.75,29.1-.73,11.78,0,23.56.48,35.35.75a4.64,4.64,0,0,0,1.49,0c10.6-3.48,21.31,1.64,32.14-.66,6.43-1.37,13.51.6,20.29.61,6.62,0,13.24-.87,19.85-.85,8.21,0,16.41.69,24.62.89,6.65.16,13.58,1.19,19.91-.27,7.53-1.73,14.54.35,21.78.31,10.73-.05,21.47.1,32.21-.05,6.12-.09,12.24-.92,18.36-.88,8.37,0,16.74.69,25.11.89,6.49.16,13.13.88,19.44-.2,6.58-1.13,12.82-.21,19.26.08,11.38.53,22.8.26,34.2.11,6.29-.09,12.58-.91,18.86-.88,7.87,0,15.74.71,23.61.89,7.16.16,14.51,1,21.43-.26,6.65-1.22,12.85-.06,19.27.2,8.56.36,17.14.21,25.71,0,5.46-.1,10.91-.88,16.36-.87,6.12,0,12.23.59,18.35.92l12.06,19c-11.81-.2-23.72.38-35.4-1-4.94-.58-9.13.21-13.71.78-2.67.33-5.53-1.34-8.35-1.76a36.32,36.32,0,0,0-6,0c-3.54.05-7.08.21-10.61.11-5.8-.16-11.7-1.29-17.34-.49-4,.57-7.73,4-11.73-.1-.3-.32-1.23-.08-1.86,0-4,.53-8,1.44-12.06,1.57-11.13.34-22.28.74-33.4.34-5.08-.18-9.87-2.06-15.19.18-2.28,1-5.78-1.12-8.77-1.62a38.35,38.35,0,0,0-5.58-.31c-4-.05-7.9-.05-11.84-.07-5.66,0-11.42-.67-16.95.17-3.92.59-7.51,3.83-11.29-.24-.3-.32-1.23-.12-1.86,0-4,.53-8,1.45-12.06,1.57-11.13.36-22.28.72-33.4.4-5.07-.15-9.85-2.25-15.19.13-2.24,1-5.79-1.07-8.78-1.57a35.84,35.84,0,0,0-5.58-.38c-3.95,0-7.89,0-11.84,0-5.66,0-11.42-.72-17,.1-3.9.58-7.47,3.9-11.28-.17-.3-.33-1.24-.17-1.86-.09-4,.52-8,1.47-12.06,1.58-11.28.31-22.58.54-33.87.29-4.91-.11-9.55-2.16-14.73.24-2.2,1-5.79-1.07-8.78-1.51a34.08,34.08,0,0,0-6-.17c-3.4.12-6.8.67-10.18.53-5.78-.24-11.67-1.8-17.28-1.05-4.35.58-8.32,4.37-12.65,0-.22-.22-.93,0-1.41.06-4,.55-8,1.49-12,1.6-11.29.33-22.59.42-33.88.39-3.29,0-6.75-1.58-9.83-.95-5.07,1-9.81,3.17-14.54-.93-.8-.69-2.56-.53-3.82-.37-3.69.48-7.36,1.16-11,1.76Q611.89,287,611.88,278Z"/><path class="cls-18" d="M611.89,296c3.68-.6,7.35-1.28,11-1.76,1.26-.16,3-.32,3.82.37,4.73,4.1,9.47,2,14.54.93,3.08-.63,6.54.94,9.83.95,11.29,0,22.59-.06,33.88-.39,4-.11,8-1.05,12-1.6.48-.06,1.19-.28,1.41-.06,4.33,4.38,8.3.59,12.65,0,5.61-.75,11.5.81,17.28,1.05,3.38.14,6.78-.41,10.18-.53a34.08,34.08,0,0,1,6,.17c3,.44,6.58,2.54,8.78,1.51,5.18-2.4,9.82-.35,14.73-.24,11.29.25,22.59,0,33.87-.29,4-.11,8-1.06,12.06-1.58.62-.08,1.56-.24,1.86.09,3.81,4.07,7.38.75,11.28.17,5.53-.82,11.29-.12,17-.1,3.95,0,7.89,0,11.84,0a35.84,35.84,0,0,1,5.58.38c3,.5,6.54,2.57,8.78,1.57,5.34-2.38,10.12-.28,15.19-.13,11.12.32,22.27,0,33.4-.4,4-.12,8-1,12.06-1.57.63-.08,1.56-.28,1.86,0,3.78,4.07,7.37.83,11.29.24,5.53-.84,11.29-.19,16.95-.17,3.94,0,7.89,0,11.84.07a38.35,38.35,0,0,1,5.58.31c3,.5,6.49,2.58,8.77,1.62,5.32-2.24,10.11-.36,15.19-.18,11.12.4,22.27,0,33.4-.34,4-.13,8-1,12.06-1.57.63-.08,1.56-.32,1.86,0,4,4.1,7.68.67,11.73.1,5.64-.8,11.54.33,17.34.49,3.53.1,7.07-.06,10.61-.11a36.32,36.32,0,0,1,6,0c2.82.42,5.68,2.09,8.35,1.76,4.58-.57,8.77-1.36,13.71-.78,11.68,1.36,23.59.78,35.4,1l6.91,15H611.89Z"/><path class="cls-19" d="M969.56,225.83c-14.6,0-29.23.65-43.78-.17-12.14-.68-24.17,1-36.25.35-6.53-.37-13.07-1-19.6-.94-16,.14-32,.78-48.08.83-5.82,0-11.64-1.48-17.47-1.51-6,0-12.07,1.15-18.12,1.29-6.94.16-13.9-.36-20.85-.38-5.36,0-10.73.43-16.1.41-3.78,0-7.56-.72-11.34-.66-12.78.21-25.56.77-38.34.86-4,0-8-1-12-1.54a6.7,6.7,0,0,0-1.46-.18c-8.37.59-16.74,1.65-25.11,1.7-12.1.09-24.21-.67-36.32-.82-4.28-.06-8.57.6-12.86.93V201c8.37,0,16.74.05,25.11,0,4.5,0,9-.62,13.47-.24,10.09.87,20.16,3.55,30.13-.66a5.26,5.26,0,0,1,2,0q13.92.45,27.84.89c10.6.33,21.2.67,31.8.89q9.6.21,19.21,0c3,0,6.07-.91,9.07-.74,8.93.48,17.9,3.06,26.68-1a6.15,6.15,0,0,1,2.47-.07c9.28.29,18.56.6,27.84.88,10.6.32,21.19.68,31.8.9q9.6.19,19.21,0c3,0,6-.74,9.08-.73,2.78,0,5.6,1,8.35.76,6.28-.47,12.43.2,18.93-1.26,6.18-1.38,13.44.11,20.33-.18,10.15-.41,20.36.94,30.55,1.53Q967.64,213.93,969.56,225.83Z"/><path class="cls-20" d="M965.73,202c-10.19-.59-20.4-1.94-30.55-1.53-6.89.29-14.15-1.2-20.33.18-6.5,1.46-12.65.79-18.93,1.26-2.75.21-5.57-.76-8.35-.76-3,0-6.05.68-9.08.73q-9.6.18-19.21,0c-10.61-.22-21.2-.58-31.8-.9-9.28-.28-18.56-.59-27.84-.88a6.15,6.15,0,0,0-2.47.07c-8.78,4-17.75,1.46-26.68,1-3-.17-6,.69-9.07.74q-9.6.18-19.21,0c-10.6-.22-21.2-.56-31.8-.89q-13.92-.42-27.84-.89a5.26,5.26,0,0,0-2,0c-10,4.21-20,1.53-30.13.66-4.45-.38-9,.21-13.47.24-8.37.05-16.74,0-25.11,0V177h347Z"/><path class="cls-21" d="M611.89,100c3.06.5,6.12,1.06,9.2,1.49a25.77,25.77,0,0,0,4.39.18c5.12-.2,10.23-.54,15.35-.69,4.81-.15,9.62-.18,14.43-.18,12.63,0,25.26.13,37.89,0,11.51-.12,23-.64,34.54-.71,3.41,0,6.81.92,10.23,1.32a32.68,32.68,0,0,0,4.85.15c4.79-.19,9.58-.54,14.37-.68,5.13-.15,10.27-.19,15.41-.18,12.47,0,24.94.19,37.41.08,11.51-.11,23-.64,34.54-.68,3.56,0,7.12,1,10.69,1.44,1.3.17,2.83.67,3.89.2,6.27-2.75,12.49-1.2,18.81-.4,3.1.39,6.52-1.19,9.49-.53,9.21,2.07,18.1-1.27,27.16-.94.91,0,1.85-.68,2.78-1.05l18.95,27.06c-5.53.37-11.06,1.08-16.58,1-10-.07-19.89-.74-29.83-.88-11.81-.17-23.62-.15-35.43,0-6.62.09-13.23.76-19.84.9-3,.06-5.91-.88-8.86-.83-7.69.14-15.38.85-23.07.81-9.95,0-19.89-.74-29.83-.88-12-.17-24,0-35.93,0-14,0-27.94,0-41.92,0-1.46,0-2.93.49-4.4.6a60.24,60.24,0,0,1-6.44.2c-5.37-.2-10.75-.78-16.11-.74-8.53.07-17.06.77-25.58.74-10.19,0-20.38-.53-30.57-.83Z"/><path class="cls-22" d="M611.88,126c10.19.3,20.38.81,30.57.83,8.52,0,17-.67,25.58-.74,5.36,0,10.74.54,16.11.74a60.24,60.24,0,0,0,6.44-.2c1.47-.11,2.94-.59,4.4-.6,14,0,27.95,0,41.92,0,12,0,24-.13,35.93,0,9.94.14,19.88.84,29.83.88,7.69,0,15.38-.67,23.07-.81,2.95,0,5.91.89,8.86.83,6.61-.14,13.22-.81,19.84-.9,11.81-.15,23.62-.17,35.43,0,9.94.14,19.88.81,29.83.88,5.52,0,11-.67,16.58-1L946.91,146l-7.82,3.14c-.54-.84-.73-1.11-.89-1.39-1-1.71-1.91-4.74-3.06-4.84-1.85-.16-3.9,1.56-5.82,2.58-1.34.71-2.6,1.57-3.9,2.36-.46-1.36-.93-2.71-1.49-4.37-5.4,4.46-11.28,7-17.68.39-6.11,6.1-11.55,2.71-17.16-1.89-4.63,8.62-11.1,2.13-16.85,2.21-.55,0-1.09-1-1.65-1-4.57-.09-9.2-.51-13.7.07-4.31.54-8.49,2.16-12.87,3.35-1.08-.81-2.82-2.73-4.95-3.4-1-.32-2.81,1.7-4.76,3-1.56,0-4.11-.4-6.46.12-2,.45-3.78,2-5.61,3-.68-1-.87-1.28-1-1.56-1-1.72-1.89-4.75-3.05-4.85-1.85-.17-3.9,1.54-5.82,2.56-1.34.71-2.6,1.57-3.9,2.37-.47-1.35-.94-2.7-1.52-4.34-5.37,4.4-11.25,7-17.65.36-6.1,6.06-11.55,2.75-17.17-1.9-4.6,8.7-11.1,2-16.84,2.22-.54,0-1.17-1.05-1.63-1-8.71,1.58-18.57-3.42-25.5,4.21-2.17-1.61-3.91-3.51-6-4.22-1-.32-2.76,1.67-3.45,2.13l-13.87,3.26c-.19-.29-.39-.55-.55-.83-1-1.72-1.89-4.75-3.05-4.86-1.84-.17-3.9,1.53-5.82,2.55-1.34.71-2.6,1.58-3.89,2.38l-1.55-4.32c-5.35,4.35-11.23,7-17.63.34-6.1,6-11.55,2.79-17.17-1.9-4.6,8.7-11.1,2.08-16.84,2.22-1,0-2.12-1.19-3.12-1.11-6.93.51-13.84,1.22-20.76,1.86-.82.07-1.66,0-2.49.06Q611.89,135.51,611.88,126Z"/><path class="cls-5" d="M1111.44,600c1.85,20.56.15,40.13-17.9,53.84a56.55,56.55,0,0,1-17.66,8.84c-16.37,4.92-33.26,1.76-50.46,2.75,0-2.68,0-4.64,0-6.6q.16-30.4.36-60.81l21,0v47.07c7.63-.62,14.46-.6,21.06-1.84,11.56-2.17,19.33-9.38,20.94-21.07,1.14-8.2,0-16.71,0-25.09,3.59.28,7.41,1.46,10.72.62A13.64,13.64,0,0,1,1111.44,600Z"/><path class="cls-6" d="M306.53,304c1.06,31.35,4.56,62.67,1.21,94.07-.14,1.32-.48,2.61-.72,3.91H273.93c-.62-13.91-1.84-27.82-1.72-41.73.17-18.75,1.38-37.5,2.14-56.26Z"/><path class="cls-5" d="M597.06,600c5.54,30.13-11,61.51-45.51,64.72-13.17,1.23-26.56.2-40.2.2V598l21.16,1V645c7.28-.46,13.62-.39,19.81-1.35,9.87-1.53,17-7,20.86-16.46,3.4-8.43,3.35-17.14,2.13-25.94,1.73-1,3.43-2.65,5.22-2.76C586.07,598.11,591.87,596.25,597.06,600Z"/><path class="cls-20" d="M599.54,130q.87,42.48,1.75,85a56.58,56.58,0,0,1-6.82.89c-10.42.12-20.86.1-31.29.13L565,131a77.63,77.63,0,0,1,8.29-.95C582,129.93,590.78,130,599.54,130Z"/><path class="cls-16" d="M599.54,130c-8.76,0-17.52-.09-26.28,0A77.63,77.63,0,0,0,565,131l.9-58.33c.11-7.32.13-14.64.33-22,.27-10,6.84-16.88,15.93-16.86S597.75,40.77,598,50.75q.87,36.9,1.71,73.81C599.74,126.38,599.6,128.2,599.54,130Z"/><path class="cls-11" d="M563.18,216c10.43,0,20.87,0,31.29-.13a56.58,56.58,0,0,0,6.82-.89c.17,2,.44,3.94.48,5.91q.59,32.57,1.1,65.11h-41Z"/><path class="cls-5" d="M443.74,598l17.19,26.21,1,1.44L463,624l-.3-33.92h20.64q.17,27.9.34,55.8c0,6.28,0,12.57,0,19.45-6.24,0-12,.08-17.76-.08a4.05,4.05,0,0,1-2.73-1.73Q443,633.3,422.93,603c.66-1.61,1.32-3.22,2.07-5Z"/><path class="cls-23" d="M273.93,402H307q-2.52,34.59-5,69.19c-.65,8.8-1.29,17.6-2.06,26.38-.52,5.95-4.62,10-9.88,10s-9.49-4-9.9-9.94Q277.47,460,275,422.35C274.56,415.57,274.28,408.78,273.93,402Z"/><path class="cls-1" d="M228.05,417c-3.08-26.28-4.22-52.59-1.6-79h33.23c2.81,25.74,1.82,51.39-1.66,77-1.82,0-4-.68-5.39.12-5.66,3.38-11.65-8.3-17.29.62C234.45,417.14,230.56,416.63,228.05,417Z"/><path class="cls-6" d="M513.09,379c.12-17.87.21-35.73.38-53.6,0-3.8.35-7.6.53-11.4,4-1.75,7.67-5.14,12.6-2.12.79.49,2.46-.46,3.72-.76a14.14,14.14,0,0,1,3.18-.72c6.39.14,12.77.4,19.16.62q.54,33.5,1.1,67c-6,0-12.09.55-18-.15C528.05,376.94,520.52,376.11,513.09,379Z"/><path class="cls-12" d="M561.88,286h41q.63,31,1.24,62c-7.36.17-14.73.6-22.09.43-7.17-.16-14.32-.93-21.49-1.44Z"/><path class="cls-6" d="M403.94,310l1.8,69c-5.75-.22-11.51-.65-17.26-.63-7,0-14.06.4-21.09.63-.11-4.13-.44-8.26-.31-12.38.54-18.21,1.22-36.42,1.85-54.62.63-.17,1.48-.14,1.86-.54,3.67-4,7.83-5,12.92-2.81a4.57,4.57,0,0,0,4-1c2.45-2.41,4.83-1.65,6.5.28C397.07,311.26,400.21,311.54,403.94,310Z"/><path class="cls-24" d="M819.25,606.07l-21.58,0c1.12-20,7.84-37.12,27.25-45.84,21.6-9.7,55.6-4.13,63.89,34.94.82,3.86.83,7.9,1.21,11.86-3,0-6.06,0-9.09-.17-4.22-.21-8.44-.54-12.66-.82-.86-4-1.34-8.21-2.64-12.1-3.59-10.73-11.2-16.19-21.85-16.15S825.64,583.2,822.05,594C820.76,597.93,820.16,602.05,819.25,606.07Z"/><path class="cls-6" d="M134.27,404c-3.55-22.23-2.05-44.44.24-66.65q.65-6.18,1.33-12.36c3.68-.65,7.35-1.77,11-1.84,5.25-.12,10.51.54,15.76.87,1.44,18,3.39,35.92,4.11,53.93.34,8.65-1.66,17.39-2.61,26.1Z"/><path class="cls-10" d="M322.87,427c-.83-10.74-2-21.48-2.4-32.24-.49-13.59-.34-27.2-.46-40.8,3.76.33,7.51.89,11.27.95,8.51.15,17,.05,25.53.06-.43,16.22-.73,32.45-1.34,48.67-.27,7.45-1.13,14.88-1.73,22.32C343.42,425.55,333.11,425.25,322.87,427Z"/><path class="cls-9" d="M403.94,310c-3.73,1.54-6.87,1.26-9.76-2.09-1.67-1.93-4.05-2.69-6.5-.28a4.57,4.57,0,0,1-4,1c-5.09-2.16-9.25-1.16-12.92,2.81-.38.4-1.23.37-1.86.54l2.13-78h30.69Z"/><path class="cls-25" d="M513.09,379c7.43-2.89,15-2.06,22.65-1.15,5.93.7,12,.15,18,.15q-1.86,33.5-3.71,67c-2.93-.67-5.85-1.82-8.79-1.91-8.39-.26-16.78-.09-25.17-.09Z"/><path class="cls-1" d="M560.53,347c7.17.51,14.32,1.28,21.49,1.44,7.36.17,14.73-.26,22.09-.43q-.57,27.5-1.15,55H561.65Z"/><path class="cls-6" d="M415.54,379c-.11-4.79-.43-9.58-.29-14.36.44-15.55,1.05-31.1,1.59-46.65a31.09,31.09,0,0,1,5.35-.94c10.33-.1,20.66-.06,31-.06l1.47,62c-1.6-.15-3.21-.43-4.81-.42C438.41,378.69,427,378.85,415.54,379Z"/><path class="cls-15" d="M468.18,195c.58-23.92,1.07-47.85,1.79-71.78a13.68,13.68,0,0,1,27.2-1.47,15.78,15.78,0,0,1,.34,2.47q.83,35.39,1.62,70.77Z"/><path class="cls-11" d="M468.18,195h30.95a6.35,6.35,0,0,1,.39,1.43q.83,35.29,1.61,70.58l-34.72-1Z"/><path class="cls-26" d="M532.51,599l-21.16-1V558c8.58,0,17-.28,25.43.08,9,.37,18.09.37,26.76,2.26A41.93,41.93,0,0,1,597.06,600c-5.19-3.75-11-1.89-16.53-1.56-1.79.11-3.49,1.79-5.22,2.76-5.19-18.57-21.7-27-42.8-21.4Z"/><path class="cls-26" d="M1046.74,598l-21,0V557.1c17.12.94,34.18.49,50.75,3.13,20.64,3.29,32.89,18.7,34.9,39.8a13.64,13.64,0,0,0-12-2.33c-3.31.84-7.13-.34-10.72-.62-7.12-15.41-23.6-22.31-42-17.24Z"/><path class="cls-19" d="M418.41,251c.36-15.9.69-31.79,1.09-47.68.23-9.1.57-18.2.86-27.31L449,177c.65,17.72,1.34,35.43,1.92,53.15.23,6.94.21,13.89.31,20.83Z"/><path class="cls-18" d="M466.41,266l34.72,1q.89,31,1.78,62c-3.24.08-6.49,0-9.71.26-9.41.83-19.15-1.57-28.22,2.74Z"/><path class="cls-6" d="M208.93,318c.38,6.26.55,12.54,1.19,18.77.91,8.84,2.63,17.63,3.14,26.49.46,8.21-.22,16.49-.39,24.74-2.91.33-5.81.82-8.74,1-8.27.42-16.54.7-24.82,1-2.72-16,0-31.84,1.17-47.73.58-8.1,1.52-16.19,2.29-24.28Z"/><path class="cls-27" d="M418.41,251l32.84,0c.48,11.9,1.06,23.8,1.42,35.71.3,10.1.35,20.2.51,30.3-10.33,0-20.66,0-31,.06a31.09,31.09,0,0,0-5.35.94Q417.62,284.5,418.41,251Z"/><path class="cls-12" d="M356.81,355c-8.51,0-17,.09-25.53-.06-3.76-.06-7.51-.62-11.27-.95q1-32,2-64h32.61Z"/><path class="cls-27" d="M552.66,311c-6.39-.22-12.77-.48-19.16-.62a14.14,14.14,0,0,0-3.18.72c-1.26.3-2.93,1.25-3.72.76-4.93-3-8.59.37-12.6,2.12l1.11-62,36.11-1.08c.25,6.94.59,13.88.74,20.83C552.25,284.84,552.43,297.93,552.66,311Z"/><path class="cls-25" d="M415.54,379c11.43-.15,22.87-.31,34.3-.42,1.6,0,3.21.27,4.81.42q-1.95,31-3.88,62a27.49,27.49,0,0,0-5.31-.92c-8.79.21-17.57.6-26.36.92Q417.32,410,415.54,379Z"/><path class="cls-25" d="M367.39,379c7-.23,14.06-.61,21.09-.63,5.75,0,11.51.41,17.26.63q-2.19,31.5-4.39,63H371.21Q369.31,410.5,367.39,379Z"/><path class="cls-15" d="M548.76,130q.65,33.5,1.3,67c-3.2-.66-6.4-1.88-9.6-1.88-8.11,0-16.22.55-24.32.88q.57-33,1.15-66Z"/><path class="cls-23" d="M228.05,417c2.51-.37,6.4.14,7.29-1.26,5.64-8.92,11.63,2.76,17.29-.62,1.34-.8,3.57-.12,5.39-.12-.58,4.38-1.35,8.75-1.7,13.15-.27,3.45.23,7,0,10.41q-2.22,29.13-4.69,58.23c-.56,6.6-3.35,9.88-8.1,10.36-5.11.52-9.16-2.8-9.62-8.49-1.41-17.09-2.66-34.19-3.88-51.29C229.27,437.25,228.7,427.12,228.05,417Z"/><path class="cls-24" d="M259.88,596l-21.8,1c-.61-1.54-1.2-3.09-1.83-4.61-4-9.75-10.95-14.57-21-14.63-10.32-.08-17.39,4.73-21.5,14.63-.63,1.53-1.22,3.07-1.83,4.61l-21.79-1c3.07-23.47,21.44-39.74,44.87-39.75S256.8,572.53,259.88,596Z"/><path class="cls-23" d="M134.27,404l29.87.05c-1.5,17.31-3,34.62-4.52,51.92-1.14,12.59-2.39,25.17-3.61,37.75a37,37,0,0,1-.68,4.93c-.84,3.47-3,5.57-6.73,5.45-3.92-.13-6.14-2.51-6.57-6.24-.68-5.78-1.09-11.59-1.56-17.39Q137.35,442.24,134.27,404Z"/><path class="cls-9" d="M306.53,304H274.35q1.33-35.5,2.68-71l26.64,1Q305.1,269,306.53,304Z"/><path class="cls-6" d="M67.05,317c2,14.63,3.69,29.28,5.92,43.87a80.77,80.77,0,0,1-1,30.13c-5.06-.31-10.12-.74-15.19-.91-4.85-.17-9.71-.07-14.56-.09-3.82-15.73-.16-31.27,1.26-46.85.79-8.73,2-17.42,3-26.13Z"/><path class="cls-20" d="M401.75,234H371.06q1-35.5,2-71l22.63-2.43-.18-1.41,3.84,1.87c.44,10.25,1,20.5,1.3,30.75C401.07,205.85,401.38,219.93,401.75,234Z"/><path class="cls-25" d="M467.09,436l-2.94-56a37.11,37.11,0,0,1,6.31-.93c11.12.21,22.25.6,33.37.93q-1.57,28-3.14,56Z"/><path class="cls-28" d="M467.09,436h33.6c-1.09,19.48-2,39-3.36,58.43-.57,8.2-6.74,13.53-14.06,13.26-7.64-.27-13-6-13.42-14.47Q468.44,464.61,467.09,436Z"/><path class="cls-28" d="M322.87,427c10.24-1.79,20.55-1.49,30.87-1-1.66,23.56-3.22,47.12-5,70.66-.51,6.6-5.13,10.64-11.09,10.52a10.5,10.5,0,0,1-10.52-10C325.59,473.81,324.26,450.43,322.87,427Z"/><path class="cls-24" d="M639.62,604.11l-21.7-.11c1.4-28.84,25-54.94,60.5-45.92,11.82,3,20.06,10.57,25.62,22l-19.68,9.1c-3.86-6.42-8.93-10.62-16.36-11.34-13.14-1.27-22.7,5.44-26.72,19C640.57,599.21,640.17,601.68,639.62,604.11Z"/><path class="cls-10" d="M90,418c-2-21.28-6.18-42.47-2.42-64a69.15,69.15,0,0,1,7.81-1c7.7-.13,15.4,0,23.1,0,2.57,17.28,1.33,34.48-1,51.66-.56,4.1-1,8.22-1.58,12.32Z"/><path class="cls-16" d="M548.76,130H517.29c.28-18,.38-36,.93-54a14.8,14.8,0,0,1,29.57,0C548.36,94,548.46,112,548.76,130Z"/><path class="cls-6" d="M503.83,380c-11.12-.33-22.25-.72-33.37-.93a37.11,37.11,0,0,0-6.31.93l.83-48c9.07-4.31,18.81-1.91,28.22-2.74,3.22-.29,6.47-.18,9.71-.26Q503.38,354.5,503.83,380Z"/><path class="cls-19" d="M516.14,196c8.1-.33,16.21-.88,24.32-.88,3.2,0,6.4,1.22,9.6,1.88q.57,27,1.16,53.92L515.11,252Q515.62,224,516.14,196Z"/><path class="cls-22" d="M449,177l-28.66-1c.54-21,.95-41.92,1.69-62.87.23-6.35,5.61-11,11.86-11.33a12.43,12.43,0,0,1,13.17,9.85,15.71,15.71,0,0,1,.46,3Q448.31,145.81,449,177Z"/><path class="cls-9" d="M354.61,290H322l1.92-62c3.26-.33,6.52-.75,9.79-1,6.17-.4,12.36-.68,18.54-1,.42,9.08.92,18.16,1.25,27.24C353.94,265.52,354.25,277.77,354.61,290Z"/><path class="cls-13" d="M516.09,443c8.39,0,16.78-.17,25.17.09,2.94.09,5.86,1.24,8.79,1.91-.63,7.55-1.48,15.09-1.81,22.65-.37,8.44,0,16.92-.41,25.35-.58,11-10.72,17.75-20.3,13.75-5.52-2.31-9-6.64-9.28-12.55C517.33,477.14,516.78,460.07,516.09,443Z"/><path class="cls-5" d="M743.93,616v28h42.93v21.37h-63.8V617Z"/><path class="cls-18" d="M259.68,338H226.45q1.45-30.51,2.9-61l26.81-2.07c.46,6.44,1,12.87,1.36,19.32C258.3,308.84,259,323.43,259.68,338Z"/><path class="cls-28" d="M600.28,448c-.78,14.85-1.4,29.72-2.42,44.56a15.62,15.62,0,0,1-16.12,14.52c-8.25-.16-14.77-6.45-15.5-15.25-.52-6.3-.77-12.61-1.07-18.92-.38-8-.69-15.94-1-23.91a59,59,0,0,1,7.31-.95C581.06,447.93,590.67,448,600.28,448Z"/><path class="cls-28" d="M419.1,441c8.79-.32,17.57-.71,26.36-.92a27.49,27.49,0,0,1,5.31.92c-.87,9.56-2,19.09-2.56,28.66-.53,8.61-.17,17.28-.89,25.87-.62,7.49-6,11.91-13,11.75-6.31-.15-11.83-4.67-12.24-11C420.9,477.89,420.07,459.44,419.1,441Z"/><path class="cls-14" d="M600.28,448c-9.61,0-19.22-.07-28.83.05a59,59,0,0,0-7.31.95l-2.49-46H603q-1,19.8-2,39.59C600.82,444.4,600.5,446.19,600.28,448Z"/><path class="cls-25" d="M42.18,390c4.85,0,9.71-.08,14.56.09,5.07.17,10.13.6,15.19.91-1.79,14.85-3.54,29.7-5.37,44.54-1.47,11.88-3,23.74-4.55,35.62-.13,1-.15,2-.31,3-.54,3.15-.94,6.72-5.15,6.78s-4.85-3.41-5.21-6.64q-3.21-28.5-6.32-57C44,408.18,43.12,399.09,42.18,390Z"/><path class="cls-24" d="M95.4,591.19c-1.56.6-3.1,1.67-4.68,1.73-5.9.2-11.82.08-17.72.08-2.17-11,1.18-20.08,9.49-27.29,17.69-15.35,52.36-11.39,66.25,7l-13,14.14c-7.59-3.35-14.17-6.74-21.09-9.1-3.09-1.06-7-.51-10.34.06C96.17,579.16,93.75,583,95.4,591.19Z"/><path class="cls-20" d="M352.25,226c-6.18.32-12.37.6-18.54,1-3.27.21-6.53.63-9.79,1q1-31.5,1.94-63a70.24,70.24,0,0,1,8.86-.92c5.13.08,10.24.59,15.37.93.65,15.55,1.33,31.11,1.93,46.67C352.21,216.46,352.18,221.25,352.25,226Z"/><path class="cls-28" d="M371.21,442h30.14c-1.14,18.08-2.2,36.17-3.46,54.24a11.78,11.78,0,0,1-11.78,11.29,11.5,11.5,0,0,1-11.74-10.74C373.09,478.54,372.23,460.26,371.21,442Z"/><path class="cls-27" d="M162.64,324c-5.25-.33-10.51-1-15.76-.87-3.69.07-7.36,1.19-11,1.84q2.32-31.1,4.66-62.19c.4-5.31.89-10.61,1.36-15.91s2.83-8.15,7-8c4.84.16,6.56,3.44,7,7.62q2.68,28.56,5.21,57.15C161.59,310.43,162.09,317.23,162.64,324Z"/><path class="cls-25" d="M179.31,390c8.28-.33,16.55-.61,24.82-1,2.93-.15,5.83-.64,8.74-1q-2.46,27.51-4.91,55H183.44Q181.39,416.5,179.31,390Z"/><path class="cls-21" d="M399.32,161l-3.84-1.87.18,1.41L373,163c.39-18.47.64-36.95,1.23-55.42a11.6,11.6,0,0,1,11.36-11.66c6.38-.2,11.88,4.15,12.16,10.74C398.54,124.78,398.84,142.91,399.32,161Z"/><path class="cls-12" d="M118.51,353c-7.7,0-15.4-.1-23.1,0a69.15,69.15,0,0,0-7.81,1L93,293l19.33-1c1.53,14.54,3.1,29.08,4.59,43.62C117.55,341.43,118,347.23,118.51,353Z"/><path class="cls-23" d="M90,418l25.9-1c-1.46,15.2-2.89,30.41-4.38,45.61-.82,8.42-1.72,16.85-2.6,25.27-.21,2-.45,4-.75,5.93-.53,3.38-2.34,5.52-6,5.43-3.37-.08-5.12-2.15-5.52-5.33-.49-4-.83-7.92-1.17-11.89Q92.76,450,90,418Z"/><path class="cls-24" d="M443.74,598H425c-.75,1.8-1.41,3.41-2.07,5-1.43-1.93-2.87-3.85-4.87-6.53-.28,3-.49,5.23-.7,7.5H396.94V558c6.26,0,12.51-.1,18.75.1,1,0,2.32,1.21,3,2.19C427.08,572.83,435.39,585.43,443.74,598Z"/><path class="cls-20" d="M303.67,234,277,233l2-57c7.27-2.4,14.67-1.86,22.08-1,.48,8.58,1.06,17.16,1.42,25.75C303,211.83,303.3,222.92,303.67,234Z"/><path class="cls-27" d="M208.93,318H182.77c1.67-21.22,3.31-42.44,5-63.65.36-4.41,3-7.11,7.46-7.23s7.37,2.42,7.79,6.82C205.13,275.28,207,296.64,208.93,318Z"/><path class="cls-11" d="M256.16,274.94,229.35,277q1.35-27.49,2.69-55l21.32-1Q254.76,248,256.16,274.94Z"/><path class="cls-21" d="M350.09,165c-5.13-.34-10.24-.85-15.37-.93a70.24,70.24,0,0,0-8.86.92c.39-16.29.69-32.58,1.22-48.87a10.72,10.72,0,0,1,10.54-10.57c6-.15,10.77,4.41,11.15,11.08.5,9,.75,18,1,26.93C350,150.7,350,157.85,350.09,165Z"/><path class="cls-5" d="M396.94,604h20.42v61H396.94Z"/><path class="cls-4" d="M743.93,616l-20.87,1V558.32h20.87Z"/><path class="cls-28" d="M183.44,443H208c-1.58,18.54-3.07,37.08-4.77,55.6-.45,4.88-3.52,7.54-7.69,7.55s-7.26-2.58-7.71-7.51c-1.39-15.23-2.52-30.47-3.72-45.71C183.81,449.62,183.65,446.31,183.44,443Z"/><path class="cls-24" d="M932.89,607c-2.69,0-5.42.42-8,.06A18,18,0,0,0,912,610V558.3h20.9Z"/><path class="cls-22" d="M301.12,175c-7.41-.86-14.81-1.4-22.08,1,.36-13.26.6-26.53,1.15-39.78a9.84,9.84,0,1,1,19.68,0C300.44,149.14,300.72,162.07,301.12,175Z"/><path class="cls-24" d="M304,604l-20.89-1V558.31H304Z"/><path class="cls-20" d="M253.36,221,232,222c.62-14.13,1.14-28.26,1.93-42.38a8.6,8.6,0,0,1,17.11-.43c.86,8.27,1.24,16.59,1.69,24.9C253.08,209.73,253.17,215.38,253.36,221Z"/><path class="cls-26" d="M998.38,598l-21.07,1V558.34h21.07Z"/><path class="cls-27" d="M67.05,317l-20.61,0q2.43-23.08,4.85-46.18c.09-.82,0-1.87.47-2.42,1.37-1.62,3.16-4.39,4.45-4.22,1.85.25,4.56,2.51,4.87,4.26,1.63,9.34,2.69,18.78,3.83,28.2C65.72,303.43,66.34,310.22,67.05,317Z"/><path class="cls-26" d="M369.62,592l-21.16,1V558.35h21.16Z"/><path class="cls-27" d="M112.36,292,93,293c1.18-14.55,2.33-29.1,3.55-43.65.3-3.54,2.1-6.17,5.9-6.13s5.47,2.67,5.81,6.22Q110.35,270.74,112.36,292Z"/><path class="cls-26" d="M483.33,590H462.69V558.2h20.64Z"/><path class="cls-26" d="M463,624l-1.09,1.69-1-1.44Z"/><path class="cls-22" d="M853.76,146c1.29.28,2.58.55,3.85.93a16.78,16.78,0,0,1-.36,1.7l-3.9-.86C853.48,147.15,853.62,146.56,853.76,146Z"/><path class="cls-22" d="M736.75,146c1.29.28,2.59.54,3.85.91a17.06,17.06,0,0,1-.34,1.71l-3.87-.84Z"/><path class="cls-22" d="M619.69,146l4.24.63-.4,2-4.12-1.1C619.5,147,619.6,146.48,619.69,146Z"/></g></g></svg>