<svg xmlns="http://www.w3.org/2000/svg" viewBox="0 0 512 512"><defs><style>.cls-1{fill:#fefe64;}.cls-2{fill:#010100;}</style></defs><title>genius</title><g id="Layer_2" data-name="Layer 2"><g id="Layer_2-2" data-name="Layer 2"><path class="cls-1" d="M512,144.9V367.1c-.15.65-.34,1.3-.44,2-1.15,7.9-1.75,15.94-3.53,23.7-7.76,33.88-25.21,62-51.94,84.12a149.93,149.93,0,0,1-76.67,33.65L368.64,512H142.85a9.91,9.91,0,0,0-1.64-.49c-4.56-.58-9.16-.9-13.68-1.72C88,502.58,55.85,483.15,31.35,451.32A148.89,148.89,0,0,1,1.46,379.21c-.54-4-1-8.07-1.46-12.11V144.9c.15-.74.36-1.47.44-2.21.42-4,.6-8,1.24-11.95C8.31,89.92,27.87,56.67,60.62,31.4A148.77,148.77,0,0,1,132.78,1.46c4-.54,8.08-1,12.12-1.46H367.1a16.73,16.73,0,0,0,2,.43c4.56.53,9.17.82,13.7,1.58C423.22,8.77,456,28.54,480.91,61a148.35,148.35,0,0,1,29.62,71.75C511.08,136.81,511.51,140.86,512,144.9ZM388.84,205.85c-.46,6.81-.63,13.65-1.43,20.41-5.09,43.45-22.86,81-54.42,111.25-45,43.13-98.83,59.35-160.37,49.9a166.15,166.15,0,0,1-34.46-9.49c-2.77-1.07-5.12-.18-5.09,2.12a6,6,0,0,0,1.92,3.83c46.75,42.24,101.19,56.94,162.26,42.1,83.87-20.38,138.89-98.2,131.87-184.43-3.28-40.29-19.11-75.17-46.57-104.8-.52-.56-1-1.39-1.66-1.54-1.15-.28-2.68-.6-3.52-.06s-1.2,2.05-1.43,3.21c-.13.64.44,1.43.71,2.15A193.34,193.34,0,0,1,388.84,205.85Zm-213.37-50.3V137.12c0-3.81-.85-4.65-4.67-4.65-11.77,0-23.54.1-35.31-.08a9.74,9.74,0,0,0-7.61,3.19C87,176.08,86.1,242.61,126.11,284c5.41,5.59,11.94,10.11,18,15.08,1.31,1.08,3.07,1.36,4.14,0,.75-.95.72-2.55.89-3.88.06-.46-.3-1-.47-1.45a108.86,108.86,0,0,1-6.27-33.55c-.68-31.44,9.9-58.61,31.21-81.7a7.5,7.5,0,0,0,1.79-4.48C175.59,167.83,175.47,161.69,175.47,155.55ZM296.93,203.9l-.44,0c0-5.29,0-10.59,0-15.88,0-2.67,1.07-3.73,3.7-3.77,3.15,0,6.31,0,9.47,0,3.49,0,4.7-1.53,4-4.85a110.18,110.18,0,0,0-21.08-44.47,5.67,5.67,0,0,0-5-2.36c-8.88.09-17.75,0-26.63,0-3.93,0-4.81.88-4.81,4.79,0,13.06.15,26.11-.08,39.17-.37,21-14.71,36.95-35.43,39.84-4.42.62-5,1.41-4.44,5.83,2.53,19.06,18.8,34,37.88,34.79,19.88.83,37.51-12.27,41.31-31.46C296.73,218.49,296.45,211.12,296.93,203.9Z"/><path class="cls-2" d="M388.84,205.85a193.34,193.34,0,0,0-12.19-65.35c-.27-.72-.84-1.51-.71-2.15.23-1.16.59-2.68,1.43-3.21s2.37-.22,3.52.06c.64.15,1.14,1,1.66,1.54,27.46,29.63,43.29,64.51,46.57,104.8,7,86.23-48,164-131.87,184.43-61.07,14.84-115.51.14-162.26-42.1a6,6,0,0,1-1.92-3.83c0-2.3,2.32-3.19,5.09-2.12a166.15,166.15,0,0,0,34.46,9.49c61.54,9.45,115.39-6.77,160.37-49.9,31.56-30.26,49.33-67.8,54.42-111.25C388.21,219.5,388.38,212.66,388.84,205.85Z"/><path class="cls-2" d="M175.47,155.55c0,6.14.12,12.28-.08,18.42a7.5,7.5,0,0,1-1.79,4.48c-21.31,23.09-31.89,50.26-31.21,81.7a108.86,108.86,0,0,0,6.27,33.55c.17.49.53,1,.47,1.45-.17,1.33-.14,2.93-.89,3.88-1.07,1.38-2.83,1.1-4.14,0-6-5-12.58-9.49-18-15.08-40-41.36-39.08-107.89,1.77-148.39a9.74,9.74,0,0,1,7.61-3.19c11.77.18,23.54.07,35.31.08,3.82,0,4.66.84,4.67,4.65Z"/><path class="cls-2" d="M296.93,203.9c-.48,7.22-.2,14.59-1.59,21.63-3.8,19.19-21.43,32.29-41.31,31.46-19.08-.79-35.35-15.73-37.88-34.79-.58-4.42,0-5.21,4.44-5.83,20.72-2.89,35.06-18.88,35.43-39.84.23-13.06.06-26.11.08-39.17,0-3.91.88-4.78,4.81-4.79,8.88,0,17.75.05,26.63,0a5.67,5.67,0,0,1,5,2.36,110.18,110.18,0,0,1,21.08,44.47c.74,3.32-.47,4.81-4,4.85-3.16,0-6.32,0-9.47,0-2.63,0-3.68,1.1-3.7,3.77,0,5.29,0,10.59,0,15.88Z"/></g></g></svg>