<svg xmlns="http://www.w3.org/2000/svg" viewBox="0 0 1280.11 260.01"><defs><style>.cls-1{fill:#040404;}.cls-2{fill:#151515;}.cls-3{fill:#222;}.cls-4{fill:#030303;}.cls-5{fill:#060606;}.cls-6{fill:#fefdfe;}.cls-7{fill:#6f6dfa;}.cls-8{fill:#da617c;}.cls-9{fill:#e45f6f;}.cls-10{fill:#f05f62;}.cls-11{fill:#40a1fd;}.cls-12{fill:#4e94fd;}.cls-13{fill:#ce6289;}.cls-14{fill:#f95e57;}.cls-15{fill:#6376fe;}.cls-16{fill:#35b0fc;}.cls-17{fill:#2dbffc;}.cls-18{fill:#c36397;}.cls-19{fill:#b266ac;}.cls-20{fill:#5a83fd;}.cls-21{fill:#9269d1;}</style></defs><title>apple-music</title><g id="Layer_2" data-name="Layer 2"><g id="Layer_2-2" data-name="Layer 2"><path class="cls-1" d="M1280.11,158a22.25,22.25,0,0,0-1.87,3.22c-6,15.91-19.56,25-36.58,24.93-15.54-.07-28.9-4.49-38-17.95-14.25-21.19-9.52-55.81,9.44-69.89,22.37-16.62,55.56-8.24,64.68,16.32.78,2.11,1.53,4.24,2.29,6.37v3h-18.17c-2.78-10.52-8.87-16.63-18.91-17.65-9.46-1-17.8,2.09-22.56,10.72-7.61,13.8-7.62,28.17-.15,42,4.89,9.07,13.61,11.87,23.44,10.88,8.83-.89,14.44-6,17.44-14.33a4.68,4.68,0,0,1,3.44-2.34c5.14-.31,10.31-.22,15.47-.28Z"/><path class="cls-2" d="M55.11,260c-2.49-.62-5-1.39-7.49-1.84-24-4.27-40.49-19.94-45.25-43.82A112.07,112.07,0,0,1,.17,193c-.2-42-.27-84,0-126A115.73,115.73,0,0,1,3.43,41.4c5.35-22.45,24-37.53,49-40.31a165.53,165.53,0,0,1,17.94-1c41-.08,82-.15,123,.06a113.5,113.5,0,0,1,21.82,2.28C238.25,7.1,254.18,24,258,48a161.29,161.29,0,0,1,1.79,24.36c.2,40,.4,80,0,120a104.24,104.24,0,0,1-4.31,29.47c-6.35,20.34-21.2,32-41.94,36.19-3.13.64-6.26,1.33-9.39,2h-7a28.36,28.36,0,0,0-5.18-.94q-61.81-.07-123.64,0a28.51,28.51,0,0,0-5.18.94ZM3.9,130h.22c0,23.5-.51,47,.16,70.49.55,19.13,7,35.83,24.26,46.67C40,254.39,52.8,256,65.87,256.09c19.5.18,39,.07,58.5,0,25.33,0,50.67.25,76-.32,18.25-.41,34.3-6.5,45.33-22.14,8.77-12.44,10.32-26.83,10.37-41.43q.19-60.26,0-120.5a171,171,0,0,0-1-18.93C252.56,31.12,242,15,220.82,8c-8.82-2.91-18.61-3.87-28-4-41-.41-82-.23-123-.12A161.44,161.44,0,0,0,50.44,5.15C27.39,8,10.67,23.42,6.18,46.21A119.94,119.94,0,0,0,4,67.51C3.72,88.34,3.9,109.17,3.9,130Z"/><path class="cls-3" d="M63.11,260a28.51,28.51,0,0,1,5.18-.94q61.83-.07,123.64,0a28.36,28.36,0,0,1,5.18.94Z"/><path class="cls-4" d="M883.73,158.53C891,140.68,898,123.65,905,106.61c6.35-15.52,12.76-31,19-46.59,1-2.58,2.29-3.52,5.07-3.42,6.29.22,12.59.07,19.15.07v128H930.38V91.72l-.75-.28c-.52,1-1.12,2-1.56,3-11.64,28.06-23.35,56.09-34.77,84.25-1.61,4-3.31,6-7.79,5.35-2.94-.43-6-.08-9.2-.08q-19.2-46.3-38.33-92.45l-.67,0v93.08H819.23v-128c6.81,0,13.59-.19,20.34.17,1.32.07,3.07,2.1,3.69,3.6q19.54,47.16,38.84,94.42C882.47,155.78,882.9,156.67,883.73,158.53Z"/><path class="cls-5" d="M438.74,91.54h18.1v14c4.76-3.91,8.82-8.39,13.82-11.15,17.66-9.74,40.64-2.31,49.67,16.39,8.82,18.26,8.79,37.19-.24,55.34-10,20.15-36.58,26.31-53.67,13.15-3-2.32-6-4.71-8.42-6.61v43H438.74ZM508,138c-2.1-6.85-3.1-13.8-6.23-19.6a22.16,22.16,0,0,0-38.89-.68c-7.75,13.32-7.74,27.5,0,40.82a22.18,22.18,0,0,0,38.89-.6C505,152,506,144.9,508,138Z"/><path class="cls-4" d="M426.46,184.78H405.61q-5.88-17.17-11.84-34.64c-15.45,0-30.6-.08-45.75.14-1.35,0-3.39,1.74-3.9,3.11q-5.16,14-9.7,28.28c-.81,2.53-1.91,3.41-4.53,3.32-5.49-.18-11-.05-17.25-.05.85-2.37,1.53-4.33,2.24-6.28Q336,119.84,357.15,61c1.22-3.43,2.8-4.68,6.38-4.4,5.6.45,12.54-1.49,16.46,1.18,3.7,2.51,4.28,9.66,6.13,14.8Q405.43,126,424.67,179.41C425.27,181.09,425.8,182.8,426.46,184.78Zm-57-107.58-19.21,56.56h38.4C382.25,115,376,96.67,369.44,77.2Z"/><path class="cls-1" d="M560.46,173v42.66h-19v-124h18.21v15.5C566,98.11,573.12,92.73,582.49,91c19.33-3.49,36,5.92,42.76,24.47,6.17,17,5.91,34.09-2.23,50.39-9.92,19.86-36.09,26.42-53.23,13.85C566.33,177.21,562.84,174.71,560.46,173Zm50.28-35c-2-6.76-3-13.73-6.14-19.51a22.25,22.25,0,0,0-39.19-.31c-7.37,13.06-7.34,27-.06,40a22.29,22.29,0,0,0,39.45-.57C607.84,151.74,608.75,144.78,610.74,138Z"/><path class="cls-1" d="M765.19,142.89H699.65c-2.81,11.75,5.62,24.39,17.78,27.06s19.92-.45,27.16-10.54a4.67,4.67,0,0,1,3-1.89c5.1-.19,10.22-.08,15.36-.08-1,11.78-12.64,24.76-26.07,27.41-29.91,5.91-57.41-7.54-57.47-46.76,0-12.93,2.9-25.27,12.15-35,12.72-13.32,28.61-15.74,45.49-10.66,16.65,5,24.52,17.86,27,34.38C764.81,131.91,764.8,137.09,765.19,142.89Zm-19.83-13.55c.17-14.06-9.6-23.69-23.23-23.46-13,.22-23.5,10.9-22.77,23.46Z"/><path class="cls-5" d="M970.1,91.32H989c.11,1.88.27,3.47.27,5.07q0,23.73,0,47.46c0,1.5,0,3,0,4.5.4,14.28,7.39,21.29,20.88,21,12.63-.29,21.56-9.91,21.43-22.68-.18-17.32-.12-34.64-.15-52,0-1,.14-1.91.24-3.11h18.79v93.12h-18.15V169.06c-1.18,1.56-1.64,2.08-2,2.67-7.88,12.8-20,15.84-33.74,13.94-13.17-1.83-23-11.39-25.93-24.37a15.56,15.56,0,0,1-.52-3.44C970.09,135.88,970.1,113.91,970.1,91.32Z"/><path class="cls-1" d="M1066.39,158h18.31c6.13,12.55,18.47,17.11,31.57,11.61,4.63-1.95,7.84-5.09,7.79-10.5,0-5.13-3.3-7.93-7.72-9.26-7.15-2.15-14.47-3.76-21.63-5.89a69.36,69.36,0,0,1-13-4.86c-16.15-8.67-17.56-29.93-2.92-41.06,13.22-10,37.45-10.43,50.91-.72,7,5,11.07,11.69,11.4,20.73h-17.57c-4.49-12.63-20.79-17.49-31.59-9.5-6.41,4.75-6.25,13.19,1,16.69,5.59,2.71,11.91,3.92,17.94,5.71,5.72,1.7,11.57,3,17.21,5,20.28,7,18.4,31.14,6.29,40.85a42.43,42.43,0,0,1-21.42,8.75c-9.91,1.33-19.61.61-28.86-3.49C1073.83,177.47,1068.07,169.71,1066.39,158Z"/><path class="cls-4" d="M645.13,56.91h18.59V184.65H645.13Z"/><path class="cls-4" d="M1178.8,184.86h-18.58V91.58h18.58Z"/><path class="cls-5" d="M1180.52,66.48a11.27,11.27,0,0,1-10.94,11.26,11.22,11.22,0,1,1-.07-22.44A11.22,11.22,0,0,1,1180.52,66.48Z"/><path class="cls-6" d="M3.9,130c0-20.84-.18-41.67.1-62.5a119.94,119.94,0,0,1,2.18-21.3C10.67,23.42,27.39,8,50.44,5.15A161.44,161.44,0,0,1,69.85,3.94c41-.11,82-.29,123,.12,9.36.09,19.15,1.05,28,4C242,15,252.56,31.12,255,52.81a171,171,0,0,1,1,18.93q.15,60.26,0,120.5c-.05,14.6-1.6,29-10.37,41.43-11,15.64-27.08,21.73-45.33,22.14-25.32.57-50.66.28-76,.32-19.5,0-39,.14-58.5,0C52.8,256,40,254.39,28.54,247.17,11.31,236.33,4.83,219.63,4.28,200.5c-.67-23.48-.16-47-.16-70.49Zm98,3V110c.06-1.49.16-3,.18-4.48.08-7.08.93-8,8-9.45,4.37-.87,8.7-1.91,13.06-2.88l16-3.17,15-3,24-4,2.18,5q0,16,0,32v23c-.52,9.74-1.2,10.56-10.5,12.59a28.2,28.2,0,0,0-2.94.52c-6.69,2.32-13.85,3.85-19.92,7.29-6.8,3.86-8.63,10.94-7.06,18.66l4,9,10,6.4a42.84,42.84,0,0,0,5.31,1.11C175,199.9,190.08,191.09,190,173V150q0-5.5,0-11V128q0-6.5,0-13l0-32V75q0-6.48,0-12.95V55l0-8c-.69-6.65-3.13-8.16-9.89-6.13l-20.08,4-26,5.13c-11.75,2.23-23.52,4.39-35.25,6.71-4.48.89-6.89,3.82-6.92,8.43S92,74.37,92.06,79v22q0,6.51,0,13v24c0,3.32,0,6.65,0,10Q92,155,91.87,162c-.09,7.9-2,9.66-9.59,11.18-6.78,1.36-13.74,2.76-20,5.56C51.7,183.44,48.42,195.55,54,206.06l7,7.05L72.12,216C88,216.7,98.6,209.31,101,196c.29-3,.57-6,.86-9l0-11V143Q101.87,138,101.86,133Z"/><path class="cls-7" d="M101.87,143v33c-1.4.41-3,.53-4.18,1.3-6.62,4.34-13.08,8.92-19.69,13.27-8,5.24-16,10.33-24,15.48-5.54-10.51-2.26-22.62,8.33-27.37,6.25-2.8,13.21-4.2,20-5.56,7.62-1.52,9.5-3.28,9.59-11.18q.07-7,.19-13.94Z"/><path class="cls-8" d="M180.13,40.87c6.76-2,9.2-.52,9.89,6.13A23.74,23.74,0,0,0,186,48.77Q156,68.83,126.2,89.05c-1.34.91-2.07,2.73-3.08,4.13-4.36,1-8.69,2-13.06,2.88-7.09,1.42-7.94,2.37-8,9.45,0,1.5-.12,3-.18,4.48l-9.81,4q0-6.49,0-13a22.79,22.79,0,0,0,4.48-1.75c4.87-3.15,9.61-6.5,14.42-9.74q32.6-22,65.17-44C177.76,44.39,178.81,42.44,180.13,40.87Z"/><path class="cls-9" d="M180.13,40.87c-1.32,1.57-2.37,3.52-4,4.63q-32.52,22.11-65.17,44c-4.81,3.24-9.55,6.59-14.42,9.74A22.79,22.79,0,0,1,92.06,101V91c1.83-.65,3.9-1,5.47-2q29.93-20.14,59.68-40.53c1.21-.83,1.91-2.41,2.84-3.64Z"/><path class="cls-10" d="M160.05,44.82c-.93,1.23-1.63,2.81-2.84,3.64Q127.45,68.83,97.53,89c-1.57,1.06-3.64,1.37-5.47,2V79a13.76,13.76,0,0,0,3.25-1.15q18.6-12.47,37.11-25.09c.82-.56,1.13-1.86,1.67-2.82Z"/><path class="cls-11" d="M143.89,191.09l-4-9c5.88-3.66,11.8-7.24,17.63-11,10.86-7,21.67-14,32.5-21.08q0,6,0,12c-6.26,3.81-12.58,7.53-18.78,11.45C162,179.26,153,185.21,143.89,191.09Z"/><path class="cls-12" d="M190,150c-10.83,7-21.64,14.1-32.5,21.08-5.83,3.74-11.75,7.32-17.63,11-1.57-7.72.26-14.8,7.06-18.66,6.07-3.44,13.23-5,19.92-7.29a28.2,28.2,0,0,1,2.94-.52c9.3-2,10-2.85,10.5-12.59l9.72-4Q190,144.51,190,150Z"/><path class="cls-13" d="M123.12,93.18c1-1.4,1.74-3.22,3.08-4.13Q156,68.79,186,48.77A23.74,23.74,0,0,1,190,47c0,2.67,0,5.34,0,8a38.11,38.11,0,0,0-5.85,2.61q-20,13.33-39.82,26.91c-2,1.41-3.52,3.64-5.26,5.49Z"/><path class="cls-14" d="M134.09,50c-.54,1-.85,2.26-1.67,2.82Q113.93,65.42,95.31,77.86A13.76,13.76,0,0,1,92.06,79c0-4.64-.17-9.28-.14-13.92s2.44-7.54,6.92-8.43C110.57,54.34,122.34,52.18,134.09,50Z"/><path class="cls-15" d="M54,206.06c8-5.15,16.08-10.24,24-15.48,6.61-4.35,13.07-8.93,19.69-13.27,1.17-.77,2.78-.89,4.18-1.3l0,11c-1.67.53-3.58.71-5,1.65-12,8.07-24,16.29-35.95,24.46Z"/><path class="cls-16" d="M143.89,191.09c9.1-5.88,18.15-11.83,27.3-17.63,6.2-3.92,12.52-7.64,18.78-11.45v11a12.73,12.73,0,0,0-2.76,1q-14.58,9.69-29.06,19.52a36.6,36.6,0,0,0-4.22,4Z"/><path class="cls-17" d="M153.93,197.49a36.6,36.6,0,0,1,4.22-4q14.46-9.85,29.06-19.52a12.73,12.73,0,0,1,2.76-1c.11,18.08-15,26.89-30.73,25.59A42.84,42.84,0,0,1,153.93,197.49Z"/><path class="cls-18" d="M139.11,90c1.74-1.85,3.22-4.08,5.26-5.49q19.8-13.62,39.82-26.91A38.11,38.11,0,0,1,190,55v7a12.13,12.13,0,0,0-2.79,1q-15.93,10.66-31.78,21.47c-.69.48-.91,1.65-1.35,2.51Z"/><path class="cls-19" d="M154.12,87c.44-.86.66-2,1.35-2.51Q171.3,73.64,187.25,63A12.13,12.13,0,0,1,190,62q0,6.48,0,12.95l-11.95,8Z"/><path class="cls-20" d="M60.92,213.11c12-8.17,23.91-16.39,36-24.46,1.39-.94,3.3-1.12,5-1.65-.29,3-.57,6-.86,9-1.4.4-3,.47-4.17,1.24q-11.3,7.45-22.37,15.24c-1.07.75-1.56,2.33-2.32,3.53Z"/><path class="cls-7" d="M180.27,120q0-16,0-32L190,83q0,16,0,32Z"/><path class="cls-12" d="M72.12,216c.76-1.2,1.25-2.78,2.32-3.53q11.07-7.8,22.37-15.24c1.15-.77,2.77-.84,4.17-1.24C98.6,209.31,88,216.7,72.12,216Z"/><path class="cls-18" d="M92.05,114l9.81-4v13l-9.81,4Z"/><path class="cls-15" d="M180.27,120l9.74-5q0,6.49,0,13l-9.72,4Z"/><path class="cls-20" d="M180.27,132l9.72-4v11l-9.72,4Z"/><path class="cls-19" d="M92.05,127l9.81-4v10l-9.81,5Z"/><path class="cls-21" d="M92.05,138l9.81-5q0,5,0,10l-9.81,5C92.06,144.69,92.05,141.36,92.05,138Z"/><path class="cls-21" d="M190,83l-9.77,5q-1.08-2.51-2.18-5L190,75Z"/></g></g></svg>