<svg xmlns="http://www.w3.org/2000/svg" viewBox="0 0 751.6 118.22"><defs><style>.cls-1{fill:#1c1b19;}.cls-2{fill:#999998;}.cls-3{fill:#63929c;}.cls-4{fill:#1d1c1a;}.cls-5{fill:#1d1d1b;}</style></defs><title>bandcamp</title><g id="Layer_2" data-name="Layer 2"><g id="Layer_2-2" data-name="Layer 2"><path class="cls-1" d="M687.2,117.37q-.08-33-.14-65.9c0-8.48,0-17,0-25.64h13.2v9.29c8.08-11.74,18.63-13.3,30.26-9.87,11.8,3.49,17.32,12.59,19.7,24,.36,1.75.92,3.45,1.38,5.17v9.75c-.49,2-1.1,4-1.44,6-3.35,19.43-21,29.48-38.9,21.75-3.69-1.6-6.76-4.65-10.27-7.15v32.43Zm12.6-58.89c.79,8.78,2.34,14,6.33,18.78A16.8,16.8,0,0,0,732.88,76c6.12-9,5.92-24.88-.41-33.72-7.6-10.61-23.37-9.49-28.91,2.35C701.56,48.87,701,53.83,699.8,58.48Z"/><path class="cls-2" d="M701,117.22l.36,1H687.1c0-.28.07-.57.1-.85Z"/><path class="cls-3" d="M156.46.41c-3.68,6.83-7.13,13.28-10.61,19.71q-18.73,34.54-37.45,69.1c-1,1.92-2,3-4.49,3q-50.25-.14-100.5-.07c-1,0-1.91-.14-3.41-.27,2.6-4.82,5-9.28,7.4-13.73Q27.62,40.8,47.82,3.41C49,1.28,50.14.11,52.91.12c33.25.13,66.5.08,99.74.09C153.74.21,154.83.32,156.46.41Z"/><path class="cls-4" d="M524,45.54H511.08C510.46,38,515.2,30.21,523,27a40.52,40.52,0,0,1,29.6-1.14c9.56,3.33,13.24,8.69,13.3,18.78.06,10.74,0,21.49,0,32.23,0,5.71.57,6.22,6.12,6.2h7.33V25.9h13.38v8.34c5.17-6.72,11.6-10.48,19.86-10.49s14.93,2.69,19.25,12a20.45,20.45,0,0,1,1.74-3.29,25.43,25.43,0,0,1,29.21-6.92c7.13,3,10.29,9,10.48,16,.44,16.94.14,33.9.14,51H659.6c0-1.48,0-2.82,0-4.16-.09-13.87-.05-27.74-.32-41.6-.15-7.51-3.36-11-10-11.7-7-.78-12.89,2.64-14.53,9a48.85,48.85,0,0,0-1.32,11.46c-.16,12.23-.06,24.47-.06,36.92H619.68c0-1.06-.15-2.14-.16-3.22,0-12.62,0-25.24,0-37.86,0-2-.23-4-.38-6-.34-4.41-2-8.11-6.43-9.62a13.15,13.15,0,0,0-13.92,2.87c-3.9,3.61-5.37,8.29-5.38,13.47,0,13.36,0,26.72,0,40.44-2.58.16-5,.29-7.45.45-6.86.43-13.71,1-20.57,1.27-7.36.36-9.55-1-12.66-7.74-7.24,6.09-15.7,8.24-25,7.73-14.54-.79-22.91-12.86-18.5-26.72,2.13-6.68,7.25-10.05,13.59-11.52C528.9,54.71,535.11,54,541.25,53a41.73,41.73,0,0,0,6.17-1.39,7.81,7.81,0,0,0,2.71-13.42c-5.16-4.55-18.06-4.1-22.59,1C526.05,40.86,525.28,43.2,524,45.54Zm28,14.07c-4.53.88-8.66,1.64-12.77,2.49-3.65.75-7.41,1.24-10.9,2.48-4.3,1.51-6.43,5.48-6.21,10.07.21,4.36,3.23,6.34,6.79,7.47a20.38,20.38,0,0,0,16.67-1.57A11.63,11.63,0,0,0,552,70.24C552.1,66.63,552,63,552,59.61Z"/><path class="cls-4" d="M244.29,45.6h-13c-.92-7.43,4-15.52,12-18.71,10.32-4.13,20.9-4.59,31.35-.3,7.43,3.06,11.33,8.66,11.32,16.83,0,10.25,0,20.49,0,30.74,0,8.91,0,8.91,9.05,8.89h4.36V25.78h13.24V36c1.22-1.47,1.89-2.23,2.51-3a24.62,24.62,0,0,1,31.95-5.86c6.31,3.9,9.05,10.05,9.18,17.06.3,16,.1,32,.1,48.25H342.19v-5c0-12.5.05-25-.06-37.49-.08-9.39-3.46-13.83-10.9-14.77a15.48,15.48,0,0,0-16.87,11.71,29.07,29.07,0,0,0-.86,7.39c-.09,12.72,0,25.45,0,38.47-10.57.56-20.87,1.25-31.18,1.59-5,.17-8-2.91-9.24-7.85-9,7.19-18.93,9.5-29.76,7.09-9.59-2.13-15.09-9.19-15.1-18.68,0-10,5.18-16.69,15.22-18.87,5.95-1.3,12-2,18-3,1.84-.31,3.69-.62,5.5-1.1,3.46-.91,5.72-3,6-6.75a8.18,8.18,0,0,0-4.68-8.28A16.86,16.86,0,0,0,244.29,45.6Zm27.88,14c-4.81.92-9.29,1.73-13.75,2.65a68.79,68.79,0,0,0-10.13,2.39c-4.32,1.59-6.18,5.25-6,10.14.15,4.24,3.07,6.12,6.46,7.26a20.39,20.39,0,0,0,16.32-1.13c4.49-2.28,7-5.9,7.09-11C272.23,66.42,272.17,62.93,272.17,59.59Z"/><path class="cls-5" d="M417,92.43V83.29c-6.66,10.76-16.29,12.32-26.79,10.58-11-1.82-18-8.71-21.38-19.09-3.95-12-3.93-24.1,1.52-35.7A27,27,0,0,1,409,27.65c2.59,1.6,4.69,4,7.17,6.16V.08h14.16V92.43Zm-37.3-33c.41,5.77,1.49,11.09,4.53,15.88a16.62,16.62,0,0,0,28.42,0c5.65-9.13,5.73-19,2.16-28.8C412,38.86,406,35,398.5,35s-13.24,4-16,11.77C381.08,50.86,380.59,55.24,379.68,59.46Z"/><path class="cls-4" d="M171.6,0V34.53c6.48-8.29,14.33-11.84,24.17-10.48,12.32,1.71,20.07,8.87,23.64,20.5s3.33,23.44-1.89,34.67c-6.94,14.94-26.29,20.27-40.15,11.2-2.47-1.61-4.74-3.53-7.11-5.31l.56-1.12v8.62H157.75V0Zm-1.19,58.58c.65,8.23,2.26,13.82,6,18.44a16.85,16.85,0,0,0,27-1.12c5.95-8.9,5.93-24,0-33.08-3.69-5.6-8.93-8.26-15.59-7.7-6.82.57-11.85,4.1-14.22,10.5C172,49.76,171.41,54.25,170.41,58.58Z"/><path class="cls-4" d="M502,47.61H488.2C485.55,39,481,35.2,473.11,35.05s-13.89,4.24-16.45,12.23c-2.74,8.57-2.91,17.22.72,25.62,3.35,7.77,9.47,11.12,17.69,10,6.19-.8,11.1-6.13,12.55-13.61.07-.36.2-.7.43-1.49h13.62c-1.11,15.25-12.16,26-27,26.53-19.8.7-33.14-11.53-33.55-31.36a59.52,59.52,0,0,1,2-17.71c6.17-21,26.78-24.82,42.15-19.41C495.39,29.45,500.61,36.87,502,47.61Z"/></g></g></svg>