<svg xmlns="http://www.w3.org/2000/svg" viewBox="0 0 1280 244"><defs><style>.cls-1{fill:#010101;}.cls-2{fill:#020202;}.cls-3{fill:#2d4295;}.cls-4{fill:#fe8804;}.cls-5{fill:#fe9200;}.cls-6{fill:#3252a2;}.cls-7{fill:#e44b2a;}.cls-8{fill:#d02752;}.cls-9{fill:#991761;}.cls-10{fill:#3f137c;}.cls-11{fill:#fc711f;}.cls-12{fill:#dd3c36;}.cls-13{fill:#511476;}.cls-14{fill:#6f156e;}.cls-15{fill:#af185b;}.cls-16{fill:#fcfcfc;}.cls-17{fill:#3c9679;}.cls-18{fill:#42ab5f;}.cls-19{fill:#35a660;}.cls-20{fill:#2a4d93;}.cls-21{fill:#fdb10a;}.cls-22{fill:#fd9414;}.cls-23{fill:#e97e18;}.cls-24{fill:#3b709b;}</style></defs><title>deezer</title><g id="Layer_2" data-name="Layer 2"><g id="Layer_2-2" data-name="Layer 2"><path class="cls-1" d="M367,244c-3.1-.8-6.2-1.66-9.32-2.39-31.74-7.42-53-31.72-56.71-64.36-1.79-15.91-1.19-31.56,3.83-46.87,10-30.5,35.73-50.32,67.87-51.11a128.06,128.06,0,0,1,30.56,3.31C414.31,85,419.76,89.91,431,102.73V96.94q.11-48,.2-95.94h43.89c.11,1.48.32,3,.32,4.45q0,116.7,0,233.41c0,1.49-.2,3-.31,4.45l-42.1,0V221.76c-9.08,10.85-20.19,16.91-33.18,19.9-3.58.83-7.19,1.56-10.79,2.34H367Zm-22.43-80.69c.4,3.14.65,7.82,1.64,12.35,4.05,18.53,19,31.94,36.94,33.43,21,1.74,37.48-7.9,45.24-26.36,3.71-8.84,4.35-18,3.56-27.44-2.62-31-32.73-50.18-60.58-38.2C352,125.42,345.26,141.91,344.57,163.31Z"/><path class="cls-2" d="M727,244c-3.75-.95-7.49-2-11.27-2.83-40.66-9.11-65.47-41.37-63.09-85.25,2.08-38.38,23.94-65.54,59-74.4a95.75,95.75,0,0,1,56.52,2.67c25.43,9.06,41.59,31.07,42.72,58.28.36,8.89-.47,17.84-.77,27.1H697.79c-2.79,15.36,10.34,32.74,28.57,37.59,19.21,5.12,44.14,2.56,52.82-26.18l37.57,14.78c-7.29,20.24-20.18,34.63-40.08,42-6.95,2.56-14.47,3.54-21.72,5.29a9.85,9.85,0,0,0-2,1H727Zm41.36-104.16c-.34-2.9-.33-5.44-1-7.81-3.62-13.48-13.81-18.66-26.48-20.59-20.7-3.15-39.45,9-43.53,28.4Z"/><path class="cls-2" d="M562,244c-3.92-1-7.83-2-11.77-2.91-41.92-9.68-65.3-43.21-62.64-86.09,2.15-34.61,19.07-59.49,52.24-71.4,21.21-7.62,43-6.94,64.06,1,26.86,10.13,40.09,30.72,41.93,58.78.56,8.67-.57,17.45-.94,26.47H532.37c-1,17.55,11.59,33.18,30.21,37.85,24.38,6.11,39.82-1.77,51.81-26.64l37.25,14.7c-6.27,17.65-16.8,31.42-33.66,39-8.65,3.91-18.33,5.53-27.54,8.21a24,24,0,0,0-2.44,1h-4l-2.92-.92L576,244h-2l-4.11-.91L567,244ZM532.27,139.78h71a58.13,58.13,0,0,0-.93-7.59c-3.52-13.55-13.69-18.75-26.36-20.72C555.27,108.26,536.84,120.1,532.27,139.78Z"/><path class="cls-2" d="M1046,244c-3.91-1-7.8-2.07-11.74-3-36.93-8.37-60.93-37.49-62.39-75.41-1-24.58,5.33-46.52,23.14-64.16,16.39-16.23,36.68-22.79,59.41-22.71,18.21.06,35.47,3.63,50.35,14.7,19,14.11,25.75,34,25.63,56.82,0,5-1,9.94-1.1,14.92-.07,4.22-2.23,4.63-5.72,4.62-33.82-.11-67.64-.07-101.46-.07h-5.38c-.55,18.62,12.25,34.1,31.17,38.17,24.87,5.35,40.24-2.76,50.71-26.89q11.31,4.44,22.63,8.91l14.76,5.83c-6.21,17.51-16.67,31.33-33.52,38.95-8.79,4-18.65,5.6-28,8.31-.84.24-1.64.64-2.47,1h-3l-3-.94-5,.94h-2l-5-.93-3,.93Zm-29.17-104.31h70.57c.22-11.46-4.46-20.16-14.58-24.3a55.89,55.89,0,0,0-21.73-4C1033.76,111.73,1019.49,124,1016.83,139.69Z"/><path class="cls-1" d="M819,244c0-11.33.13-22.67-.07-34a9.06,9.06,0,0,1,3.15-7.32q41-39.93,81.87-80c1.65-1.6,3.45-3,6.2-5.43H822.23v-38H965.74c0,11.65.11,23.43-.15,35.2,0,1.43-1.86,3-3.12,4.22q-41.73,40.61-83.54,81.15c-1.14,1.11-2.2,2.29-3.88,4h93V244Z"/><path class="cls-2" d="M1147,244q.09-30,.16-59.93,0-49.45,0-98.9V79.38H1192V102c6.4-10.51,14.76-18,26.65-21.19,29.63-8.07,55.84,9,60.3,39.32A14.79,14.79,0,0,0,1280,123v2q-.55,7.59-1.13,15.17h-42.93c0-2.27.11-4.27,0-6.25-.8-12.12-9.21-21.53-19.72-22.16-12.66-.76-21.14,6.11-23.58,19.36a49.28,49.28,0,0,0-.59,8.94q-.06,52,0,103.94Z"/><path class="cls-3" d="M199,244V212.17h38a59.64,59.64,0,0,1,1,7.35c.13,8.16.05,16.32.05,24.48Z"/><path class="cls-4" d="M28,212.17H56V244H28Q28,228.08,28,212.17Z"/><path class="cls-5" d="M28,212.17q0,15.92,0,31.83H1l0-32Z"/><path class="cls-6" d="M238,244c0-8.16.08-16.32-.05-24.48a59.64,59.64,0,0,0-1-7.35h17V244Z"/><path class="cls-7" d="M83.05,212.15l16,0q0,15.92,0,31.83H83Q83,228.07,83.05,212.15Z"/><path class="cls-8" d="M107,212.17h15V244H107Z"/><path class="cls-9" d="M146,212.17h14L160,244H146Z"/><path class="cls-10" d="M175,212.18h13V244H175Z"/><path class="cls-4" d="M67,244V212.15h8L75,244Z"/><path class="cls-11" d="M75,244l0-31.85h8.08q0,15.93,0,31.85Z"/><path class="cls-12" d="M107,212.17,107,244H99q0-15.92,0-31.83Z"/><path class="cls-13" d="M175,212.18,175,244h-8q0-15.92,0-31.82Z"/><path class="cls-8" d="M133,244V212.16h7q0,15.92,0,31.84Z"/><path class="cls-14" d="M167,212.18q0,15.9,0,31.82h-7l0-31.83Z"/><path class="cls-15" d="M140,244q0-15.92,0-31.84h6q0,15.92,0,31.83Z"/><path class="cls-2" d="M475.06,1H431.17L431,0h44Z"/><path class="cls-13" d="M433,244l-.25-.34.22-.37,42.1,0,.23.37-.3.32Z"/><path class="cls-16" d="M1,212l0,32a7.69,7.69,0,0,1-.95-2.5C0,231.67,0,221.83,0,212Z"/><path class="cls-17" d="M1280,141l-1.13-.83q.57-7.59,1.13-15.17Z"/><path class="cls-13" d="M373,244h0Z"/><path class="cls-2" d="M576,244l5.08-.92a2.05,2.05,0,0,0-.08.92Z"/><path class="cls-2" d="M1054,243.07l5,.93h-5A2.09,2.09,0,0,0,1054,243.07Z"/><path class="cls-2" d="M1061,244l5-.94a1.87,1.87,0,0,0,0,.94Z"/><path class="cls-2" d="M569.89,243.09,574,244h-4A2.56,2.56,0,0,0,569.89,243.09Z"/><path class="cls-13" d="M746,244h0Z"/><path class="cls-13" d="M569.89,243.09a2.56,2.56,0,0,1,.11.91h-3Z"/><path class="cls-13" d="M581,244a2.05,2.05,0,0,1,.08-.92L584,244Z"/><path class="cls-13" d="M1054,243.07a2.09,2.09,0,0,1,0,.93h-3Z"/><path class="cls-13" d="M1066,244a1.87,1.87,0,0,1,0-.94l3,.94Z"/><path class="cls-18" d="M199.77,79.14h54.14v31.47H199.77Z"/><path class="cls-19" d="M199.81,148.93V123.41H254V148a56.06,56.06,0,0,1-7.35,1C231.06,149,215.44,149,199.81,148.93Z"/><path class="cls-20" d="M251.09,199.4l-28.09,0c-3.41-7.31-6.88-14.59-10.2-21.93-1.41-3.12-2.54-6.37-3.8-9.55l28,0c3.32,6.83,6.74,13.61,9.92,20.5C248.54,192,249.71,195.75,251.09,199.4Z"/><path class="cls-21" d="M77,154.94h-9.7V123.33H103c-.58,1.3-.88,2.85-1.78,3.85-4.5,5-9.27,9.83-13.73,14.9C83.82,146.23,80.47,150.64,77,154.94Z"/><path class="cls-22" d="M77,154.94c3.49-4.3,6.84-8.71,10.5-12.86,4.46-5.07,9.23-9.86,13.73-14.9.9-1,1.2-2.55,1.78-3.85h18.65V133L101,155Z"/><path class="cls-3" d="M209,168c1.26,3.18,2.39,6.43,3.8,9.55,3.32,7.34,6.79,14.62,10.2,21.93H199.84V168Z"/><path class="cls-14" d="M176,199.45H161c-.48-2.74-.76-5.54-1.48-8.21-2.09-7.79-4.36-15.53-6.57-23.29h14Q171.49,183.7,176,199.45Z"/><path class="cls-9" d="M153,168c2.21,7.76,4.48,15.5,6.57,23.29.72,2.67,1,5.47,1.48,8.21H147a40.75,40.75,0,0,0-.71-4.85c-2.39-8.89-4.87-17.76-7.32-26.63Z"/><path class="cls-23" d="M92,168h13c-1.43,4.22-2.93,8.42-4.27,12.67-2,6.26-3.82,12.56-5.73,18.84H81Z"/><path class="cls-21" d="M75,199.47l-7.68.34V168H85c-1.35,4.07-2.75,8.13-4,12.22C78.9,186.59,77,193,75,199.47Z"/><path class="cls-7" d="M95,199.46c1.91-6.28,3.76-12.58,5.73-18.84,1.34-4.25,2.84-8.45,4.27-12.67h11c-1,3.31-1.9,6.64-3,9.93-2.32,7.21-4.7,14.41-7,21.61Z"/><path class="cls-12" d="M106,199.48c2.35-7.2,4.73-14.4,7-21.61,1.06-3.29,2-6.62,3-9.93h5.63v31.54Z"/><path class="cls-17" d="M199.81,148.93c15.63,0,31.25.08,46.88,0a56.06,56.06,0,0,0,7.35-1l.37,6.95h-55C199.58,152.75,199.69,150.84,199.81,148.93Z"/><path class="cls-15" d="M139,168c2.45,8.87,4.93,17.74,7.32,26.63a40.75,40.75,0,0,1,.71,4.85H133.48V168Z"/><path class="cls-24" d="M251.09,199.4c-1.38-3.65-2.55-7.39-4.18-10.93-3.18-6.89-6.6-13.67-9.92-20.5h17.28c0,10.1,0,20-.14,29.85C254.12,198.36,252.15,198.87,251.09,199.4Z"/><path class="cls-10" d="M175,168h12.73V199c-1.62-.68-4.35-1-4.68-2.11C180.13,187.32,177.63,177.62,175,168Z"/><path class="cls-11" d="M101,155l20.66-22v22Z"/><path class="cls-13" d="M175,168c2.63,9.67,5.13,19.37,8.05,28.94.33,1.08,3.06,1.43,4.68,2.11l-11.73.45q-4.5-15.75-9-31.5Z"/><path class="cls-22" d="M75,199.47c2-6.44,3.93-12.88,6-19.3,1.29-4.09,2.69-8.15,4-12.22h7L81,199.46Z"/></g></g></svg>