<svg xmlns="http://www.w3.org/2000/svg" viewBox="0 0 1180.31 240.19"><defs><style>.cls-1{fill:#ca44f3;}.cls-2{fill:#e94cbf;}.cls-3{fill:#030303;}.cls-4{fill:#df4acf;}.cls-5{fill:#040404;}.cls-6{fill:#050505;}.cls-7{fill:#c743fa;}.cls-8{fill:#ed4db9;}.cls-9{fill:#070707;}.cls-10{fill:#e44ac7;}.cls-11{fill:#d747dd;}.cls-12{fill:#e44ac8;}.cls-13{fill:#d547e2;}.cls-14{fill:#d146e9;}.cls-15{fill:#060606;}.cls-16{fill:#cf45ec;}.cls-17{fill:#020202;}.cls-18{fill:#db48d8;}.cls-19{fill:#f5d2f7;}.cls-20{fill:#e9b0f8;}.cls-21{fill:#cf46ec;}.cls-22{fill:#f4afe2;}.cls-23{fill:#fefefe;}.cls-24{fill:#f4c9f1;}.cls-25{fill:#f6d4f6;}</style></defs><title>itunes-store</title><g id="Layer_2" data-name="Layer 2"><g id="Layer_2-2" data-name="Layer 2"><path class="cls-1" d="M239.67,196.13c.58,11-4.69,19.38-11.84,27-1.8-.65-3.6-1.87-5.4-1.88q-75.57-.15-151.15-.07c-20,0-39.91.08-59.87.13C3.59,213.13.75,203,0,192.13H63.87l1.67,7.68c2.69-.86,5.38-1.69,8-2.6a17.31,17.31,0,0,0,2.19-1.11,55.57,55.57,0,0,0,7.33,1q37.33.1,74.66-.05c1.71,0,3.4-1.3,5.11-2,2,1.18,3.83,2.83,6,3.4,2.57.69,6.3,3.11,7.12-2.31Z"/><path class="cls-2" d="M227.83,17.16C235.4,25,240,34,239.67,45.13l-111,0c-1.45-3.68-2.73-7.44-4.43-11-.74-1.55-2.67-4-3.48-3.76a9,9,0,0,0-5,3.7c-1.7,2.77-2.65,6-3.92,9L.7,43.1c.48-10,4.81-18.16,11.61-25.21,2.26.41,4.51,1.18,6.77,1.19,20.32.09,40.64.05,61,.05q71.21,0,142.4-.08C224.23,19,226,17.82,227.83,17.16Z"/><path class="cls-3" d="M805.79,141.12h15.72c7.92,17.28,25.94,23.94,43.79,16.09,6.7-3,11.33-7.6,11.51-15.4s-4.54-12.41-11.3-14.66c-9.13-3-18.52-5.23-27.72-8A98.46,98.46,0,0,1,824.31,114C802,103.47,804.57,76.8,818,64.75c16.25-14.61,47.09-15.47,63.86-1.43A32.47,32.47,0,0,1,894,87.76h-17.6c-5.63-17.16-23.11-24.32-39.36-16C830.78,74.92,827,79.91,827,87.13c0,7,4.51,11.07,10.5,13.08,8,2.69,16.29,4.49,24.4,6.88a158.33,158.33,0,0,1,17,5.66c25.34,10.75,21.26,41,7.25,51.91a56.19,56.19,0,0,1-19.33,9.65C853,178,839,177.37,825.82,171.2,813.26,165.32,807,155.1,805.79,141.12Z"/><path class="cls-4" d="M239.67,73.13v27l-34-.06,2.75-7.49c-2-.27-2.68-.43-3.32-.43q-31.15,0-62.32.13l-46.86.1c-20-.08-40-.24-60-.11-1.69,0-4.4,1.64-4.79,3s1.13,3.86,2.48,5.15c2.86,2.72,6.16,5,9.28,7.44-2.24.74-4.46,2.08-6.71,2.12-12.06.21-24.13.1-36.2.1v-38H102.7C100.88,78,99.07,83.8,97.22,89.78h45.11c-1.62-5.9-3.09-11.27-4.57-16.63Z"/><path class="cls-5" d="M1179.81,135.09h-60.42c-1.93,11.14,6.43,21.72,14.18,24.43,10.42,3.64,21.34.37,27.29-8.54a5.64,5.64,0,0,1,3.64-2.41c4.64-.29,9.3-.12,15.81-.12-3,5.26-4.73,10.16-7.94,13.78-11.5,12.94-26.45,15.49-42.46,11.61-15.56-3.77-24.51-14.66-28-30a58.42,58.42,0,0,1,1.1-30.12c5.8-19.16,22.43-29.65,43.21-27.44,18.67,2,31.92,16,33.51,35.71C1180.11,126.22,1179.81,130.53,1179.81,135.09Zm-18-12.84c0-13.06-8.37-21.73-20.54-21.88-11.63-.14-21.65,9.75-22,21.88Z"/><path class="cls-6" d="M615.9,135.13c0,19.32,15.75,30.91,32.19,23.91a21,21,0,0,0,8.71-7c2-3,4-3.81,7.22-3.61,3.81.23,7.64,0,13.2,0-2.83,5.11-4.52,9.88-7.6,13.43-11.35,13.09-26.22,15.78-42.3,12.06-15.65-3.61-24.73-14.37-28.33-29.68a58.09,58.09,0,0,1,.8-29.64c5.65-19.69,21.7-30.3,43-28.41,18.76,1.66,32.32,15.85,34,35.79.36,4.26.06,8.58.06,13.13Zm.16-12.94h42.53c.48-12.32-7.64-21.18-19.72-21.8C627.15,99.78,617.06,109.33,616.06,122.19Z"/><path class="cls-7" d="M11.41,221.27c20-.05,39.91-.13,59.87-.13q75.57,0,151.15.07c1.8,0,3.6,1.23,5.4,1.88-9.59,10.21-21.06,16.91-35.33,17q-72.48.28-145,0C32.36,240.05,20.53,233.13,11.41,221.27Z"/><path class="cls-3" d="M474.8,174.09V160.64c-.74.48-1.23.62-1.4.94-6.78,12.29-19.32,15.63-33.31,13-13.79-2.6-22.24-12.31-22.82-27.6-.74-19.76-.18-39.57-.18-59.66H435c.07,1.46.21,3,.21,4.61q0,22,0,44c0,1.83,0,3.67.18,5.49,1,11.24,6.54,17.1,16.53,17.67,10.94.62,19.65-5.53,21.84-15.67a43.63,43.63,0,0,0,.87-8.91c.08-15.63,0-31.26,0-47.18h17.52v86.8Z"/><path class="cls-8" d="M227.83,17.16c-1.8.66-3.6,1.88-5.4,1.89q-71.19.15-142.4.08c-20.31,0-40.63,0-60.95-.05-2.26,0-4.51-.78-6.77-1.19C21.75,7.27,33.56.42,47.7.28,96.15-.18,144.6.05,193.05.13,207.33.15,218.39,7.09,227.83,17.16Z"/><path class="cls-5" d="M1040.32,131.46c-2,7.64-3.1,15.68-6.25,22.82-6.88,15.59-23.09,23-42.63,20.75-16.87-1.95-30-14-33.5-31a58.06,58.06,0,0,1,.84-28.65c5.6-19,20.69-29,42.31-28.23,18.41.71,33,13.19,36.67,31.62.81,4.06,1.08,8.23,1.59,12.34Zm-66.54-.53.77.32c.41,3.29.7,6.6,1.25,9.87a29.48,29.48,0,0,0,1.6,5.74c3.45,9,10.34,13.91,19.74,14.17,9.17.25,16.92-4.44,20.5-13.11a43.38,43.38,0,0,0,.12-33.55c-3.35-8.42-10-12.67-19-13s-16.19,3.29-19.85,11.55C976.42,118.6,975.44,124.91,973.78,130.93Z"/><path class="cls-5" d="M527.51,174.15H509.77V87.32h17.6V98.75c.64.1,1.15.27,1.2.18,7.62-13.8,27.1-15.11,38.19-10.74,10.41,4.09,16.17,12.54,16.59,23,.84,20.91.25,41.87.25,63H565.83c0-10.47,0-20.76,0-31.05,0-7.67.13-15.34-.13-23-.36-10.83-5.33-16.46-15.18-17.72-10.31-1.33-18.93,3.82-21.69,13.44a40.9,40.9,0,0,0-1.26,10.83C527.44,142.35,527.51,158,527.51,174.15Z"/><path class="cls-9" d="M362.2,174.5V70.76H326.05V55.51h90.68v16h-36V175.33Z"/><path class="cls-5" d="M756.64,112c-4.65,0-9.28.16-13.89-.12-1-.06-2.45-1.49-2.8-2.57-3.84-12.07-24.1-12.27-30.52-4.65-4.17,4.94-3.15,11.19,3,14.07,4.31,2,9.11,3,13.72,4.35,5.89,1.72,11.91,3.09,17.72,5,19.89,6.72,17.39,28.21,7.52,37.45-13.72,12.87-43.12,13.2-56.75.3a23.81,23.81,0,0,1-7.76-16.34H703.5c5.09,11.79,20.66,16.4,31.73,9.48,3.48-2.18,5.58-5.24,5.3-9.5-.31-4.65-3.27-7.18-7.43-8.32-7.68-2.12-15.45-3.94-23.12-6.09a43.59,43.59,0,0,1-8.76-3.48c-14.84-8-16.77-25.81-4.12-37,12.81-11.37,38.08-11.57,51-.42C753.33,98.7,756.18,104.53,756.64,112Z"/><path class="cls-10" d="M102.69,72.13H0q.35-14.52.7-29l111.19,0Q107.29,57.63,102.69,72.13Z"/><path class="cls-11" d="M0,110.13c12.07,0,24.14.11,36.2-.1,2.25,0,4.47-1.38,6.71-2.12,1.11.69,2.27,1.3,3.33,2.06q18.27,13.13,36.52,26.28a4.16,4.16,0,0,0,.13.86q-3.35,8.56-6.7,17.12L0,154.13Z"/><path class="cls-12" d="M239.67,73.13l-101.91,0-9.09-28,111,0Z"/><path class="cls-13" d="M239.67,131.13v35c-22.1,0-44.2,0-66.31.05a29.87,29.87,0,0,0-5.59,1.1c-.68-1.66-1.45-3.29-2-5q-4.54-13.09-9-26.22a7.58,7.58,0,0,0,.17-.93l8.92-5.19c1.86.39,3.72,1.12,5.58,1.13C194.13,131.16,216.9,131.13,239.67,131.13Z"/><path class="cls-14" d="M0,154.13l76.18.1c-.44,1.39-.88,2.78-1.33,4.17l-11,33.74H0Z"/><path class="cls-15" d="M949.72,159.91v14.86c-8.34.75-16.56,1.63-24.37-2.27-5.57-2.79-8.31-7.81-8.54-13.76-.48-12.31-.5-24.64-.64-37-.08-6.31,0-12.63,0-19.27h-12V87h12V67h17.22V86.84h16.26v14.28H934.79c-.57.65-1,.89-1,1.13-.05,16.49-.11,33-.07,49.46,0,5,2.94,7.64,7.7,8.15A77.77,77.77,0,0,0,949.72,159.91Z"/><path class="cls-16" d="M167.77,167.28a29.87,29.87,0,0,1,5.59-1.1c22.11-.08,44.21-.05,66.31-.05v30H176c-.52-2.56-.85-5.18-1.59-7.68C172.27,181.37,170,174.33,167.77,167.28Z"/><path class="cls-17" d="M1053.81,87.18h16.94V99c5-9.29,12.64-13.35,22.91-13,2.84.1,4.32.73,4.14,4-.23,4.14-.06,8.3-.06,12.73-2.27-.15-4.34-.36-6.4-.4-11.88-.2-19.26,6.58-19.45,18.48-.24,15.81-.08,31.63-.09,47.45V174h-18Z"/><path class="cls-18" d="M239.67,131.13c-22.77,0-45.54,0-68.31,0-1.86,0-3.72-.74-5.58-1.13a19.07,19.07,0,0,1,1.8-1.69q19-14.11,38.08-28.19l34,.06Z"/><path class="cls-3" d="M297.19,87.18H315V174H297.19Z"/><path class="cls-9" d="M306.61,74.34C301,74.35,296,69.69,296,64.58c.05-5.47,5.21-10.44,10.72-10.35,5.3.09,9.3,4.45,9.38,10.22A9.36,9.36,0,0,1,306.61,74.34Z"/><path class="cls-19" d="M63.87,192.14l11-33.74c.45-1.39.89-2.78,1.33-4.17q3.36-8.56,6.71-17.12a29.13,29.13,0,0,1,4.81,2.39c10.12,7.51,20.17,15.13,30.24,22.71,1.77,3.93-2.21,4.3-3.88,5.57-12.65,9.59-25.5,18.92-38.28,28.33a17.31,17.31,0,0,1-2.19,1.11c-2.67.91-5.36,1.74-8,2.6C65,197.26,64.43,194.7,63.87,192.14Z"/><path class="cls-20" d="M167.77,167.28c2.21,7.05,4.5,14.09,6.61,21.17.74,2.5,1.07,5.12,1.59,7.68-.82,5.42-4.55,3-7.12,2.31-2.14-.57-4-2.22-6-3.4-11.54-8.56-23.12-17.08-34.59-25.73-2.68-2-5-4.51-7.5-6.78.21-.45.3-1.06.65-1.31q17.61-12.61,35.25-25.15,4.51,13.11,9,26.22C166.32,164,167.09,165.62,167.77,167.28Z"/><path class="cls-21" d="M120.79,162.53c2.49,2.27,4.82,4.76,7.5,6.78,11.47,8.65,23.05,17.17,34.59,25.73-1.71.7-3.4,2-5.11,2q-37.34.19-74.66.05a55.57,55.57,0,0,1-7.33-1c12.78-9.41,25.63-18.74,38.28-28.33,1.67-1.27,5.65-1.64,3.88-5.57Z"/><path class="cls-22" d="M128.67,45.17l9.09,28c1.48,5.36,3,10.73,4.57,16.63H97.22c1.85-6,3.66-11.81,5.48-17.65q4.59-14.49,9.19-29c1.27-3,2.22-6.26,3.92-9a9,9,0,0,1,5-3.7c.81-.21,2.74,2.21,3.48,3.76C125.94,37.73,127.22,41.49,128.67,45.17Z"/><path class="cls-23" d="M120.79,162.53l-2.85-.32C107.87,154.63,97.82,147,87.7,139.5a29.13,29.13,0,0,0-4.81-2.39,4.16,4.16,0,0,1-.13-.86c1.52-5,3-10.06,4.55-15.1q4.32-14.37,8.6-28.77l46.86-.1c1,3.66,1.9,7.38,3.11,11,3.59,10.65,7.31,21.26,11,31.88a7.58,7.58,0,0,1-.17.93q-17.62,12.56-35.25,25.15C121.09,161.47,121,162.08,120.79,162.53Z"/><path class="cls-24" d="M156.86,135.14c-3.67-10.62-7.39-21.23-11-31.88-1.21-3.6-2.08-7.32-3.11-11q31.17-.07,62.32-.13c.64,0,1.29.16,3.32.43l-2.75,7.49q-19,14.09-38.08,28.19a19.07,19.07,0,0,0-1.8,1.69Z"/><path class="cls-25" d="M95.91,92.38q-4.29,14.39-8.6,28.77c-1.5,5-3,10.07-4.55,15.1Q64.51,123.1,46.24,110c-1.06-.76-2.22-1.37-3.33-2.06-3.12-2.45-6.42-4.72-9.28-7.44-1.35-1.29-2.88-3.75-2.48-5.15s3.1-3,4.79-3C55.93,92.14,75.92,92.3,95.91,92.38Z"/></g></g></svg>