<svg xmlns="http://www.w3.org/2000/svg" viewBox="0 0 1186.29 134"><defs><style>.cls-1{fill:#f06924;}.cls-2{fill:#f27523;}.cls-3{fill:#f17129;}.cls-4{fill:#f1712a;}.cls-5{fill:#f16f23;}.cls-6{fill:#f16f26;}.cls-7{fill:#f16f25;}.cls-8{fill:#f16c24;}.cls-9{fill:#f16d26;}.cls-10{fill:#f16c25;}.cls-11{fill:#f17225;}.cls-12{fill:#f17226;}.cls-13{fill:#f17025;}.cls-14{fill:#f16b25;}.cls-15{fill:#f16d27;}.cls-16{fill:#f27326;}.cls-17{fill:#f27428;}.cls-18{fill:#f27327;}.cls-19{fill:#f27426;}.cls-20{fill:#f27328;}.cls-21{fill:#f16f28;}.cls-22{fill:#f1712c;}.cls-23{fill:#f27729;}.cls-24{fill:#f2772c;}</style></defs><title>soundcloud</title><g id="Layer_2" data-name="Layer 2"><g id="Layer_2-2" data-name="Layer 2"><path class="cls-1" d="M165,134c-1.06-2.6-3-5.17-3-7.79-.28-11.06,0-22.14.07-33.21H308.91c1.37,16.07-9.51,34.34-26.05,39.13-1.68.48-3.27,1.24-4.91,1.87Z"/><path class="cls-2" d="M162,42c-.07-11-.32-21.92,0-32.87.05-1.82,2.16-4.34,4-5.18,3.8-1.79,8-2.69,12-3.95h22c6.21,2.07,12.67,3.59,18.57,6.32,15.87,7.35,27.49,19,33.65,35.62Z"/><path class="cls-3" d="M113,134c-.67-2.31-1.72-4.59-2-7-3.18-31.76-.36-63.53,0-95.29,0-2.84.34-5.77,3.91-5.78s3.89,2.9,4,5.74c.59,21.47,1.51,42.93,1.7,64.4.1,11-1,21.94-1.78,32.89-.12,1.7-1.21,3.33-1.85,5Z"/><path class="cls-4" d="M75,134c-.42-2.92-.92-5.83-1.25-8.76-2.76-24.74-.83-49.51-.28-74.26.1-4.66.12-9.33.61-13.95.17-1.62,1.62-3.11,2.48-4.66,1.11,1.53,3.09,3,3.18,4.59.93,15.77,2.07,31.56,2.09,47.34,0,15.08-1.17,30.17-2,45.25-.09,1.51-1.21,3-1.85,4.45Z"/><path class="cls-5" d="M162,42l90.2-.06,5.58,18.27c13.85-4.41,27.09-2.65,38.53,7.33,7.65,6.67,12.38,15,12.63,25.46H162Z"/><path class="cls-6" d="M587.58,56c-.23,12.62,1.39,25.2-2.27,37.78-5.45,18.72-19,26.7-37.16,24.72-18.54-2-28.61-13.62-30.84-34.1a67.83,67.83,0,0,1-.22-7c0-15.15,0-30.29,0-45.81h17.15c0,2,0,4,0,5.93.21,16.16-.13,32.34.84,48.45.73,12.08,10.22,18.49,21.63,16.1,7.27-1.52,12.49-7.75,13.21-16.18.45-5.29.56-10.61.73-15.91.15-4.66.17-9.32.24-14Z"/><path class="cls-7" d="M647.27,63.88,661.74,85V31.63h17v86.28c-4.42,0-8.86.11-13.28-.08a4.13,4.13,0,0,1-2.67-1.82q-16.73-25.4-33.32-50.87Z"/><path class="cls-8" d="M771.81,66c4.09,29.21-12.09,51.28-43.54,51.86-8.48.16-17,0-26,0V66h16.71v36c5.77-.35,10.73-.35,15.6-1,9.41-1.31,16.18-6.46,18.27-15.85,1.3-5.86.92-12.09,1.29-18.16Z"/><path class="cls-9" d="M1006.69,69c1.06,10.95,0,21.62-5,31.56-6.84,13.69-18.49,19.72-33.37,19.1s-25.49-8.22-31.47-22c-4-9.2-4.61-18.81-3.71-28.63h17.73c0,3.32-.26,6.68.18,9.94.59,4.44.91,9.22,2.83,13.12,3.55,7.21,9.82,11.08,18.18,10.55,8.66-.56,14.5-5.37,16.54-13.47,1.63-6.5,1.57-13.41,2.26-20.14Z"/><path class="cls-10" d="M1094.68,67a102.56,102.56,0,0,1-2.39,27.82c-4.39,18.92-22.62,25.56-36.85,23.74-19.35-2.47-29.3-13.91-31.07-35.63-.37-4.61,0-9.28.05-13.92h16.68c.3,5.8.26,11.64,1,17.39,1.2,10,8.11,16.2,17.48,16.27s16.25-6.31,17.35-16.37c.7-6.4.75-12.88,1.09-19.32Z"/><path class="cls-9" d="M396.06,70.75c19.82,6.46,18.31,33,7,42.33-13.66,11.26-46,11.34-59.13-8.77l12-11c5.31,5.06,11.18,8.72,18.49,9a57.46,57.46,0,0,0,10.9-.44c4.21-.68,7.32-2.86,7.8-7.73s-2.26-7.5-6.39-8.8c-7.22-2.26-14.58-4-21.76-6.42-3.09-1-5.87-3-8.79-4.52,2.95-.79,5.89-2.17,8.86-2.27,8.65-.31,17.32,0,26-.17C392.7,71.92,394.38,71.17,396.06,70.75Z"/><path class="cls-11" d="M1117,75V31.74c13.51.54,26.76,0,39.64,1.84,19.37,2.83,29.57,16.2,29.55,35.94,0,1.83-.15,3.65-.23,5.48h-16.72c-.12-1.81-.16-3.64-.38-5.44-.94-7.52-3.24-14.31-10.58-18-7.7-3.9-15.92-3.13-24.56-3.07V75Z"/><path class="cls-12" d="M425,75c1.15-7.14,1.29-14.64,3.65-21.36,5.61-16,20.1-24.73,36.11-23.08,18.66,1.92,30.7,13.17,34,32.09.72,4.05.68,8.23,1,12.35H483.07c-1.1-5.5-1.53-11.25-3.46-16.44-2.75-7.39-8.74-11-16.77-10.93s-14,3.48-16.75,10.93c-1.89,5.21-2.31,10.94-3.38,16.44Z"/><path class="cls-13" d="M647.27,63.88,629.5,65.14l-2.64-3.38v55.89H610V31.24c4.76,0,9.22-.12,13.67.08a4.67,4.67,0,0,1,3.19,1.77C633.77,43.31,640.5,53.61,647.27,63.88Z"/><path class="cls-14" d="M1117,75h16.72v27.61c7.47-1,14.45-1,20.65-3.11,11.18-3.88,14.54-13.5,14.87-24.5H1186c2.84,22.46-14.71,38.63-34.06,42a49.2,49.2,0,0,1-7.92.86c-8.8.11-17.6,0-27,0Z"/><path class="cls-14" d="M483.07,75H499.8c0,16-4.69,29.78-18.54,39.16-17.87,12.11-44.26,4.37-52-15.91C426.48,91,426.35,82.78,425,75h17.69c.9,5.38,1,11,2.87,16.08,2.64,7.28,8.6,11.29,16.48,11.54,7.36.24,13.81-2.38,16.62-9.49C480.94,87.4,481.67,81.07,483.07,75Z"/><path class="cls-15" d="M805.6,67.11c.45,6.9.07,14,1.59,20.66,1.76,7.72,7,13,15.37,14.48,8.22,1.4,14.19-2,18.85-8.42.47-.66,1-1.3,1.88-2.46l13.49,8c-3.36,11.47-16.1,20-30.25,20.45-19.8.62-35.28-12.2-38.36-32.56-1-6.61-.29-13.49-.35-20.25Z"/><path class="cls-16" d="M950.91,69H933.18c.92-18,11-32.59,25.45-36.95,22.28-6.72,42.72,6.27,47.22,30.05.43,2.27.57,4.6.84,6.9H990.9c-.38-1.61-.75-3.22-1.12-4.83-2.49-10.76-9.07-16.52-18.87-16.52S954.53,53.37,952,64.15C951.66,65.77,951.28,67.38,950.91,69Z"/><path class="cls-17" d="M718.93,66H702.22V31.29c14.86,1,29.55.78,43.74,3.33,15.3,2.74,24.66,15.64,25.85,31.39l-17.72,1c-4.82-15.76-17.89-22.5-35.16-17.66Z"/><path class="cls-18" d="M396.06,70.75c-1.68.42-3.36,1.17-5.06,1.19-8.65.12-17.32-.14-26,.17-3,.1-5.91,1.48-8.86,2.27-12.64-9.48-11.5-29.51,2.17-38.26,14.62-9.35,40.48-5,51.35,8.48L397.58,56.47A27.31,27.31,0,0,0,375,48.79c-1.63.19-3.66.23-4.74,1.19-1.8,1.64-4.05,3.91-4.14,6s1.7,5.42,3.55,6.27c4.62,2.14,9.76,3.14,14.67,4.67C388.24,68.14,392.14,69.47,396.06,70.75Z"/><path class="cls-14" d="M890.69,68c.07,5.49.15,11,.18,16.48,0,5.28,0,10.56,0,16.18h33.77v16.89H873V68Z"/><path class="cls-19" d="M805.6,67.11,787.82,67c.94-17.76,14.6-33.55,31.12-36,18.09-2.64,32.82,4.47,38,18.58l-13.71,6.51c-5.78-3.11-10.32-6.91-15.44-8-9.43-2-16.61,3.12-20.33,12.82C806.69,62.93,806.21,65.05,805.6,67.11Z"/><path class="cls-20" d="M1041.1,69h-16.68V31.49h16.68Z"/><path class="cls-18" d="M890.69,68H873V31.51h17.68Z"/><path class="cls-18" d="M1094.68,67H1078V30.68h16.71Z"/><path class="cls-17" d="M587.58,56h-16.7V30.56h16.7Z"/><path class="cls-3" d="M124.22,72.36q0-17.72,0-35.43c0-1.33.08-2.66.18-4,.2-2.68,1-5.53,4.16-4.87,1.45.3,3,3.12,3.34,5a75.09,75.09,0,0,1,.61,11.44c.44,27.43,2.71,54.87-.34,82.29-.3,2.73-.21,5.9-3.7,6-3.84.15-4.15-3.24-4.26-6.1-.64-18.12-1.2-36.23-1.8-54.34Z"/><path class="cls-21" d="M144.88,47q-.07,39.89-.19,79.77c0,2.87-.43,6.24-4.28,6.06-3.48-.17-3.37-3.34-3.66-6.07-2.84-26.57-1.16-53.16-.45-79.74Z"/><path class="cls-4" d="M106.46,70.6q-.84,27.91-1.7,55.83c0,1.33.07,2.83-.51,3.92a5.08,5.08,0,0,1-3,2.42c-.61.12-2.08-1.48-2.31-2.5a35.54,35.54,0,0,1-.74-7.43q.08-43.14.27-86.29a37.68,37.68,0,0,1,.42-7.45c.31-1.49,1.63-2.78,2.49-4.15,1.07,1.4,2.55,2.67,3.09,4.25s.26,3.63.26,5.45q0,18,0,35.92Z"/><path class="cls-21" d="M158.67,56c.9,23.94,1.59,47.88-.87,71.77-.19,1.83-2.31,3.46-3.54,5.18-1.41-1.72-3.88-3.34-4.06-5.18-2.29-23.89-1.83-47.83-.84-71.76Z"/><path class="cls-4" d="M58.75,97.13c.93-17.48,1.7-32.08,2.49-46.68A5.73,5.73,0,0,1,61.55,48,23.9,23.9,0,0,1,64,44.91c.79,1,2.18,2,2.27,3.14.65,7.44.86,14.93,1.51,22.37a287.26,287.26,0,0,1-1,56.7,9.57,9.57,0,0,1-.56,3.41c-.54,1-1.71,1.62-2.6,2.41-.69-.81-1.85-1.55-2-2.44-.55-3.94-.85-7.92-1.17-11.89C59.79,110.5,59.17,102.39,58.75,97.13Z"/><path class="cls-21" d="M92.69,57C93.8,81,94.56,105,92,128.87c-.15,1.44-1.66,2.73-2.54,4.09-1.09-1.36-3-2.66-3.14-4.11A467,467,0,0,1,85.89,57Z"/><path class="cls-22" d="M47.25,98c.59-10,1.11-19.95,1.86-29.91.09-1.11,1.53-2.12,2.34-3.17.85,1,2.28,1.85,2.46,2.93,3.41,20.73,2.75,41.42-.91,62.05-.2,1.07-1.28,2-1.94,3-.69-1.15-1.9-2.26-2-3.45C48.36,118.91,47.84,108.43,47.25,98Z"/><path class="cls-22" d="M39.67,61.92a39.31,39.31,0,0,1,1.2,4.84c2.44,20,2.87,40.07.06,60.12-.1.65.1,1.42-.18,2a28.3,28.3,0,0,1-2,3c-.67-1-1.78-1.86-1.93-2.9-.64-4.6-.8-9.27-1.5-13.87-2.5-16.65-.11-33.14,1.45-49.66.11-1.25,1-2.43,1.5-3.64Z"/><path class="cls-23" d="M158.67,56h-9.31c.24-14.27.38-28.54.88-42.79.06-1.55,2.19-3,3.35-4.53,1.43,1.5,4,3,4.11,4.52C158.28,27.47,158.41,41.74,158.67,56Z"/><path class="cls-22" d="M27.14,63.25c4,22.49,4.64,45,.37,67.69C22.22,126,21.68,72.17,27.14,63.25Z"/><path class="cls-22" d="M13.8,125.82a128.17,128.17,0,0,1,0-55.68A97.54,97.54,0,0,1,13.8,125.82Z"/><path class="cls-24" d="M144.88,47l-8.58,0c.19-8.94.19-17.9.74-26.81.1-1.73,2.34-3.32,3.6-5,1.32,1.65,3.71,3.24,3.8,4.95C144.91,29.1,144.79,38.06,144.88,47Z"/><path class="cls-24" d="M92.69,57h-6.8c.09-8.62,0-17.24.41-25.85.07-1.47,1.93-2.87,3-4.31.92,1.45,2.57,2.85,2.65,4.34C92.39,39.78,92.48,48.4,92.69,57Z"/><path class="cls-24" d="M2.3,78.72c4.47,13.3,4.42,25.12.06,36.93C-.74,103.83-.81,92,2.3,78.72Z"/></g></g></svg>