<svg xmlns="http://www.w3.org/2000/svg" viewBox="0 0 2308 692.18"><defs><style>.cls-1{fill:#1ed660;}.cls-2{fill:#2cd96a;}.cls-3{fill:#1fd660;}.cls-4{fill:#20d661;}.cls-5{fill:#21d762;}.cls-6{fill:#1fd661;}.cls-7{fill:#000100;}.cls-8{fill:#000101;}.cls-9{fill:#23d763;}</style></defs><title>spotify</title><g id="Layer_2" data-name="Layer 2"><g id="Layer_2-2" data-name="Layer 2"><path class="cls-1" d="M0,326.16c.94-7.51,1.9-15,2.83-22.52C10.91,238.4,35.5,180,76.87,129,127.17,67,191.23,25.8,269.31,9c113.85-24.51,216.28,1.07,304.76,77.06,60.85,52.27,98.84,119,112.42,198,18.76,109.24-8.09,207-80.93,290.86C554.66,633.55,490.35,671,414,685.3c-114.49,21.38-216.12-7-302.57-85.3C53.86,547.88,19.18,482.36,5.35,406,3.16,393.87,2.4,381.52.94,369.29A18.71,18.71,0,0,0,0,366.16Zm286.78-143.8c-21.58,1.56-43.19,2.78-64.73,4.78a462.94,462.94,0,0,0-91,17.51c-18.06,5.44-27.72,22.85-22.66,40.24s22.77,27.18,40.69,21.88c38.56-11.4,78.09-16.57,118.08-18.32a637.2,637.2,0,0,1,121.58,5.94c57.35,8.49,112.65,23.46,163.2,53a30.12,30.12,0,0,0,22.23,3.23c13.79-3,23.17-13.32,25.43-27.52,1.95-12.27-4.69-25.41-16.43-32.31-29-17.05-59.79-29.87-91.87-39.69C424.67,190.7,356.33,182.7,286.78,182.36ZM551.31,394.64c-.36-14.23-5.07-22-13.84-27.3a404,404,0,0,0-77.11-36.2c-29.37-10.24-59.31-18.26-90.26-22-16.73-2-33.42-4.49-50.21-5.78C289,301,258.2,302.52,227.43,306c-26.12,3-51.64,8.5-76.94,15.51-13.15,3.64-26.25,20.64-17.32,38.53,5.06,10.15,18.52,17.27,28.55,14.26,38.33-11.52,77.63-17,117.55-17.79a453.93,453.93,0,0,1,46.2,1.66c15.37,1.28,30.67,3.59,45.93,5.9,29.49,4.46,58.25,12.06,85.67,23.73,18.47,7.86,36.43,17.08,54.05,26.73C530,424.87,552,409.71,551.31,394.64Zm-259,20c-14,.8-27.94,1.45-41.88,2.44a563.63,563.63,0,0,0-88.17,13.85c-12.29,2.87-19.43,13.82-17,25.36,2.54,12,14,19.41,26.59,16.61a613.54,613.54,0,0,1,85.26-13.11c42.64-3.33,84.84-1,126.51,9A322.57,322.57,0,0,1,474.75,506c11.24,6.72,24.27,3.35,30.4-7.28s2.69-23-8.36-29.7c-6.26-3.8-12.62-7.45-19.1-10.85C419.66,427.73,357.46,415.17,292.32,414.63Z"/><path class="cls-2" d="M2308,309.16c-.64,1.63-1.36,3.23-1.89,4.89-5.74,18.1-23.31,28.89-42.45,26.05-17.66-2.61-31.42-18.88-31.43-37.12A38.27,38.27,0,0,1,2265,265.33a37.65,37.65,0,0,1,41.27,26.43c.47,1.5,1.17,2.93,1.77,4.4Zm-4.11-6.46A33.8,33.8,0,1,0,2270,336.81,33.94,33.94,0,0,0,2303.89,302.7Z"/><path class="cls-3" d="M1946.77,265.85h5.94c27.33,0,54.66.1,82-.1,4.62,0,6.76,1.59,8.37,5.82q29.27,76.92,58.83,153.74c.59,1.51,1.23,3,2.26,5.54.85-2.14,1.38-3.38,1.83-4.65q27-77,53.83-154c1.63-4.68,3.76-6.58,8.85-6.49,16.49.3,33,.08,49.49.12,6.26,0,7.44,1.75,5.13,7.71q-47.1,121.65-94.37,243.21a185.38,185.38,0,0,1-14.52,28.36c-13.43,22.11-33.55,33-59.31,33.74a117.27,117.27,0,0,1-59.18-13.45c-4-2.1-4.78-4.41-2.92-8.38,5.49-11.76,10.77-23.61,16.18-35.4,2.36-5.13,3.51-5.44,8.86-2.84,10.81,5.25,22,8.74,34.2,6.4,8.56-1.64,20.41-13.7,21.44-21.86.16-1.33-.65-2.85-1.21-4.2q-36.57-87.72-73.1-175.44c-1.32-3.16-2.74-4.6-6.44-4.53-14.8.25-29.62.1-45,.1-.1,2.19-.27,4.09-.27,6q0,86.49,0,173c0,8.06-.53,8.6-8.37,8.6h-45.49c-6.83,0-7.62-.82-7.63-7.84V319.28c-7.47,0-14.72,0-22,0-7,0-7.47-.41-7.48-7.24q0-19.76,0-39.5c0-6.76.58-7.3,7.53-7.31h21.53c.41-8.52.22-16.7,1.32-24.7,1.17-8.51,2.62-17.2,5.56-25.22,9.47-25.78,29.51-38,55.85-41,18.56-2.1,36.86-.2,54.89,4.78,4,1.11,5.81,2.86,5.73,7.22-.22,13.33-.06,26.66-.09,40,0,5.87-1.68,6.77-7.38,5.64-9.57-1.9-19.21-4.23-28.9-4.65-14.82-.65-22.52,6.24-25.17,20.78-.71,3.9-.57,8-.75,11.94C1946.7,261.76,1946.77,263.55,1946.77,265.85Z"/><path class="cls-3" d="M1126.12,296.12c5.4-5.12,9.88-10,15-14.13,31.91-25.37,67.08-27.12,103.51-12.33,29.64,12,49.88,34.26,60.39,64.31,14.5,41.49,13.28,82.68-8.12,121.72-26.16,47.7-85.57,68.73-134.22,48.55a95.17,95.17,0,0,1-30.5-20.45,70.24,70.24,0,0,1-4.7-5.71l-1.39.76v4.7q0,43.48,0,87c0,6.32-.57,6.93-6.79,6.94-16,0-32-.09-48,.07-4.7,0-6.46-1.66-6.45-6.45q.13-149.46.07-298.91c0-5.78.88-6.68,6.63-6.7q24,0,48,0c5.74,0,6.52.87,6.54,6.77C1126.14,279.9,1126.12,287.57,1126.12,296.12Zm-1.18,84.18c0,18.14,2.29,29,7,39.35,11.22,24.62,33.44,38.42,60.53,37.58,24.39-.75,45.14-16,54.11-40.49,7.67-20.95,7.61-42.17-.87-62.89-15.87-38.82-62.59-51.48-94.78-25.68A68.41,68.41,0,0,0,1124.94,380.3Z"/><path class="cls-3" d="M920.28,183.92c41.17,1.38,78.07,13.54,110.5,38.83,5.13,4,5.26,4.67,1.43,10.08q-12.83,18.16-25.71,36.28c-3.41,4.78-4.37,4.92-9.24,1.41-18.55-13.39-38.4-24-61.25-27.82-15.15-2.56-30.21-2.81-44.66,3.5-15.26,6.65-22,19-19.41,35.37,1.37,8.77,6.72,14.67,14,19,13,7.77,27.61,11.32,42,15.57,19.59,5.79,39.17,11.63,58.55,18.06,6.54,2.18,12.66,5.9,18.64,9.48,31.44,18.8,42.13,47.45,38.37,82.57-4.77,44.44-36.51,73.81-81.43,81.67-61.19,10.72-115.29-5.84-162.49-45.84-3.22-2.73-3.45-5.16-.67-8.41C809,441.91,819,430.08,828.76,418.09c3.12-3.81,5.7-3.54,9.15-.58,14.74,12.67,30.64,23.59,49.11,30.1,21.93,7.73,44.39,10.63,67.2,4.44,13.8-3.75,24.32-11.53,27.24-26.73,2.5-13-1.91-23.87-13.08-31-13.4-8.54-28.64-12.37-43.8-16.16-20.82-5.21-41.7-10.17-61.4-19-4.54-2-9-4.32-13.34-6.75-26.83-15-39.89-38.29-40.72-68.66-1.3-47,27-83.1,74.74-94.45C895.76,186.5,908.13,185.67,920.28,183.92Z"/><path class="cls-3" d="M1456.65,260.56c62.23.24,111.89,37.66,126.8,93.48,19.21,71.91-28.87,145.28-102.5,156.15C1435,517,1394.78,505.13,1363,470.64c-60.13-65.29-34.5-178.37,60.87-205.28a106,106,0,0,1,14.63-3.08C1445.44,261.36,1452.43,261,1456.65,260.56Zm69.87,122.82c-1-5.1-2-13.95-4.69-22.23-8.63-26.62-31.79-44.12-59.51-45.8-27.12-1.65-51.75,12.82-63,37.29-6.66,14.43-8.22,29.58-6.35,45.34,5.39,45.33,52.73,72.89,94.1,54C1514.52,439.45,1525.23,416,1526.52,383.38Z"/><path class="cls-4" d="M1621.21,265.46V210.3c0-8.57.41-9,9-9q22.74,0,45.48,0c5.93,0,7,1.07,7,6.95q0,25.5,0,51v6.2h55.55c6.3,0,7,.69,7,6.78,0,13.66-.09,27.33.07,41,0,4.54-1.68,6.18-6.21,6.13-16.83-.17-33.66-.07-50.48-.07H1683c-.1,2.09-.23,3.71-.24,5.33q0,51.72,0,103.46c0,20.55,7.38,28.2,27.87,26.79,8.92-.6,17.74-3.84,26.41-6.51,5.47-1.68,7.53-.86,7.57,4.95.09,13.16,0,26.33.07,39.49,0,3.25-1.27,5.16-4.16,6.63-25.8,13.11-52.66,15.14-79.93,6.34-22.39-7.22-33.71-24.48-37.46-46.95A148.74,148.74,0,0,1,1621.3,435c-.19-36.49-.09-73-.09-109.46v-6.21c-7.69,0-15.12,0-22.55,0-6.34,0-6.83-.5-6.84-6.85q0-20,0-40c0-6.29.67-7,6.81-7C1605.93,265.44,1613.23,265.46,1621.21,265.46Z"/><path class="cls-5" d="M1831.77,386.16q0,56.49,0,113c0,6.89-.82,7.69-7.79,7.7q-23.49,0-47,0c-5.62,0-6.77-1.14-6.77-6.7q0-114,0-228c0-5.56,1.14-6.67,6.77-6.69q23.51,0,47,0c7,0,7.79.8,7.79,7.7Q1831.78,329.65,1831.77,386.16Z"/><path class="cls-6" d="M1801.44,159.21c21.06.07,38.55,17.76,38.26,38.69a38.37,38.37,0,1,1-38.26-38.69Z"/><path class="cls-7" d="M286.78,182.36c69.55.34,137.89,8.34,204.53,28.73,32.08,9.82,62.9,22.64,91.87,39.69,11.74,6.9,18.38,20,16.43,32.31-2.26,14.2-11.64,24.48-25.43,27.52A30.12,30.12,0,0,1,552,307.38c-50.55-29.53-105.85-44.5-163.2-53a637.2,637.2,0,0,0-121.58-5.94c-40,1.75-79.52,6.92-118.08,18.32-17.92,5.3-35.66-4.56-40.69-21.88s4.6-34.8,22.66-40.24a462.94,462.94,0,0,1,91-17.51C243.59,185.14,265.2,183.92,286.78,182.36Z"/><path class="cls-8" d="M551.31,394.64c.67,15.07-21.36,30.23-40.19,19.92-17.62-9.65-35.58-18.87-54.05-26.73-27.42-11.67-56.18-19.27-85.67-23.73-15.26-2.31-30.56-4.62-45.93-5.9a453.93,453.93,0,0,0-46.2-1.66c-39.92.77-79.22,6.27-117.55,17.79-10,3-23.49-4.11-28.55-14.26-8.93-17.89,4.17-34.89,17.32-38.53,25.3-7,50.82-12.54,76.94-15.51,30.77-3.51,61.58-5.08,92.46-2.71,16.79,1.29,33.48,3.74,50.21,5.78,30.95,3.78,60.89,11.8,90.26,22a404,404,0,0,1,77.11,36.2C546.24,372.67,551,380.41,551.31,394.64Z"/><path class="cls-8" d="M292.32,414.63c65.14.54,127.34,13.1,185.37,43.56,6.48,3.4,12.84,7.05,19.1,10.85,11,6.7,14.46,19.12,8.36,29.7s-19.16,14-30.4,7.28a322.57,322.57,0,0,0-91.1-37.27c-41.67-10-83.87-12.3-126.51-9a613.54,613.54,0,0,0-85.26,13.11c-12.61,2.8-24-4.59-26.59-16.61-2.45-11.54,4.69-22.49,17-25.36a563.63,563.63,0,0,1,88.17-13.85C264.38,416.08,278.36,415.43,292.32,414.63Z"/><path class="cls-9" d="M2288.57,320.84c-5.32,1.21-9.4,1.09-11.75-4.09-.6-1.34-1.9-2.37-2.5-3.71-2.35-5.31-6.44-6.05-11.92-4.55V321h-7.08V282.3c7.06,0,14.18-.43,21.22.13,6.31.5,10.14,4.68,11.05,10.45s-1.53,9.92-8.7,14ZM2262.49,301c4.31,0,8.28.33,12.16-.11a5.55,5.55,0,0,0,5.28-6.1c-.11-3.52-2.22-5.53-5.62-5.73-3.87-.23-7.76-.05-11.82-.05Z"/></g></g></svg>