<svg xmlns="http://www.w3.org/2000/svg" viewBox="0 0 3802.27 851.04"><defs><style>.cls-1{fill:red;}.cls-2{fill:#232323;}.cls-3{fill:#69886d;}.cls-4{fill:#586259;}.cls-5{fill:#5e7d62;}.cls-6{fill:#959e95;}.cls-7{fill:#7a847b;}.cls-8{fill:#576158;}.cls-9{fill:#6c766d;}.cls-10{fill:#739176;}.cls-11{fill:#6b786c;}.cls-12{fill:#617a63;}.cls-13{fill:#6e8c71;}.cls-14{fill:#5f6b60;}.cls-15{fill:#788279;}.cls-16{fill:#d16b62;}.cls-17{fill:#879188;}.cls-18{fill:#fffdfd;}.cls-19{fill:#47704c;}.cls-20{fill:#929c93;}</style></defs><title>youtube</title><g id="Layer_2" data-name="Layer 2"><g id="Layer_2-2" data-name="Layer 2"><path class="cls-1" d="M2,338.87c1.56-46.61,4.68-93.13,10.81-139.36C15.56,178.77,19,158,24.17,137.73,41,72.47,83.42,33.15,149.43,21.51c35.64-6.28,71.95-9.53,108.1-11.93C308.35,6.19,359.3,4.86,410.2,2.65l33-1.17,6.84-.2L470.8,1C542.11.66,613.43-.49,684.74.23,751.37.91,818,3,884.6,5.51c51.27,1.92,102.51,5,153.43,11.73,21.8,2.87,43.6,6.06,63.83,15.48,48.51,22.56,78.05,60.47,88.18,112.63,6,31,10.77,62.39,13.78,93.83A1920,1920,0,0,1,1212,467.83c-1.3,54.63-4,109.22-10,163.57-3.24,29.46-6.68,59-15.15,87.51-17.81,60-57.74,97-118.92,109.76a547.9,547.9,0,0,1-73.22,9.75c-53.83,3.74-107.76,6.07-161.66,9l-25.71,1.18-6.61.23-11.23.24-26.46.35-43.67,1.19-8.62.21-21.25.25H523.24l-22.8-.28-7.23-.17-43.49-1.19L423.24,849l-12.82-.29-6.57-.21-24.12-1.14c-54.21-2.91-108.48-5.07-162.62-9-26.81-2-53.89-5.15-80-11.48C78,812.48,40.53,774.3,24.55,715.63c-9-32.86-12.76-66.69-15.92-100.51A2085,2085,0,0,1,.34,385.51q.13-8.44.29-16.89l.24-6.17Q1.44,350.66,2,338.87ZM484.88,608.15,799.15,426a35.15,35.15,0,0,0-3.74-3.07Q641.12,333.7,486.78,244.53c-.21-.12-.64.05-.94.16a7.9,7.9,0,0,0-1,.55Z"/><path class="cls-2" d="M3328.07,246.73c5.89,1.05,11.82,2,17.68,3.17,29.93,6.09,49.49,24.58,61.58,51.85,9,20.27,13.88,41.69,16.67,63.53,2.61,20.43,4.36,41,6.1,61.49.64,7.61.1,15.32.22,23,.59,38.95,2.58,78,1.48,116.86-1.23,43.8-2.68,87.8-13.65,130.66-5.12,20.06-11.68,39.53-23.28,57.05-18.56,28-44.56,41.94-78,42.7-25,.57-48.21-5.07-69.37-18.52a98.78,98.78,0,0,1-31.62-31.4c-1.69-2.71-3.56-5.31-6.55-9.75-7.8,17.23-8.45,34.42-14.1,50.09-7.08,2.25-84.3,2.75-95.27.62-2.3-7.3-2.74-743-.24-754.11,3.28-.18,6.83-.55,10.39-.56q44.51-.07,89,0c12.86,0,12.91,0,12.91,12.64q0,128.49,0,257v9.8l1.67.81c1.75-2.54,3.58-5,5.25-7.62,19.66-30.62,46.61-50.69,82.89-57.27,2.94-.54,5.85-1.29,8.78-1.93Zm-116,284.72c0,47,.53,94-.33,140.93-.26,13.93,5.73,22.64,15.7,30.19,8.49,6.43,18.31,9.44,28.78,10.27,18.91,1.49,34.28-7.35,41.31-25a174,174,0,0,0,8.93-31.58c5.42-28.46,5.1-57.4,5.76-86.21.53-23.64.17-47.31.16-71,0-17.58.41-35.18-.29-52.73-.72-18.24-1.76-36.54-4.17-54.62a166.17,166.17,0,0,0-9.25-37.61c-8.2-21.27-29.24-29-50.21-20-11.09,4.79-19.15,13.17-26,22.76a55.32,55.32,0,0,0-10.6,33.58C3212.3,437.48,3212.05,484.46,3212.05,531.45Z"/><path class="cls-2" d="M2701.55,259c3.51-.64,7-1.81,10.53-1.83q48.69-.21,97.38,0c3.49,0,7,1.36,10.44,2.09q0,188.91.11,377.84c0,6.66.23,13.32.35,20a92,92,0,0,0,3.5,33.53c5.67,18.71,16.46,26.65,35.6,24.39,16.06-1.89,29.75-9,39-23l2-2.94v0l2.07-2.27,0-.88c5-4,3.77-9.62,3.77-14.82q.06-200.07,0-400.13c0-4.65.24-9.3.37-13.95l117.43-.05c.06,3.33.18,6.65.18,10q0,256.52,0,513c0,3-.1,6-.16,9-27.95.08-55.89.22-83.84.18-7.78,0-8.5-1-9.82-9.29q-3.9-24.58-8-49.14c-.34-2-1.57-3.86-3-7.29-2.42,3.37-4,5.31-5.31,7.43-9.1,14.77-19,28.79-32.55,40.05-19.88,16.57-42.54,25.71-68.43,26.15-10.94.18-22.06.39-32.81-1.28-34.25-5.32-55.78-26.18-67.23-58.06-6.33-17.6-9.13-36-10.63-54.59-.37-4.62-1.31-9.19-2-13.78l.09-.24c.31-1.33.61-2.65.92-4,.09-3.65.26-7.31.26-11q0-192.11,0-384.23C2701.83,266.33,2701.65,262.67,2701.55,259Z"/><path class="cls-2" d="M2086.65,659.22c.56-4.2,1.6-8.41,1.61-12.61q.12-187.47.07-374.94V257.86c4.54-.29,8.06-.72,11.59-.72q47-.08,94,0c12,0,12.19.21,12.19,12.39q0,185,.1,369.94c0,14.27,1.19,28.55,2,42.82a37.25,37.25,0,0,0,1.64,7.8c6.06,21.69,20.75,29.19,42.09,23.88,18.24-4.55,32.4-15.25,40-33.19.13-4.32.39-8.64.39-13q0-198.39,0-396.79c0-4.66.21-9.32.31-14h117.4c.09,4,.27,8,.27,12q0,255,0,510.05c0,3.33-.1,6.65-.15,10h-90.75c-6.3-21-6.67-43-12-63.94l-2.65-.51c-1.76,2.52-3.66,5-5.24,7.57-9.13,15.23-19.51,29.39-33.67,40.44-19.46,15.2-41.19,24.42-66.13,24.54-11.61,0-23.42.18-34.81-1.7-32.16-5.28-52.87-24.82-64.36-54.76-7.59-19.77-10.76-40.41-12-61.44-.41-6.63-1.34-13.22-2-19.83Z"/><path class="cls-2" d="M1872.28,246.87c21.49,2.35,42.91,4.72,63.12,13.49,29.67,12.87,49.79,35,63.15,63.79,10.88,23.45,16.54,48.42,19.77,74q2.81,22.22,4.77,44.55c.81,9.21,1.12,18.49,1.15,27.74.13,35.32.8,70.65-.16,106-1,35.79-3.32,71.58-11.82,106.6-5.38,22.15-13.33,43.15-26.43,62.1-16.09,23.29-38.16,38.2-65,45.18a241.49,241.49,0,0,1-125.22-.41c-37.32-10.05-62.51-34.31-77.9-69.06-11.3-25.51-16.2-52.72-19.05-80.28-1.85-17.84-3-35.76-4.47-53.64.07-21.6.18-43.2.18-64.8,0-20.27-.11-40.53-.18-60.8,2.74-32.08,4.26-64.29,12.2-95.72,4.67-18.47,11-36.28,20.47-52.83,18.1-31.48,45.34-50.92,80.38-59.1,14.17-3.31,28.83-4.53,43.27-6.7Zm-57.51,377.74c.67,12.59.72,25.26,2.2,37.75,1.52,12.86,4.14,25.59,10.47,37.26,12.46,23,43.48,23,57.3,8.41,7.4-7.83,11.34-17.17,13.74-27.29,4.79-20.16,6.19-40.63,6.08-61.36-.3-60.31.12-120.61-.09-180.92,0-16.93-.76-33.9-2.1-50.79-1.17-14.63-4.59-28.8-11.67-42-12.11-22.6-49.16-22.7-60.48-2.42-2.26,4.05-4.74,8.08-6.26,12.42-7.45,21.29-9.39,43.4-9.19,65.79Z"/><path class="cls-2" d="M1410.2,339.05c-.49-1.34-1-2.68-1.49-4-2.69-8.37-2.34-17.73-8.21-25.06,0,0,.21-.31.21-.32l-6.51-28.6c-.49-1.34-1-2.68-1.49-4-2.69-8.37-2.34-17.73-8.21-25.06l.21-.32-6.51-28.6c-.49-1.34-1-2.68-1.49-4-2.69-8.37-2.34-17.73-8.21-25.06l.21-.32-6.51-28.6c-.49-1.34-1-2.68-1.49-4-2.69-8.37-2.34-17.73-8.21-25.06l.21-.32-6.51-28.6c-.49-1.34-1-2.68-1.49-4-2.69-8.37-2.34-17.73-8.21-25.06l.21-.32c-.55-5.15-1.09-10.29-1.7-16h114.52c1.68,4.88,3.17,9.23,4.66,13.58,2.11,11.43,4,22.92,6.37,34.29,11.2,52.73,22.88,105.35,33.75,158.15,9.86,47.89,18.81,96,28.46,143.91.87,4.34-.74,10.16,5.09,13.22,4.11-2.85,3.37-7.37,4.1-11,12.58-61.6,24.64-123.32,37.49-184.88,10.67-51.13,22.09-102.1,33.46-153.08,3.72-16.69,1.66-14.73,17.68-14.77,30-.07,60,0,90,0h12.13c-2.7,10.21-4.87,18.83-7.26,27.39Q1677.74,223.63,1640,358.76c-16.86,60.27-33.87,120.5-50.54,180.82a86.72,86.72,0,0,0-3.24,22.56c-.24,71.33-.14,142.66-.17,214,0,3.91-.34,7.82-.54,12-3.06.43-5.3,1-7.53,1q-52,.07-104,0a49.42,49.42,0,0,1-5-.48q-.12-73.44-.21-146.89c0-27.65,0-55.29,0-82.94,0-6,.23-12.06-4.27-16.93-.16-3,.18-6.05-.58-8.84-7.83-28.81-15.84-57.58-23.84-86.35a26,26,0,0,0-1.62-3.63q-3-8.58-5.92-17.16s.21-.31.21-.32l-6.51-28.6c-.49-1.34-1-2.68-1.49-4-2.69-8.37-2.34-17.73-8.21-25.06,0,0,.21-.31.21-.32Z"/><path class="cls-2" d="M3484.32,453.12l.12-5.7q.89-7.17,1.79-14.32c2.1-16.14,3.83-32.33,6.41-48.39,3.55-22.1,9.48-43.59,19-63.92,18.61-39.65,50.69-61.74,93-69.26,15.64-2.78,31.76-4.5,47.59-4.09,24.25.61,48.42,3.25,71.24,13,21.34,9.09,37.52,23.65,49.1,43.62,12.24,21.12,18,44.26,21.68,68.08s4.6,47.57,6.4,71.43c2.71,36,.74,71.91,1.58,107.85.07,3.27,0,6.55,0,10.93-4.73.33-8.56.82-12.39.83q-88,.08-176,0h-12.28c-.46,3.67-1.12,6.22-1.05,8.75.37,13.63,2.24,27.37,1,40.83-1.09,11.76-.11,23.22.79,34.71,1.08,13.85,2.53,27.88,5.89,41.31,4.43,17.65,17,27.68,32,28.44,23.4,1.17,36.21-3.73,45.28-24.53,7.28-16.68,8.86-34.7,9-52.78,0-3.6,0-7.21,0-11.43,12.05-3.14,23.1,1.21,34.22,1,10.92-.24,21.88,1.14,32.83,1.75,11.17.63,22.35,1.2,33.29,1.79,3.38,10.13,2.23,19.25,2.11,28.55a177.21,177.21,0,0,1-6.25,43.16c-10.29,38.81-34.58,65.33-71.68,80.17-19,7.61-39,10.32-59.33,12.38-25.57,2.59-50.3-.88-74.64-7.81-39.19-11.17-64.17-37.59-78.42-75-10.5-27.59-15.92-56.26-18.51-85.56-.41-4.62-1.27-9.21-1.91-13.81q-.3-6.74-.59-13.46l-.93-7.06c.42-2.9,1.19-5.81,1.19-8.71q.12-61.57,0-123.14C3485.93,459.48,3484.88,456.3,3484.32,453.12Zm204.48,38c.47-1.57,1.34-3.14,1.34-4.71.05-23.92.16-47.84-.13-71.76a186.12,186.12,0,0,0-2-26.81c-2-12.77-4.55-25.5-7.77-38a27.91,27.91,0,0,0-14.46-18.3c-24.5-12.81-50-2.39-57.93,23.89a42,42,0,0,0-1.9,7.74c-1.9,18.49-3.78,37-5.36,55.5-.33,3.89.93,7.89.89,11.83-.2,18.64-.64,37.28-.87,55.92,0,1.56.87,3.14,1.33,4.71,2.48.64,5,1.84,7.43,1.86q36,.21,72,0C3683.86,492.92,3686.33,491.72,3688.8,491.08Z"/><path class="cls-2" d="M2616.36,789.09q-48.22.07-96.46.18c-4.63,0-9.27.31-13.9.47l-5.25-1.3q0-310.68,0-621.36c0-2.67-.1-5.33-.15-8-1.76-5.61-6.54-3.59-10.09-3.6-32-.17-64-.07-96-.13-3.81,0-7.62-.47-11.82-.75V61.45c1.65-.11,3.31-.33,5-.33q168.69,0,337.37,0c2.86,0,5.73.52,9.38.87v93.44c-4.33,0-8.66.1-13,.12l-100.95.3-2.21,1.1v0c-.61,4.16-1.74,8.32-1.74,12.49q-.14,257.36-.08,514.72Q2616.44,736.62,2616.36,789.09Z"/><path class="cls-3" d="M2701.55,259c.1,3.65.28,7.31.28,11q0,192.12,0,384.23c0,3.66-.17,7.32-.25,11l-.93,4-.09.24c-.72-4.13-2.09-8.27-2.09-12.4q-.16-174.89-.09-349.77c0-14.65,0-29.31,0-44C2698.45,261.35,2697.2,258,2701.55,259Z"/><path class="cls-4" d="M2616.36,789.09q.06-52.47.1-104.94,0-257.37.08-514.72c0-4.17,1.13-8.33,1.74-12.49.08.65.13,1.3.17,1.95q0,148.38-.08,296.77,0,161.88-.11,323.75C2618.25,782.59,2620.24,786.53,2616.36,789.09Z"/><path class="cls-5" d="M2500.61,159.09c0,2.66.15,5.32.15,8q0,310.68,0,621.36c-.13.85-.27,1.7-.4,2.54-.66-4.16-1.88-8.32-1.89-12.48q-.16-149.34-.08-298.67,0-153.33,0-306.67c0-4.66-.12-9.32-.18-14Z"/><path class="cls-4" d="M2734.44,155.44V62c-3.65-.35-6.52-.87-9.38-.87q-168.69-.06-337.37,0c-1.66,0-3.32.22-5,.33l-.21-2.44H2737c.56,3.36,1.33,5.87,1.33,8.38q.13,41,0,82c0,2.55-1,5.11-1.53,7.66Z"/><path class="cls-6" d="M3024.21,789c.06-3,.16-6,.16-9q0-256.51,0-513c0-3.33-.12-6.65-.18-10,.71,1.41,1.85,2.76,2,4.23a79,79,0,0,1,.17,9q0,254.27-.15,508.51C3026.23,782.08,3028.79,786.41,3024.21,789Z"/><path class="cls-7" d="M2410.22,789c.05-3.33.15-6.65.15-10q0-255,0-510c0-4-.18-8-.27-12,.76,4.08,2.18,8.17,2.18,12.25q.19,134.34.1,268.66,0,120.86-.12,241.7C2412.25,782.71,2414.46,786.69,2410.22,789Z"/><path class="cls-8" d="M2906.76,257.07c-.13,4.65-.36,9.3-.37,13.95q0,200.07,0,400.13c0,5.2,1.19,10.82-3.77,14.82.6-7.6,1.72-15.2,1.72-22.8q.16-196.41.18-392.83C2904.48,265.92,2906,261.49,2906.76,257.07Z"/><path class="cls-9" d="M2292.7,257c-.1,4.66-.31,9.32-.31,14q0,198.4,0,396.79c0,4.33-.26,8.65-.39,13-.53-3.21-1.52-6.43-1.53-9.64q-.11-201.9,0-403.81C2290.48,263.88,2291.93,260.45,2292.7,257Z"/><path class="cls-10" d="M2086.54,659.38c-.72-4.47-2.07-8.94-2.07-13.41q-.18-167.37-.09-334.76c0-14.32,0-28.65,0-43a15.35,15.35,0,0,1,2-8.49V270.5q0,187.37,0,374.73c0,4.66.16,9.33.24,14Z"/><path class="cls-5" d="M2820.36,657.12c-.12-6.66-.35-13.32-.35-20q-.08-188.92-.11-377.84c.81.68,2.24,1.29,2.33,2.05a70.54,70.54,0,0,1,.15,8q0,187.17-.09,374.32C2822.29,648.14,2821,652.63,2820.36,657.12Z"/><path class="cls-11" d="M2382.51,59l.21,2.44v93.16c4.2.28,8,.74,11.82.75,32,.06,64,0,96,.13,3.55,0,8.33-2,10.09,3.6l-2.42.09-116.85-.25c-.46-3.78-1-6.32-1-8.87-.07-27.25-.12-54.51.05-81.77C2380.38,65.19,2381.76,62.1,2382.51,59Z"/><path class="cls-12" d="M3484.32,453.12c.56,3.18,1.61,6.36,1.61,9.54q.18,61.57,0,123.14c0,2.9-.77,5.81-1.19,8.71-.82-2.35-2.33-4.7-2.33-7q-.22-63.44,0-126.87C3482.43,458.1,3483.66,455.61,3484.32,453.12Z"/><path class="cls-5" d="M1464.46,542c4.5,4.87,4.26,11,4.27,16.93,0,27.65,0,55.29,0,82.94q.07,73.45.21,146.89c-.85-.62-2.37-1.19-2.44-1.89-.29-3-.16-6-.16-9,0-63.77.12-127.53-.09-191.29C1466.24,571.7,1465.1,556.83,1464.46,542Z"/><path class="cls-13" d="M2734.44,155.44l2.33,1.59c-2.83.67-5.67,1.91-8.5,1.92-36.61.08-73.22,0-109.82-.06,0-.65-.09-1.3-.17-1.95v0l2.21-1.1,100.95-.3C2725.78,155.54,2730.11,155.48,2734.44,155.44Z"/><path class="cls-14" d="M1454.19,75.22c-1.49-4.35-3-8.7-4.66-13.58H1335c.61,5.72,1.15,10.86,1.7,16-2-5.49-4-11-6.49-18,4.92-.27,8.38-.61,11.84-.62q48.78-.06,97.57,0C1453.77,59.05,1455,60.4,1454.19,75.22Z"/><path class="cls-15" d="M1694.14,461.24c.07,20.27.18,40.53.18,60.8,0,21.6-.11,43.2-.18,64.8-.61-2.82-1.76-5.63-1.77-8.45q-.18-54.36,0-108.7C1692.38,466.87,1693.53,464.05,1694.14,461.24Z"/><path class="cls-16" d="M719.38,850.58l43.67-1.19c-1.82.55-3.65,1.56-5.48,1.56C744.84,850.94,732.11,850.73,719.38,850.58Z"/><path class="cls-16" d="M449.72,849.4l43.49,1.19c-12.64.15-25.27.36-37.9.36C453.45,851,451.59,849.94,449.72,849.4Z"/><path class="cls-14" d="M1346.2,107.05l6.51,28.6c-2.65-8.37-5.38-16.72-7.86-25.14C1344.58,109.57,1345.72,108.21,1346.2,107.05Z"/><path class="cls-14" d="M1378.2,223.05l6.51,28.6c-2.65-8.37-5.38-16.72-7.86-25.14C1376.58,225.57,1377.72,224.21,1378.2,223.05Z"/><path class="cls-14" d="M1362.2,165.05l6.51,28.6c-2.65-8.37-5.38-16.72-7.86-25.14C1360.58,167.57,1361.72,166.21,1362.2,165.05Z"/><path class="cls-14" d="M1394.2,281.05l6.51,28.6c-2.65-8.37-5.38-16.72-7.86-25.14C1392.58,283.57,1393.72,282.21,1394.2,281.05Z"/><path class="cls-14" d="M1410.2,339.05l6.51,28.6c-2.65-8.37-5.38-16.72-7.86-25.14C1408.58,341.57,1409.72,340.21,1410.2,339.05Z"/><path class="cls-14" d="M1426.2,397.05l6.51,28.6c-2.65-8.37-5.38-16.72-7.86-25.14C1424.58,399.57,1425.72,398.21,1426.2,397.05Z"/><path class="cls-16" d="M443.17,1.48l-33,1.17c6.74-.53,13.48-1.23,20.23-1.54C434.66.92,438.92,1.34,443.17,1.48Z"/><path class="cls-14" d="M1336.5,78c5.87,7.33,5.52,16.69,8.21,25.06C1338.83,95.71,1337.91,86.76,1336.5,78Z"/><path class="cls-14" d="M1352.5,136c5.87,7.33,5.52,16.69,8.21,25.06C1354.83,153.71,1353.91,144.76,1352.5,136Z"/><path class="cls-14" d="M1368.5,194c5.87,7.33,5.52,16.69,8.21,25.06C1370.83,211.71,1369.91,202.76,1368.5,194Z"/><path class="cls-14" d="M1400.5,310c5.87,7.33,5.52,16.69,8.21,25.06C1402.83,327.71,1401.91,318.76,1400.5,310Z"/><path class="cls-14" d="M1384.5,252c5.87,7.33,5.52,16.69,8.21,25.06C1386.83,269.71,1385.91,260.76,1384.5,252Z"/><path class="cls-14" d="M1416.5,368c5.87,7.33,5.52,16.69,8.21,25.06C1418.83,385.71,1417.91,376.76,1416.5,368Z"/><path class="cls-16" d="M807.35,848.57l25.71-1.18Z"/><path class="cls-16" d="M2,338.87Q1.43,350.66.87,362.45,1.44,350.65,2,338.87Z"/><path class="cls-16" d="M379.73,847.4l24.12,1.14Z"/><path class="cls-14" d="M1432.5,426q3,8.58,5.92,17.16C1434,438.27,1432.68,432.31,1432.5,426Z"/><path class="cls-17" d="M1872.28,246.87l-21.82,0A28.32,28.32,0,0,1,1872.28,246.87Z"/><path class="cls-16" d="M500.44,850.76l22.8.28Z"/><path class="cls-16" d="M470.8,1,450,1.28Z"/><path class="cls-16" d="M689.51,851l21.25-.25Z"/><path class="cls-17" d="M3328.07,246.73l-17.43.06A20.24,20.24,0,0,1,3328.07,246.73Z"/><path class="cls-16" d="M.63,368.62q-.15,8.44-.29,16.89Q.48,377.07.63,368.62Z"/><path class="cls-12" d="M3485.7,601.57q.28,6.73.59,13.46C3483,610.68,3484,606.14,3485.7,601.57Z"/><path class="cls-12" d="M3486.23,433.1q-.9,7.15-1.79,14.32Q3485.33,440.27,3486.23,433.1Z"/><path class="cls-16" d="M410.42,848.75l12.82.29Z"/><path class="cls-16" d="M789.51,849l11.23-.24Z"/><path class="cls-4" d="M2500.35,791c.13-.84.27-1.69.4-2.54l5.25,1.3Z"/><path class="cls-8" d="M2902.53,686.85l-2.07,2.27Z"/><path class="cls-8" d="M2900.47,689.1l-2,2.94Z"/><path class="cls-18" d="M484.88,608.15V245.24a7.9,7.9,0,0,1,1-.55c.3-.11.73-.28.94-.16Q641.12,333.71,795.41,423a35.15,35.15,0,0,1,3.74,3.07Z"/><path class="cls-19" d="M2700.65,669.16l.93-4C2701.26,666.51,2701,667.83,2700.65,669.16Z"/><path class="cls-20" d="M1814.77,421.45c.5,3.57,1.43,7.14,1.44,10.71q.13,90.87,0,181.74c0,3.57-.94,7.14-1.44,10.71Z"/><path class="cls-9" d="M3602,491.08h86.85c-2.47.64-4.94,1.84-7.42,1.86q-36,.21-72,0C3606.9,492.92,3604.43,491.72,3602,491.08Z"/><path class="cls-4" d="M2620.5,155.86l-2.21,1.1Z"/></g></g></svg>